<?xml version="1.0" standalone="no"?><!DOCTYPE svg PUBLIC "-//W3C//DTD SVG 1.1//EN" 	"http://www.w3.org/Graphics/SVG/1.1/DTD/svg11.dtd"><svg width="1440" height="732" version="1.1"	xmlns="http://www.w3.org/2000/svg"><title>Krona (snapshot) - root</title><defs>	<style type="text/css">	text {font-size: 11px; font-family: sans-serif; dominant-baseline:central}	path {stroke-width:0.27499999999999997;}	path.wedge {stroke:none}	path.line {fill:none;stroke:black;}	line {stroke:black;stroke-width:0.27499999999999997;}	line.tick {stroke-width:0.5499999999999999;}	line.pattern {stroke-width:0.18333333333333332;}	circle {fill:none;stroke:black;stroke-width:0.27499999999999997;}	rect {stroke:black;stroke-width:0.27499999999999997;}	.highlight {stroke:black;stroke-width:1.375;}	.searchHighlight {fill:rgb(255, 255, 100);stroke:none;}	</style><pattern id="hiddenPattern" patternUnits="userSpaceOnUse" x="0" y="0" width="6.6" height="6.6"><line class="pattern" x1="0" y1="0" x2="3.3" y2="3.3"/><line class="pattern" x1="3.3" y1="6.6" x2="6.6" y2="3.3"/></pattern></defs><path class="wedge" fill="rgb(220,220,220)" d=" M 645.4463256525819,422.7282442299411 L 646.7853026103274,592.9129769197644 A 226.92,226.92 0 0,1 645.0000000000001,592.92 L 645,422.73 A 56.73,56.73 0 0 0 645.4463256525819,422.7282442299411 Z "/><path class="wedge" fill="rgb(207,111,111)" d=" M 645,422.73 L 645,592.92 A 226.92,226.92 0 1,1 649.0678009896199,592.883537073779 L 646.016950247405,422.72088426844476 A 56.73,56.73 0 1 0 645,422.73 Z "/><path class="wedge" fill="rgb(207,111,111)" d=" M 646.6871034494669,460.01831310438814 L 649.0712907919776,592.8834744781716 A 226.92,226.92 0 0,1 649.0678009896199,592.883537073779 L 646.6856573091894,460.0183390434012 A 94.03344892666632,94.03344892666632 0 0 0 646.6871034494669,460.01831310438814 Z "/><path class="wedge" fill="rgb(210,121,121)" d=" M 645,460.0334489266663 L 645,592.92 A 226.92,226.92 0 1,1 649.086994890655,592.8831921336698 L 646.693611075771,460.0181961035628 A 94.03344892666632,94.03344892666632 0 1 0 645,460.0334489266663 Z "/><path class="wedge" fill="rgb(210,121,121)" d=" M 647.3906763466192,485.2898966905373 L 649.5467670088551,592.8744439326897 A 226.92,226.92 0 0,1 649.086994890655,592.8831921336698 L 647.1489295569387,485.2944964681635 A 119.31384993299544,119.31384993299544 0 0 0 647.3906763466192,485.2898966905373 Z "/><path class="wedge" fill="rgb(213,130,130)" d=" M 645,485.3138499329954 L 645,592.92 A 226.92,226.92 0 1,1 650.0815447323017,592.8630959480488 L 647.6718608567674,485.2839299545225 A 119.31384993299544,119.31384993299544 0 1 0 645,485.3138499329954 Z "/><path class="wedge" fill="rgb(213,130,130)" d=" M 648.1630763847811,503.5059138990962 L 650.2185062185731,592.8599867602189 A 226.92,226.92 0 0,1 650.0815447323017,592.8630959480488 L 648.0800603597532,503.5077984611124 A 137.5422895310443,137.5422895310443 0 0 0 648.1630763847811,503.5059138990962 Z "/><path class="wedge" fill="rgb(216,140,140)" d=" M 645,503.5422895310443 L 645,592.92 A 226.92,226.92 0 1,1 650.4217640117413,592.8552200743924 L 648.2862763770136,503.503024683152 A 137.5422895310443,137.5422895310443 0 1 0 645,503.5422895310443 Z "/><path class="wedge" fill="rgb(216,140,140)" d=" M 649.4337194735165,517.2296569307025 L 651.6499358262968,592.8225402236429 A 226.92,226.92 0 0,1 650.4217640117413,592.8552200743924 L 648.6148590464,517.2514456057279 A 151.29463640112232,151.29463640112232 0 0 0 649.4337194735165,517.2296569307025 Z "/><path class="wedge" fill="rgb(219,149,149)" d=" M 645,517.2946364011223 L 645,592.92 A 226.92,226.92 0 1,1 651.8165273031904,592.8175948984665 L 649.5447912033075,517.2263597282767 A 151.29463640112232,151.29463640112232 0 1 0 645,517.2946364011223 Z "/><path class="wedge" fill="rgb(219,149,149)" d=" M 656.7092455623994,527.6095650929224 L 661.3982566538093,592.3267186584823 A 226.92,226.92 0 0,1 651.8165273031904,592.8175948984665 L 649.8673705846234,527.9600773794456 A 162.03320018182714,162.03320018182714 0 0 0 656.7092455623994,527.6095650929224 Z "/><path class="wedge" fill="rgb(223,159,159)" d=" M 645,528.0332001818272 L 645,592.92 A 226.92,226.92 0 1,1 794.2478553178993,536.9320452197521 L 751.5710718201725,488.0547607111812 A 162.03320018182714,162.03320018182714 0 1 0 645,528.0332001818272 Z "/><path class="wedge" fill="rgb(223,159,159)" d=" M 758.079347726371,493.8035521915045 L 795.367944348516,535.9475440022644 A 226.92,226.92 0 0,1 794.2478553178993,536.9320452197521 L 757.2370210088891,494.54391448076547 A 170.6478445073015,170.6478445073015 0 0 0 758.079347726371,493.8035521915045 Z "/><path class="wedge" fill="rgb(226,168,168)" d=" M 645,536.6478445073014 L 645,592.92 A 226.92,226.92 0 1,1 796.8242668395324,534.6477939335064 L 759.1745279396597,492.8261172028223 A 170.6478445073015,170.6478445073015 0 1 0 645,536.6478445073014 Z "/><path class="wedge" fill="rgb(226,168,168)" d=" M 764.356210114378,497.6627479505966 L 797.4070180070236,534.121346836762 A 226.92,226.92 0 0,1 796.8242668395324,534.6477939335064 L 763.8998336843355,498.07503034490367 A 177.71039387376834,177.71039387376834 0 0 0 764.356210114378,497.6627479505966 Z "/><path class="wedge" fill="rgb(229,178,178)" d=" M 645,543.7103938737683 L 645,592.92 A 226.92,226.92 0 1,1 797.4380468567326,534.0932130411712 L 764.3805100839851,497.6407152170536 A 177.71039387376834,177.71039387376834 0 1 0 645,543.7103938737683 Z "/><path class="wedge" fill="rgb(229,178,178)" d=" M 770.9856122990745,499.5602106023101 L 800.7076006125428,531.069165841125 A 226.92,226.92 0 0,1 797.4380468567326,534.0932130411712 L 768.3401619148284,502.00701754442696 A 183.6047503811003,183.6047503811003 0 0 0 770.9856122990745,499.5602106023101 Z "/><path class="wedge" fill="rgb(229,178,178)" d=" M 645,549.6047503811003 L 645,592.92 A 226.92,226.92 0 1,1 801.0367264344741,530.7580844863556 L 771.2519134817805,499.30850949843807 A 183.6047503811003,183.6047503811003 0 1 0 645,549.6047503811003 Z "/><path class="wedge" fill="rgb(229,178,178)" d=" M 457.56809846079204,386.94087091561784 L 419.4831448137177,391.19592083828985 A 226.92,226.92 0 1,1 801.0367264344741,530.7580844863556 L 774.6854743802123,502.93398235678103 A 188.59808532778885,188.59808532778885 0 1 0 457.56809846079204,386.94087091561784 Z "/><path class="wedge" fill="rgb(229,178,178)" d=" M 645,554.5980853277888 L 645,592.92 A 226.92,226.92 0 0,1 518.7957657362806,554.5873210316861 L 540.1089505446977,522.7389726056454 A 188.59808532778885,188.59808532778885 0 0 0 645,554.5980853277888 Z "/><path class="wedge" fill="rgb(229,180,178)" d=" M 540.1089505446977,522.7389726056454 L 518.7957657362806,554.5873210316861 A 226.92,226.92 0 0,1 465.3602780948082,504.6443533427357 L 495.69756918678115,481.230299585534 A 188.59808532778885,188.59808532778885 0 0 0 540.1089505446977,522.7389726056454 Z "/><path class="wedge" fill="rgb(229,181,178)" d=" M 495.69756918678115,481.230299585534 L 465.3602780948082,504.6443533427357 A 226.92,226.92 0 0,1 434.5564885511182,450.88942742806285 L 470.0958781556684,436.55342621851287 A 188.59808532778885,188.59808532778885 0 0 0 495.69756918678115,481.230299585534 Z "/><path class="wedge" fill="rgb(229,182,178)" d=" M 470.0958781556684,436.55342621851287 L 434.5564885511182,450.88942742806285 A 226.92,226.92 0 0,1 419.4831448137177,391.19592083828985 L 457.56809846079204,386.94087091561784 A 188.59808532778885,188.59808532778885 0 0 0 470.0958781556684,436.55342621851287 Z "/><path class="wedge" fill="rgb(229,199,178)" d=" M 771.2519134817805,499.30850949843807 L 801.0367264344741,530.7580844863556 A 226.92,226.92 0 0,1 800.7076006125428,531.069165841125 L 770.9856122990745,499.5602106023101 A 183.6047503811003,183.6047503811003 0 0 0 771.2519134817805,499.30850949843807 Z "/><path class="wedge" fill="url(#hiddenPattern)" d=" M 771.2519134817805,499.30850949843807 L 801.0367264344741,530.7580844863556 A 226.92,226.92 0 0,1 800.7076006125428,531.069165841125 L 770.9856122990745,499.5602106023101 A 183.6047503811003,183.6047503811003 0 0 0 771.2519134817805,499.30850949843807 Z "/><path class="wedge" fill="rgb(226,192,168)" d=" M 764.3805100839851,497.6407152170536 L 797.4380468567326,534.0932130411712 A 226.92,226.92 0 0,1 797.4070180070236,534.121346836762 L 764.356210114378,497.6627479505966 A 177.71039387376834,177.71039387376834 0 0 0 764.3805100839851,497.6407152170536 Z "/><path class="wedge" fill="url(#hiddenPattern)" d=" M 764.3805100839851,497.6407152170536 L 797.4380468567326,534.0932130411712 A 226.92,226.92 0 0,1 797.4070180070236,534.121346836762 L 764.356210114378,497.6627479505966 A 177.71039387376834,177.71039387376834 0 0 0 764.3805100839851,497.6407152170536 Z "/><path class="wedge" fill="rgb(223,186,159)" d=" M 759.1745279396597,492.8261172028223 L 796.8242668395324,534.6477939335064 A 226.92,226.92 0 0,1 795.367944348516,535.9475440022644 L 758.079347726371,493.8035521915045 A 170.6478445073015,170.6478445073015 0 0 0 759.1745279396597,492.8261172028223 Z "/><path class="wedge" fill="url(#hiddenPattern)" d=" M 759.1745279396597,492.8261172028223 L 796.8242668395324,534.6477939335064 A 226.92,226.92 0 0,1 795.367944348516,535.9475440022644 L 758.079347726371,493.8035521915045 A 170.6478445073015,170.6478445073015 0 0 0 759.1745279396597,492.8261172028223 Z "/><path class="wedge" fill="rgb(223,186,159)" d=" M 751.5710718201725,488.0547607111812 L 794.2478553178993,536.9320452197521 A 226.92,226.92 0 0,1 661.3982566538093,592.3267186584823 L 656.7092455623994,527.6095650929224 A 162.03320018182714,162.03320018182714 0 0 0 751.5710718201725,488.0547607111812 Z "/><path class="wedge" fill="rgb(223,186,159)" d=" M 657.4220960088511,536.1951185132377 L 661.5183570555319,592.3179848800929 A 226.92,226.92 0 0,1 661.3982566538093,592.3267186584823 L 657.3317783873174,536.2016864687134 A 170.6478445073015,170.6478445073015 0 0 0 657.4220960088511,536.1951185132377 Z "/><path class="wedge" fill="rgb(226,193,168)" d=" M 757.2370210088891,494.54391448076547 L 794.2478553178993,536.9320452197521 A 226.92,226.92 0 0,1 661.94476269761,592.2864587577474 L 657.7427605765683,536.1714103128854 A 170.6478445073015,170.6478445073015 0 0 0 757.2370210088891,494.54391448076547 Z "/><path class="wedge" fill="rgb(226,193,168)" d=" M 658.4166493080912,543.2032099373868 L 662.1318401508616,592.2723722707775 A 226.92,226.92 0 0,1 661.94476269761,592.2864587577474 L 658.2701412528196,543.2142416452473 A 177.71039387376834,177.71039387376834 0 0 0 658.4166493080912,543.2032099373868 Z "/><path class="wedge" fill="rgb(229,200,178)" d=" M 761.8821397556808,499.8639215655338 L 794.2478553178993,536.9320452197521 A 226.92,226.92 0 0,1 662.1466318236994,592.2712518573725 L 658.4282332760362,543.2023324955239 A 177.71039387376834,177.71039387376834 0 0 0 761.8821397556808,499.8639215655338 Z "/><path class="wedge" fill="rgb(229,200,178)" d=" M 662.9889251871813,548.7213806129872 L 667.2327956929341,591.8282294038463 A 226.92,226.92 0 0,1 662.1466318236994,592.2712518573725 L 658.8736253122993,549.0798374567776 A 183.6047503811003,183.6047503811003 0 0 0 662.9889251871813,548.7213806129872 Z "/><path class="wedge" fill="rgb(229,200,178)" d=" M 765.7589248217763,504.30396392871296 L 794.2478553178993,536.9320452197521 A 226.92,226.92 0 0,1 670.3984007604627,591.4941410298967 L 665.5502689569183,548.451064146813 A 183.6047503811003,183.6047503811003 0 0 0 765.7589248217763,504.30396392871296 Z "/><path class="wedge" fill="rgb(229,200,178)" d=" M 746.7935460534402,524.7681069080754 L 767.4773381463547,557.0287623385115 A 226.92,226.92 0 0,1 670.3984007604627,591.4941410298967 L 666.109156327389,553.4130233160273 A 188.59808532778885,188.59808532778885 0 0 0 746.7935460534402,524.7681069080754 Z "/><path class="wedge" fill="rgb(229,200,178)" d=" M 769.0430977976145,508.06529371412074 L 794.2478553178993,536.9320452197521 A 226.92,226.92 0 0,1 779.4578637506264,548.7943360052985 L 756.7508181765946,517.9242983402247 A 188.59808532778885,188.59808532778885 0 0 0 769.0430977976145,508.06529371412074 Z "/><path class="wedge" fill="rgb(229,200,178)" d=" M 756.7508181765946,517.9242983402247 L 779.4578637506264,548.7943360052985 A 226.92,226.92 0 0,1 767.4773381463547,557.0287623385115 L 746.7935460534402,524.7681069080754 A 188.59808532778885,188.59808532778885 0 0 0 756.7508181765946,517.9242983402247 Z "/><path class="wedge" fill="rgb(229,202,178)" d=" M 665.5502689569183,548.451064146813 L 670.3984007604627,591.4941410298967 A 226.92,226.92 0 0,1 667.2327956929341,591.8282294038463 L 662.9889251871813,548.7213806129872 A 183.6047503811003,183.6047503811003 0 0 0 665.5502689569183,548.451064146813 Z "/><path class="wedge" fill="url(#hiddenPattern)" d=" M 665.5502689569183,548.451064146813 L 670.3984007604627,591.4941410298967 A 226.92,226.92 0 0,1 667.2327956929341,591.8282294038463 L 662.9889251871813,548.7213806129872 A 183.6047503811003,183.6047503811003 0 0 0 665.5502689569183,548.451064146813 Z "/><path class="wedge" fill="rgb(226,196,168)" d=" M 658.4282332760362,543.2023324955239 L 662.1466318236994,592.2712518573725 A 226.92,226.92 0 0,1 662.1318401508616,592.2723722707775 L 658.4166493080912,543.2032099373868 A 177.71039387376834,177.71039387376834 0 0 0 658.4282332760362,543.2023324955239 Z "/><path class="wedge" fill="url(#hiddenPattern)" d=" M 658.4282332760362,543.2023324955239 L 662.1466318236994,592.2712518573725 A 226.92,226.92 0 0,1 662.1318401508616,592.2723722707775 L 658.4166493080912,543.2032099373868 A 177.71039387376834,177.71039387376834 0 0 0 658.4282332760362,543.2023324955239 Z "/><path class="wedge" fill="rgb(223,189,159)" d=" M 657.7427605765683,536.1714103128854 L 661.94476269761,592.2864587577474 A 226.92,226.92 0 0,1 661.5183570555319,592.3179848800929 L 657.4220960088511,536.1951185132377 A 170.6478445073015,170.6478445073015 0 0 0 657.7427605765683,536.1714103128854 Z "/><path class="wedge" fill="url(#hiddenPattern)" d=" M 657.7427605765683,536.1714103128854 L 661.94476269761,592.2864587577474 A 226.92,226.92 0 0,1 661.5183570555319,592.3179848800929 L 657.4220960088511,536.1951185132377 A 170.6478445073015,170.6478445073015 0 0 0 657.7427605765683,536.1714103128854 Z "/><path class="wedge" fill="rgb(216,177,140)" d=" M 649.5447912033075,517.2263597282767 L 651.8165273031904,592.8175948984665 A 226.92,226.92 0 0,1 651.6499358262968,592.8225402236429 L 649.4337194735165,517.2296569307025 A 151.29463640112232,151.29463640112232 0 0 0 649.5447912033075,517.2263597282767 Z "/><path class="wedge" fill="url(#hiddenPattern)" d=" M 649.5447912033075,517.2263597282767 L 651.8165273031904,592.8175948984665 A 226.92,226.92 0 0,1 651.6499358262968,592.8225402236429 L 649.4337194735165,517.2296569307025 A 151.29463640112232,151.29463640112232 0 0 0 649.5447912033075,517.2263597282767 Z "/><path class="wedge" fill="rgb(213,171,130)" d=" M 648.2862763770136,503.503024683152 L 650.4217640117413,592.8552200743924 A 226.92,226.92 0 0,1 650.2185062185731,592.8599867602189 L 648.1630763847811,503.5059138990962 A 137.5422895310443,137.5422895310443 0 0 0 648.2862763770136,503.503024683152 Z "/><path class="wedge" fill="url(#hiddenPattern)" d=" M 648.2862763770136,503.503024683152 L 650.4217640117413,592.8552200743924 A 226.92,226.92 0 0,1 650.2185062185731,592.8599867602189 L 648.1630763847811,503.5059138990962 A 137.5422895310443,137.5422895310443 0 0 0 648.2862763770136,503.503024683152 Z "/><path class="wedge" fill="rgb(210,165,121)" d=" M 647.6718608567674,485.2839299545225 L 650.0815447323017,592.8630959480488 A 226.92,226.92 0 0,1 649.5467670088551,592.8744439326897 L 647.3906763466192,485.2898966905373 A 119.31384993299544,119.31384993299544 0 0 0 647.6718608567674,485.2839299545225 Z "/><path class="wedge" fill="url(#hiddenPattern)" d=" M 647.6718608567674,485.2839299545225 L 650.0815447323017,592.8630959480488 A 226.92,226.92 0 0,1 649.5467670088551,592.8744439326897 L 647.3906763466192,485.2898966905373 A 119.31384993299544,119.31384993299544 0 0 0 647.6718608567674,485.2839299545225 Z "/><path class="wedge" fill="rgb(207,159,111)" d=" M 646.693611075771,460.0181961035628 L 649.086994890655,592.8831921336698 A 226.92,226.92 0 0,1 649.0712907919776,592.8834744781716 L 646.6871034494669,460.01831310438814 A 94.03344892666632,94.03344892666632 0 0 0 646.693611075771,460.0181961035628 Z "/><path class="wedge" fill="url(#hiddenPattern)" d=" M 646.693611075771,460.0181961035628 L 649.086994890655,592.8831921336698 A 226.92,226.92 0 0,1 649.0712907919776,592.8834744781716 L 646.6871034494669,460.01831310438814 A 94.03344892666632,94.03344892666632 0 0 0 646.693611075771,460.0181961035628 Z "/><path class="wedge" fill="rgb(101,204,204)" d=" M 646.016950247405,422.72088426844476 L 649.0678009896199,592.883537073779 A 226.92,226.92 0 0,1 646.7853026103274,592.9129769197644 L 645.4463256525819,422.7282442299411 A 56.73,56.73 0 0 0 646.016950247405,422.72088426844476 Z "/><path class="wedge" fill="url(#hiddenPattern)" d=" M 646.016950247405,422.72088426844476 L 649.0678009896199,592.883537073779 A 226.92,226.92 0 0,1 646.7853026103274,592.9129769197644 L 645.4463256525819,422.7282442299411 A 56.73,56.73 0 0 0 646.016950247405,422.72088426844476 Z "/><rect fill="rgb(101,204,204)" x="1407.02" y="669.6866666666667" width="22" height="22"/><rect fill="url(#hiddenPattern)" style="stroke:none" x="1407.02" y="669.6866666666667" width="22" height="22"/><path class="line" d="M 647.9265888187549,592.9011270969934 L 649.1223993038376,685.613415588238 A 319.64,319.64 0 0,0 701.0538261158164,680.6866666666667 L 987.82,680.6866666666667 L 1323.4601041666667,680.6866666666667"/><text x="1399.6866666666667" y="680.6866666666667" style="font-color:black;font-weight:normal" text-anchor="end">Viruses&#160;&#160;&#160;0.2%</text><circle cx="645" cy="366" r="56.73"/><circle cx="645" cy="366" r="226.92"/><text x="645" y="366" text-anchor="middle" style="font-color:black;font-weight:bold" transform="rotate(360,645,366)">root</text><rect fill="rgb(220,220,220)" x="1407.02" y="699.02" width="22" height="22"/><path class="line" d="M 645.892658212041,592.9182442231486 L 646.3533168263209,710.02 L 976.82,710.02 L 1306.7506315104167,710.02"/><text x="1399.6866666666667" y="710.02" style="font-color:black;font-weight:normal" text-anchor="end">[other root]&#160;&#160;&#160;0.1%</text><path class="line" d=" M 646.016950247405,422.72088426844476 A 56.73,56.73 0 1 0 645,422.73"/><line x1="649.0678009896199" y1="592.883537073779" x2="646.016950247405" y2="422.72088426844476"/><text x="645" y="298.0789653220001" text-anchor="middle" style="font-color:black;font-weight:normal" transform="rotate(359.48642624491873,645,366)">cellular organisms</text><path class="line" d=" M 646.693611075771,460.0181961035628 A 94.03344892666632,94.03344892666632 0 1 0 645,460.0334489266663"/><line x1="649.086994890655" y1="592.8831921336698" x2="646.693611075771" y2="460.0181961035628"/><text x="645" y="259.3263505701691" text-anchor="middle" style="font-color:black;font-weight:normal" transform="rotate(359.484002687945,645,366)">Bacteria</text><path class="line" d=" M 647.6718608567674,485.2839299545225 A 119.31384993299544,119.31384993299544 0 1 0 645,485.3138499329954"/><line x1="650.0815447323017" y1="592.8630959480488" x2="647.6718608567674" y2="485.2839299545225"/><text x="645" y="237.57193026798012" text-anchor="middle" style="font-color:black;font-weight:normal" transform="rotate(359.35841837203066,645,366)">Terrabacteria group</text><path class="line" d=" M 648.2862763770136,503.503024683152 A 137.5422895310443,137.5422895310443 0 1 0 645,503.5422895310443"/><line x1="650.4217640117413" y1="592.8552200743924" x2="648.2862763770136" y2="503.503024683152"/><text x="645" y="221.5815370339167" text-anchor="middle" style="font-color:black;font-weight:normal" transform="rotate(359.3154553165863,645,366)">Firmicutes</text><path class="line" d=" M 649.5447912033075,517.2263597282767 A 151.29463640112232,151.29463640112232 0 1 0 645,517.2946364011223"/><line x1="651.8165273031904" y1="592.8175948984665" x2="649.5447912033075" y2="517.2263597282767"/><path class="line" d=" M 751.5710718201725,488.0547607111812 A 162.03320018182714,162.03320018182714 0 1 0 645,528.0332001818272"/><line x1="794.2478553178993" y1="536.9320452197521" x2="751.5710718201725" y2="488.0547607111812"/><path class="line" d=" M 759.1745279396597,492.8261172028223 A 170.6478445073015,170.6478445073015 0 1 0 645,536.6478445073014"/><line x1="796.8242668395324" y1="534.6477939335064" x2="759.1745279396597" y2="492.8261172028223"/><path class="line" d=" M 764.3805100839851,497.6407152170536 A 177.71039387376834,177.71039387376834 0 1 0 645,543.7103938737683"/><line x1="797.4380468567326" y1="534.0932130411712" x2="764.3805100839851" y2="497.6407152170536"/><path class="line" d=" M 771.2519134817805,499.30850949843807 A 183.6047503811003,183.6047503811003 0 1 0 645,549.6047503811003"/><line x1="801.0367264344741" y1="530.7580844863556" x2="771.2519134817805" y2="499.30850949843807"/><text x="439.7376248094498" y="366" text-anchor="end" style="font-color:black;font-weight:normal" transform="rotate(68.27865029908897,645,366)">Enterococcus faecalis&#160;&#160;&#160;88%</text><path class="line" d=" M 540.1089505446977,522.7389726056454 A 188.59808532778885,188.59808532778885 0 0 0 645,554.5980853277888"/><line x1="518.7957657362806" y1="554.5873210316861" x2="540.1089505446977" y2="522.7389726056454"/><text x="437.24095733610557" y="366" text-anchor="end" style="font-color:black;font-weight:normal" transform="rotate(-73.10461320397904,645,366)">Enterococcus faecalis V583&#160;&#160;&#160;9%</text><path class="line" d=" M 495.69756918678115,481.230299585534 A 188.59808532778885,188.59808532778885 0 0 0 540.1089505446977,522.7389726056454"/><line x1="465.3602780948082" y1="504.6443533427357" x2="495.69756918678115" y2="481.230299585534"/><text x="437.24095733610557" y="366" text-anchor="end" style="font-color:black;font-weight:normal" transform="rotate(-46.934934839365916,645,366)">Enterococcus faecalis str. Symbioflor 1&#160;&#160;&#160;5%</text><path class="line" d=" M 470.0958781556684,436.55342621851287 A 188.59808532778885,188.59808532778885 0 0 0 495.69756918678115,481.230299585534"/><line x1="434.5564885511182" y1="450.88942742806285" x2="470.0958781556684" y2="436.55342621851287"/><text x="437.24095733610557" y="366" text-anchor="end" style="font-color:black;font-weight:normal" transform="rotate(-29.814487729824823,645,366)">Enterococcus faecalis OG1RF&#160;&#160;&#160;4%</text><path class="line" d=" M 457.56809846079204,386.94087091561784 A 188.59808532778885,188.59808532778885 0 0 0 470.0958781556684,436.55342621851287"/><line x1="419.4831448137177" y1="391.19592083828985" x2="457.56809846079204" y2="386.94087091561784"/><text x="437.24095733610557" y="366" text-anchor="end" style="font-color:black;font-weight:normal" transform="rotate(-14.171639242528288,645,366)">Enterococcus faecalis D32&#160;&#160;&#160;4%</text><path class="line" d=" M 770.9856122990745,499.5602106023101 A 183.6047503811003,183.6047503811003 0 0 0 771.2519134817805,499.30850949843807"/><line x1="800.7076006125428" y1="531.069165841125" x2="770.9856122990745" y2="499.5602106023101"/><path class="line" d=" M 764.356210114378,497.6627479505966 A 177.71039387376834,177.71039387376834 0 0 0 764.3805100839851,497.6407152170536"/><line x1="797.4070180070236" y1="534.121346836762" x2="764.356210114378" y2="497.6627479505966"/><path class="line" d=" M 758.079347726371,493.8035521915045 A 170.6478445073015,170.6478445073015 0 0 0 759.1745279396597,492.8261172028223"/><line x1="795.367944348516" y1="535.9475440022644" x2="758.079347726371" y2="493.8035521915045"/><path class="line" d=" M 656.7092455623994,527.6095650929224 A 162.03320018182714,162.03320018182714 0 0 0 751.5710718201725,488.0547607111812"/><line x1="661.3982566538093" y1="592.3267186584823" x2="656.7092455623994" y2="527.6095650929224"/><path class="line" d=" M 657.7427605765683,536.1714103128854 A 170.6478445073015,170.6478445073015 0 0 0 757.2370210088891,494.54391448076547"/><line x1="661.94476269761" y1="592.2864587577474" x2="657.7427605765683" y2="536.1714103128854"/><path class="line" d=" M 658.4282332760362,543.2023324955239 A 177.71039387376834,177.71039387376834 0 0 0 761.8821397556808,499.8639215655338"/><line x1="662.1466318236994" y1="592.2712518573725" x2="658.4282332760362" y2="543.2023324955239"/><path class="line" d=" M 665.5502689569183,548.451064146813 A 183.6047503811003,183.6047503811003 0 0 0 765.7589248217763,504.30396392871296"/><line x1="670.3984007604627" y1="591.4941410298967" x2="665.5502689569183" y2="548.451064146813"/><text x="850.2623751905502" y="366" text-anchor="start" style="font-color:black;font-weight:normal" transform="rotate(426.2240247937222,645,366)">10%&#160;&#160;&#160;Staphylococcus epidermidis</text><path class="line" d=" M 756.7508181765946,517.9242983402247 A 188.59808532778885,188.59808532778885 0 0 0 769.0430977976145,508.06529371412074"/><line x1="779.4578637506264" y1="548.7943360052985" x2="756.7508181765946" y2="517.9242983402247"/><text x="852.7590426638944" y="366" text-anchor="start" style="font-color:black;font-weight:normal" transform="rotate(411.2686953552163,645,366)">1%&#160;&#160;&#160;Staphylococcus epidermidis RP62A</text><path class="line" d=" M 746.7935460534402,524.7681069080754 A 188.59808532778885,188.59808532778885 0 0 0 756.7508181765946,517.9242983402247"/><line x1="767.4773381463547" y1="557.0287623385115" x2="746.7935460534402" y2="524.7681069080754"/><text x="852.7590426638944" y="366" text-anchor="start" style="font-color:black;font-weight:normal" transform="rotate(415.4985734062359,645,366)">1%&#160;&#160;&#160;Staphylococcus epidermidis ATCC 12228</text><path class="line" d=" M 662.9889251871813,548.7213806129872 A 183.6047503811003,183.6047503811003 0 0 0 665.5502689569183,548.451064146813"/><line x1="667.2327956929341" y1="591.8282294038463" x2="662.9889251871813" y2="548.7213806129872"/><path class="line" d=" M 658.4166493080912,543.2032099373868 A 177.71039387376834,177.71039387376834 0 0 0 658.4282332760362,543.2023324955239"/><line x1="662.1318401508616" y1="592.2723722707775" x2="658.4166493080912" y2="543.2032099373868"/><path class="line" d=" M 657.4220960088511,536.1951185132377 A 170.6478445073015,170.6478445073015 0 0 0 657.7427605765683,536.1714103128854"/><line x1="661.5183570555319" y1="592.3179848800929" x2="657.4220960088511" y2="536.1951185132377"/><path class="line" d=" M 649.4337194735165,517.2296569307025 A 151.29463640112232,151.29463640112232 0 0 0 649.5447912033075,517.2263597282767"/><line x1="651.6499358262968" y1="592.8225402236429" x2="649.4337194735165" y2="517.2296569307025"/><path class="line" d=" M 648.1630763847811,503.5059138990962 A 137.5422895310443,137.5422895310443 0 0 0 648.2862763770136,503.503024683152"/><line x1="650.2185062185731" y1="592.8599867602189" x2="648.1630763847811" y2="503.5059138990962"/><path class="line" d=" M 647.3906763466192,485.2898966905373 A 119.31384993299544,119.31384993299544 0 0 0 647.6718608567674,485.2839299545225"/><line x1="649.5467670088551" y1="592.8744439326897" x2="647.3906763466192" y2="485.2898966905373"/><path class="line" d=" M 646.6871034494669,460.01831310438814 A 94.03344892666632,94.03344892666632 0 0 0 646.693611075771,460.0181961035628"/><line x1="649.0712907919776" y1="592.8834744781716" x2="646.6871034494669" y2="460.01831310438814"/><path class="line" d=" M 645.4463256525819,422.7282442299411 A 56.73,56.73 0 0 0 646.016950247405,422.72088426844476"/><line x1="646.7853026103274" y1="592.9129769197644" x2="645.4463256525819" y2="422.7282442299411"/></svg>