<?xml version="1.0" standalone="no"?><!DOCTYPE svg PUBLIC "-//W3C//DTD SVG 1.1//EN" 	"http://www.w3.org/Graphics/SVG/1.1/DTD/svg11.dtd"><svg width="1440" height="789" version="1.1"	xmlns="http://www.w3.org/2000/svg"><title>Krona (snapshot) - root</title><defs>	<style type="text/css">	text {font-size: 11px; font-family: sans-serif; dominant-baseline:central}	path {stroke-width:0.27499999999999997;}	path.wedge {stroke:none}	path.line {fill:none;stroke:black;}	line {stroke:black;stroke-width:0.27499999999999997;}	line.tick {stroke-width:0.5499999999999999;}	line.pattern {stroke-width:0.18333333333333332;}	circle {fill:none;stroke:black;stroke-width:0.27499999999999997;}	rect {stroke:black;stroke-width:0.27499999999999997;}	.highlight {stroke:black;stroke-width:1.375;}	.searchHighlight {fill:rgb(255, 255, 100);stroke:none;}	</style><pattern id="hiddenPattern" patternUnits="userSpaceOnUse" x="0" y="0" width="6.6" height="6.6"><line class="pattern" x1="0" y1="0" x2="3.3" y2="3.3"/><line class="pattern" x1="3.3" y1="6.6" x2="6.6" y2="3.3"/></pattern></defs><path class="wedge" fill="rgb(220,220,220)" d=" M 646.004960658223,455.6392411657638 L 649.019842632892,639.0569646630552 A 244.59,244.59 0 0,1 645.0000000000001,639.09 L 645,455.6475 A 61.1475,61.1475 0 0 0 646.004960658223,455.6392411657638 Z "/><path class="wedge" fill="rgb(207,111,111)" d=" M 645,455.6475 L 645,639.09 A 244.59,244.59 0 1,1 650.3363497929472,639.0317800836679 L 646.3340874482368,455.63294502091696 A 61.1475,61.1475 0 1 0 645,455.6475 Z "/><path class="wedge" fill="rgb(210,121,121)" d=" M 645,500.6340961519999 L 645,639.09 A 244.59,244.59 0 1,1 650.3373463380882,639.0317583343058 L 647.316016310737,500.6088235466324 A 106.13409615199994,106.13409615199994 0 1 0 645,500.6340961519999 Z "/><path class="wedge" fill="rgb(210,121,121)" d=" M 648.2864673296235,528.4764183232829 L 650.9980354507867,639.0164445814046 A 244.59,244.59 0 0,1 650.3373463380882,639.0317583343058 L 647.924459935413,528.4848090953976 A 134.01672109943587,134.01672109943587 0 0 0 648.2864673296235,528.4764183232829 Z "/><path class="wedge" fill="rgb(213,130,130)" d=" M 645,528.5167210994359 L 645,639.09 A 244.59,244.59 0 1,1 651.4593959843404,639.0046917822181 L 648.5392578196336,528.4699786830249 A 134.01672109943587,134.01672109943587 0 1 0 645,528.5167210994359 Z "/><path class="wedge" fill="rgb(213,130,130)" d=" M 649.1641169385322,547.3559575294621 L 651.6606736008625,638.9992914656048 A 244.59,244.59 0 0,1 651.4593959843404,639.0046917822181 L 649.0382822883853,547.3593336969836 A 152.91266665036778,152.91266665036778 0 0 0 649.1641169385322,547.3559575294621 Z "/><path class="wedge" fill="rgb(216,140,140)" d=" M 645,547.4126666503678 L 645,639.09 A 244.59,244.59 0 1,1 699.5497706996304,632.9294248129156 L 679.1034012136497,543.5612010141718 A 152.91266665036778,152.91266665036778 0 1 0 645,547.4126666503678 Z "/><path class="wedge" fill="rgb(216,140,140)" d=" M 683.1291795516197,556.6139585390681 L 700.9994644921743,632.5931079989291 A 244.59,244.59 0 0,1 699.5497706996304,632.9294248129156 L 682.1421052034624,556.842951517894 A 166.537593012768,166.537593012768 0 0 0 683.1291795516197,556.6139585390681 Z "/><path class="wedge" fill="rgb(219,149,149)" d=" M 645,561.037593012768 L 645,639.09 A 244.59,244.59 0 1,1 701.4243688797415,632.4927702610373 L 683.4184904554425,556.5456401067656 A 166.537593012768,166.537593012768 0 1 0 645,561.037593012768 Z "/><path class="wedge" fill="rgb(219,149,149)" d=" M 691.5508402668893,565.07906009115 L 709.3935822864503,630.4612990732128 A 244.59,244.59 0 0,1 701.4243688797415,632.4927702610373 L 685.789806835045,566.5476333155832 A 176.81684442137757,176.81684442137757 0 0 0 691.5508402668893,565.07906009115 Z "/><path class="wedge" fill="rgb(223,159,159)" d=" M 645,571.3168444213776 L 645,639.09 A 244.59,244.59 0 1,1 882.3902636237477,335.5921835691768 L 816.6120745341592,351.91488117645065 A 176.81684442137757,176.81684442137757 0 1 0 645,571.3168444213776 Z "/><path class="wedge" fill="rgb(223,159,159)" d=" M 824.1360061680385,348.92165954900446 L 882.0377763171334,334.18946444750617 A 244.59,244.59 0 0,1 882.3902636237477,335.5921835691768 L 824.4023905786286,349.98173320112744 A 184.84343056787924,184.84343056787924 0 0 0 824.1360061680385,348.92165954900446 Z "/><path class="wedge" fill="rgb(226,168,168)" d=" M 645,579.3434305678793 L 645,639.09 A 244.59,244.59 0 1,1 881.2365562237136,331.1236826286016 L 823.530501974459,346.60476340125126 A 184.84343056787924,184.84343056787924 0 1 0 645,579.3434305678793 Z "/><path class="wedge" fill="rgb(226,168,168)" d=" M 829.6044379211162,344.3982021937555 L 881.0508842869638,330.4355939125129 A 244.59,244.59 0 0,1 881.2365562237136,331.1236826286016 L 829.7496433230149,344.93632443403897 A 191.28248389120486,191.28248389120486 0 0 0 829.6044379211162,344.3982021937555 Z "/><path class="wedge" fill="rgb(229,178,178)" d=" M 645,585.7824838912048 L 645,639.09 A 244.59,244.59 0 1,1 881.0323375173273,330.36729581479915 L 829.5899333536187,344.34478942227776 A 191.28248389120486,191.28248389120486 0 1 0 645,585.7824838912048 Z "/><path class="wedge" fill="rgb(229,178,178)" d=" M 833.781849068183,339.7477931693814 L 879.9095419944609,326.3694255128242 A 244.59,244.59 0 0,1 881.0323375173273,330.36729581479915 L 834.6841683742978,342.96062710338737 A 196.56141709507753,196.56141709507753 0 0 0 833.781849068183,339.7477931693814 Z "/><path class="wedge" fill="rgb(229,178,178)" d=" M 645,591.0614170950776 L 645,639.09 A 244.59,244.59 0 1,1 879.7903488569141,325.959791482309 L 833.686061129084,339.4185963684965 A 196.56141709507753,196.56141709507753 0 1 0 645,591.0614170950776 Z "/><path class="wedge" fill="rgb(229,178,178)" d=" M 468.0166156903465,489.70865981161216 L 429.599823304044,510.37507056891457 A 244.59,244.59 0 1,1 879.7903488569141,325.959791482309 L 837.9153038838756,338.18399204299243 A 200.96717947172817,200.96717947172817 0 1 0 468.0166156903465,489.70865981161216 Z "/><path class="wedge" fill="rgb(229,178,178)" d=" M 645,595.4671794717282 L 645,639.09 A 244.59,244.59 0 0,1 536.1643405426171,613.5412457289187 L 555.5752667439561,574.4750657922013 A 200.96717947172817,200.96717947172817 0 0 0 645,595.4671794717282 Z "/><path class="wedge" fill="rgb(229,180,178)" d=" M 555.5752667439561,574.4750657922013 L 536.1643405426171,613.5412457289187 A 244.59,244.59 0 0,1 489.41153867916364,583.2233393192654 L 517.1608641808964,549.5643820412881 A 200.96717947172817,200.96717947172817 0 0 0 555.5752667439561,574.4750657922013 Z "/><path class="wedge" fill="rgb(229,181,178)" d=" M 517.1608641808964,549.5643820412881 L 489.41153867916364,583.2233393192654 A 244.59,244.59 0 0,1 455.80909545361266,549.5195785599992 L 489.5514433607571,521.8717137499449 A 200.96717947172817,200.96717947172817 0 0 0 517.1608641808964,549.5643820412881 Z "/><path class="wedge" fill="rgb(229,181,178)" d=" M 489.5514433607571,521.8717137499449 L 455.80909545361266,549.5195785599992 A 244.59,244.59 0 0,1 429.599823304044,510.37507056891457 L 468.0166156903465,489.70865981161216 A 200.96717947172817,200.96717947172817 0 0 0 489.5514433607571,521.8717137499449 Z "/><path class="wedge" fill="rgb(229,195,178)" d=" M 833.686061129084,339.4185963684965 L 879.7903488569141,325.959791482309 A 244.59,244.59 0 0,1 879.9095419944609,326.3694255128242 L 833.781849068183,339.7477931693814 A 196.56141709507753,196.56141709507753 0 0 0 833.686061129084,339.4185963684965 Z "/><path class="wedge" fill="url(#hiddenPattern)" d=" M 833.686061129084,339.4185963684965 L 879.7903488569141,325.959791482309 A 244.59,244.59 0 0,1 879.9095419944609,326.3694255128242 L 833.781849068183,339.7477931693814 A 196.56141709507753,196.56141709507753 0 0 0 833.686061129084,339.4185963684965 Z "/><path class="wedge" fill="rgb(226,188,168)" d=" M 829.5899333536187,344.34478942227776 L 881.0323375173273,330.36729581479915 A 244.59,244.59 0 0,1 881.0508842869638,330.4355939125129 L 829.6044379211162,344.3982021937555 A 191.28248389120486,191.28248389120486 0 0 0 829.5899333536187,344.34478942227776 Z "/><path class="wedge" fill="url(#hiddenPattern)" d=" M 829.5899333536187,344.34478942227776 L 881.0323375173273,330.36729581479915 A 244.59,244.59 0 0,1 881.0508842869638,330.4355939125129 L 829.6044379211162,344.3982021937555 A 191.28248389120486,191.28248389120486 0 0 0 829.5899333536187,344.34478942227776 Z "/><path class="wedge" fill="rgb(223,180,159)" d=" M 823.530501974459,346.60476340125126 L 881.2365562237136,331.1236826286016 A 244.59,244.59 0 0,1 882.0377763171334,334.18946444750617 L 824.1360061680385,348.92165954900446 A 184.84343056787924,184.84343056787924 0 0 0 823.530501974459,346.60476340125126 Z "/><path class="wedge" fill="url(#hiddenPattern)" d=" M 823.530501974459,346.60476340125126 L 881.2365562237136,331.1236826286016 A 244.59,244.59 0 0,1 882.0377763171334,334.18946444750617 L 824.1360061680385,348.92165954900446 A 184.84343056787924,184.84343056787924 0 0 0 823.530501974459,346.60476340125126 Z "/><path class="wedge" fill="rgb(223,181,159)" d=" M 816.6120745341592,351.91488117645065 L 882.3902636237477,335.5921835691768 A 244.59,244.59 0 0,1 709.3935822864503,630.4612990732128 L 691.5508402668893,565.07906009115 A 176.81684442137757,176.81684442137757 0 0 0 816.6120745341592,351.91488117645065 Z "/><path class="wedge" fill="rgb(223,181,159)" d=" M 693.8478463881896,572.7722124374358 L 709.6368373026911,630.3947802803306 A 244.59,244.59 0 0,1 709.3935822864503,630.4612990732128 L 693.6640118417862,572.8224825297273 A 184.84343056787924,184.84343056787924 0 0 0 693.8478463881896,572.7722124374358 Z "/><path class="wedge" fill="rgb(226,188,168)" d=" M 824.4023905786286,349.98173320112744 L 882.3902636237477,335.5921835691768 A 244.59,244.59 0 0,1 710.0549213094826,630.2798238047883 L 694.1638040401006,572.6853366481344 A 184.84343056787924,184.84343056787924 0 0 0 824.4023905786286,349.98173320112744 Z "/><path class="wedge" fill="rgb(226,188,168)" d=" M 696.298619479319,578.7754467722303 L 710.5947637400141,630.1302083135602 A 244.59,244.59 0 0,1 710.0549213094826,630.2798238047883 L 695.8764337766249,578.8924541020097 A 191.28248389120486,191.28248389120486 0 0 0 696.298619479319,578.7754467722303 Z "/><path class="wedge" fill="rgb(229,195,178)" d=" M 830.6519043196304,348.430931569177 L 882.3902636237477,335.5921835691768 A 244.59,244.59 0 0,1 710.6101278955091,630.1259306985013 L 696.3106350720496,578.7721014480815 A 191.28248389120486,191.28248389120486 0 0 0 830.6519043196304,348.430931569177 Z "/><path class="wedge" fill="rgb(229,195,178)" d=" M 709.6307935605012,580.1320317568197 L 725.4229336081585,625.4900860423618 A 244.59,244.59 0 0,1 710.6101278955091,630.1259306985013 L 697.7266843081507,583.8575650780651 A 196.56141709507753,196.56141709507753 0 0 0 709.6307935605012,580.1320317568197 Z "/><path class="wedge" fill="rgb(229,195,178)" d=" M 835.7754471665149,347.1595368755088 L 882.3902636237477,335.5921835691768 A 244.59,244.59 0 0,1 857.7849250157842,515.1102971807428 L 816.0017024308939,491.42682010754834 A 196.56141709507753,196.56141709507753 0 0 0 835.7754471665149,347.1595368755088 Z "/><path class="wedge" fill="rgb(229,195,178)" d=" M 844.320784137303,368.82837683915415 L 887.5862308477156,363.2559813228378 A 244.59,244.59 0 0,1 857.7849250157842,515.1102971807428 L 819.8345648412662,493.5993550008619 A 200.96717947172817,200.96717947172817 0 0 0 844.320784137303,368.82837683915415 Z "/><path class="wedge" fill="rgb(229,195,178)" d=" M 840.051521789585,346.0984393599867 L 882.3902636237477,335.5921835691768 A 244.59,244.59 0 0,1 887.5277498110217,362.8052264308062 L 844.2727332398953,368.4580144396911 A 200.96717947172817,200.96717947172817 0 0 0 840.051521789585,346.0984393599867 Z "/><path class="wedge" fill="rgb(229,195,178)" d=" M 846.2564466937823,357.113967527075 L 885.4760229648734,349.82841530684556 A 244.59,244.59 0 0,1 887.5277498110217,362.8052264308062 L 847.9735544933502,367.97437208643584 A 204.69946936881362,204.69946936881362 0 0 0 846.2564466937823,357.113967527075 Z "/><path class="wedge" fill="rgb(229,196,178)" d=" M 843.6739482280711,345.19954305137173 L 882.3902636237477,335.5921835691768 A 244.59,244.59 0 0,1 885.4760229648734,349.82841530684556 L 846.2564466937823,357.113967527075 A 204.69946936881362,204.69946936881362 0 0 0 843.6739482280711,345.19954305137173 Z "/><path class="wedge" fill="url(#hiddenPattern)" d=" M 843.6739482280711,345.19954305137173 L 882.3902636237477,335.5921835691768 A 244.59,244.59 0 0,1 885.4760229648734,349.82841530684556 L 846.2564466937823,357.113967527075 A 204.69946936881362,204.69946936881362 0 0 0 843.6739482280711,345.19954305137173 Z "/><path class="wedge" fill="rgb(229,196,178)" d=" M 844.2727332398953,368.4580144396911 L 887.5277498110217,362.8052264308062 A 244.59,244.59 0 0,1 887.5862308477156,363.2559813228378 L 844.320784137303,368.82837683915415 A 200.96717947172817,200.96717947172817 0 0 0 844.2727332398953,368.4580144396911 Z "/><path class="wedge" fill="url(#hiddenPattern)" d=" M 844.2727332398953,368.4580144396911 L 887.5277498110217,362.8052264308062 A 244.59,244.59 0 0,1 887.5862308477156,363.2559813228378 L 844.320784137303,368.82837683915415 A 200.96717947172817,200.96717947172817 0 0 0 844.2727332398953,368.4580144396911 Z "/><path class="wedge" fill="rgb(229,198,178)" d=" M 816.0017024308939,491.42682010754834 L 857.7849250157842,515.1102971807428 A 244.59,244.59 0 0,1 728.0731326559608,624.5502613141857 L 711.7605898744143,579.3767544339885 A 196.56141709507753,196.56141709507753 0 0 0 816.0017024308939,491.42682010754834 Z "/><path class="wedge" fill="rgb(229,198,178)" d=" M 802.1417974151337,519.7767445696242 L 836.2516876178511,546.9698661484423 A 244.59,244.59 0 0,1 728.0731326559608,624.5502613141857 L 713.2569735465438,583.5206147146079 A 200.96717947172817,200.96717947172817 0 0 0 802.1417974151337,519.7767445696242 Z "/><path class="wedge" fill="rgb(229,198,178)" d=" M 819.8345648412662,493.5993550008619 L 857.7849250157842,515.1102971807428 A 244.59,244.59 0 0,1 845.9347449732675,533.9614511703072 L 810.0978738098393,509.08839072215045 A 200.96717947172817,200.96717947172817 0 0 0 819.8345648412662,493.5993550008619 Z "/><path class="wedge" fill="rgb(229,199,178)" d=" M 810.0978738098393,509.08839072215045 L 845.9347449732675,533.9614511703072 A 244.59,244.59 0 0,1 836.2516876178511,546.9698661484423 L 802.1417974151337,519.7767445696242 A 200.96717947172817,200.96717947172817 0 0 0 810.0978738098393,509.08839072215045 Z "/><path class="wedge" fill="rgb(229,201,178)" d=" M 711.7605898744143,579.3767544339885 L 728.0731326559608,624.5502613141857 A 244.59,244.59 0 0,1 725.4229336081585,625.4900860423618 L 709.6307935605012,580.1320317568197 A 196.56141709507753,196.56141709507753 0 0 0 711.7605898744143,579.3767544339885 Z "/><path class="wedge" fill="url(#hiddenPattern)" d=" M 711.7605898744143,579.3767544339885 L 728.0731326559608,624.5502613141857 A 244.59,244.59 0 0,1 725.4229336081585,625.4900860423618 L 709.6307935605012,580.1320317568197 A 196.56141709507753,196.56141709507753 0 0 0 711.7605898744143,579.3767544339885 Z "/><path class="wedge" fill="rgb(226,195,168)" d=" M 696.3106350720496,578.7721014480815 L 710.6101278955091,630.1259306985013 A 244.59,244.59 0 0,1 710.5947637400141,630.1302083135602 L 696.298619479319,578.7754467722303 A 191.28248389120486,191.28248389120486 0 0 0 696.3106350720496,578.7721014480815 Z "/><path class="wedge" fill="url(#hiddenPattern)" d=" M 696.3106350720496,578.7721014480815 L 710.6101278955091,630.1259306985013 A 244.59,244.59 0 0,1 710.5947637400141,630.1302083135602 L 696.298619479319,578.7754467722303 A 191.28248389120486,191.28248389120486 0 0 0 696.3106350720496,578.7721014480815 Z "/><path class="wedge" fill="rgb(223,188,159)" d=" M 694.1638040401006,572.6853366481344 L 710.0549213094826,630.2798238047883 A 244.59,244.59 0 0,1 709.6368373026911,630.3947802803306 L 693.8478463881896,572.7722124374358 A 184.84343056787924,184.84343056787924 0 0 0 694.1638040401006,572.6853366481344 Z "/><path class="wedge" fill="url(#hiddenPattern)" d=" M 694.1638040401006,572.6853366481344 L 710.0549213094826,630.2798238047883 A 244.59,244.59 0 0,1 709.6368373026911,630.3947802803306 L 693.8478463881896,572.7722124374358 A 184.84343056787924,184.84343056787924 0 0 0 694.1638040401006,572.6853366481344 Z "/><path class="wedge" fill="rgb(216,176,140)" d=" M 683.4184904554425,556.5456401067656 L 701.4243688797415,632.4927702610373 A 244.59,244.59 0 0,1 700.9994644921743,632.5931079989291 L 683.1291795516197,556.6139585390681 A 166.537593012768,166.537593012768 0 0 0 683.4184904554425,556.5456401067656 Z "/><path class="wedge" fill="url(#hiddenPattern)" d=" M 683.4184904554425,556.5456401067656 L 701.4243688797415,632.4927702610373 A 244.59,244.59 0 0,1 700.9994644921743,632.5931079989291 L 683.1291795516197,556.6139585390681 A 166.537593012768,166.537593012768 0 0 0 683.4184904554425,556.5456401067656 Z "/><path class="wedge" fill="rgb(216,176,140)" d=" M 679.1034012136497,543.5612010141718 L 699.5497706996304,632.9294248129156 A 244.59,244.59 0 0,1 651.7314186287086,638.9973539800484 L 649.208345283355,547.3547462531097 A 152.91266665036778,152.91266665036778 0 0 0 679.1034012136497,543.5612010141718 Z "/><path class="wedge" fill="rgb(216,176,140)" d=" M 649.5846769438352,560.974474391142 L 651.7334114382611,638.9972991065608 A 244.59,244.59 0 0,1 651.7314186287086,638.9973539800484 L 649.5833200702664,560.9745117536611 A 166.537593012768,166.537593012768 0 0 0 649.5846769438352,560.974474391142 Z "/><path class="wedge" fill="rgb(219,183,149)" d=" M 682.1421052034624,556.842951517894 L 699.5497706996304,632.9294248129156 A 244.59,244.59 0 0,1 651.7364006517512,638.9972167658747 L 649.5867122536174,560.9744183266272 A 166.537593012768,166.537593012768 0 0 0 682.1421052034624,556.842951517894 Z "/><path class="wedge" fill="rgb(219,183,149)" d=" M 649.9188003304135,571.2484140648598 L 651.8041558865779,638.9953405745622 A 244.59,244.59 0 0,1 651.7364006517512,638.9972167658747 L 649.869819313957,571.2497703845271 A 176.81684442137757,176.81684442137757 0 0 0 649.9188003304135,571.2484140648598 Z "/><path class="wedge" fill="rgb(223,189,159)" d=" M 684.4346388610261,566.8632957709793 L 699.5497706996304,632.9294248129156 A 244.59,244.59 0 0,1 651.8569647516373,638.9938652285468 L 649.9569764491317,571.2473475207375 A 176.81684442137757,176.81684442137757 0 0 0 684.4346388610261,566.8632957709793 Z "/><path class="wedge" fill="rgb(223,189,159)" d=" M 650.1827509883266,579.2707577413033 L 651.8579611422506,638.9938372821928 A 244.59,244.59 0 0,1 651.8569647516373,638.9938652285468 L 650.181997988371,579.2707788611363 A 184.84343056787924,184.84343056787924 0 0 0 650.1827509883266,579.2707577413033 Z "/><path class="wedge" fill="rgb(226,196,168)" d=" M 686.2247710569151,574.6877134418642 L 699.5497706996304,632.9294248129156 A 244.59,244.59 0 0,1 651.8579611422506,638.9938372821928 L 650.1827509883266,579.2707577413033 A 184.84343056787924,184.84343056787924 0 0 0 686.2247710569151,574.6877134418642 Z "/><path class="wedge" fill="rgb(226,196,168)" d=" M 650.4762805505367,585.7040768260993 L 652.0024365671537,638.9897420795462 A 244.59,244.59 0 0,1 651.8579611422506,638.9938372821928 L 650.3632930280022,585.7072794939692 A 191.28248389120486,191.28248389120486 0 0 0 650.4762805505367,585.7040768260993 Z "/><path class="wedge" fill="rgb(229,202,178)" d=" M 687.6608431870517,580.9645840425437 L 699.5497706996304,632.9294248129156 A 244.59,244.59 0 0,1 652.0173821620674,638.989313565218 L 650.4879688064683,585.7037417049371 A 191.28248389120486,191.28248389120486 0 0 0 687.6608431870517,580.9645840425437 Z "/><path class="wedge" fill="rgb(229,202,178)" d=" M 651.0277618020593,590.9689715402477 L 652.5006086186922,638.9749659379243 A 244.59,244.59 0 0,1 652.0173821620674,638.989313565218 L 650.6394234517915,590.9805018152092 A 196.56141709507753,196.56141709507753 0 0 0 651.0277618020593,590.9689715402477 Z "/><path class="wedge" fill="rgb(229,202,178)" d=" M 688.8381791198776,586.1105548811927 L 699.5497706996304,632.9294248129156 A 244.59,244.59 0 0,1 652.8363591393044,638.9644341728258 L 651.2975831280413,590.9605078308881 A 196.56141709507753,196.56141709507753 0 0 0 688.8381791198776,586.1105548811927 Z "/><path class="wedge" fill="rgb(229,202,178)" d=" M 689.8207758221278,590.4053477563192 L 699.5497706996304,632.9294248129156 A 244.59,244.59 0 0,1 652.8363591393044,638.9644341728258 L 651.4387382703851,595.3640084094393 A 200.96717947172817,200.96717947172817 0 0 0 689.8207758221278,590.4053477563192 Z "/><path class="wedge" fill="rgb(229,203,178)" d=" M 651.2975831280413,590.9605078308881 L 652.8363591393044,638.9644341728258 A 244.59,244.59 0 0,1 652.5006086186922,638.9749659379243 L 651.0277618020593,590.9689715402477 A 196.56141709507753,196.56141709507753 0 0 0 651.2975831280413,590.9605078308881 Z "/><path class="wedge" fill="url(#hiddenPattern)" d=" M 651.2975831280413,590.9605078308881 L 652.8363591393044,638.9644341728258 A 244.59,244.59 0 0,1 652.5006086186922,638.9749659379243 L 651.0277618020593,590.9689715402477 A 196.56141709507753,196.56141709507753 0 0 0 651.2975831280413,590.9605078308881 Z "/><path class="wedge" fill="rgb(226,196,168)" d=" M 650.4879688064683,585.7037417049371 L 652.0173821620674,638.989313565218 A 244.59,244.59 0 0,1 652.0024365671537,638.9897420795462 L 650.4762805505367,585.7040768260993 A 191.28248389120486,191.28248389120486 0 0 0 650.4879688064683,585.7037417049371 Z "/><path class="wedge" fill="url(#hiddenPattern)" d=" M 650.4879688064683,585.7037417049371 L 652.0173821620674,638.989313565218 A 244.59,244.59 0 0,1 652.0024365671537,638.9897420795462 L 650.4762805505367,585.7040768260993 A 191.28248389120486,191.28248389120486 0 0 0 650.4879688064683,585.7037417049371 Z "/><path class="wedge" fill="rgb(219,184,149)" d=" M 649.9569764491317,571.2473475207375 L 651.8569647516373,638.9938652285468 A 244.59,244.59 0 0,1 651.8041558865779,638.9953405745622 L 649.9188003304135,571.2484140648598 A 176.81684442137757,176.81684442137757 0 0 0 649.9569764491317,571.2473475207375 Z "/><path class="wedge" fill="url(#hiddenPattern)" d=" M 649.9569764491317,571.2473475207375 L 651.8569647516373,638.9938652285468 A 244.59,244.59 0 0,1 651.8041558865779,638.9953405745622 L 649.9188003304135,571.2484140648598 A 176.81684442137757,176.81684442137757 0 0 0 649.9569764491317,571.2473475207375 Z "/><path class="wedge" fill="rgb(216,177,140)" d=" M 649.5867122536174,560.9744183266272 L 651.7364006517512,638.9972167658747 A 244.59,244.59 0 0,1 651.7334114382611,638.9972991065608 L 649.5846769438352,560.974474391142 A 166.537593012768,166.537593012768 0 0 0 649.5867122536174,560.9744183266272 Z "/><path class="wedge" fill="url(#hiddenPattern)" d=" M 649.5867122536174,560.9744183266272 L 651.7364006517512,638.9972167658747 A 244.59,244.59 0 0,1 651.7334114382611,638.9972991065608 L 649.5846769438352,560.974474391142 A 166.537593012768,166.537593012768 0 0 0 649.5867122536174,560.9744183266272 Z "/><path class="wedge" fill="rgb(213,171,130)" d=" M 649.208345283355,547.3547462531097 L 651.7314186287086,638.9973539800484 A 244.59,244.59 0 0,1 651.6606736008625,638.9992914656048 L 649.1641169385322,547.3559575294621 A 152.91266665036778,152.91266665036778 0 0 0 649.208345283355,547.3547462531097 Z "/><path class="wedge" fill="url(#hiddenPattern)" d=" M 649.208345283355,547.3547462531097 L 651.7314186287086,638.9973539800484 A 244.59,244.59 0 0,1 651.6606736008625,638.9992914656048 L 649.1641169385322,547.3559575294621 A 152.91266665036778,152.91266665036778 0 0 0 649.208345283355,547.3547462531097 Z "/><path class="wedge" fill="rgb(210,165,121)" d=" M 648.5392578196336,528.4699786830249 L 651.4593959843404,639.0046917822181 A 244.59,244.59 0 0,1 650.9980354507867,639.0164445814046 L 648.2864673296235,528.4764183232829 A 134.01672109943587,134.01672109943587 0 0 0 648.5392578196336,528.4699786830249 Z "/><path class="wedge" fill="url(#hiddenPattern)" d=" M 648.5392578196336,528.4699786830249 L 651.4593959843404,639.0046917822181 A 244.59,244.59 0 0,1 650.9980354507867,639.0164445814046 L 648.2864673296235,528.4764183232829 A 134.01672109943587,134.01672109943587 0 0 0 648.5392578196336,528.4699786830249 Z "/><path class="wedge" fill="rgb(207,159,111)" d=" M 647.316016310737,500.6088235466324 L 650.3373463380882,639.0317583343058 A 244.59,244.59 0 0,1 650.3363497929472,639.0317800836679 L 647.3155838833369,500.6088329842582 A 106.13409615199994,106.13409615199994 0 0 0 647.316016310737,500.6088235466324 Z "/><path class="wedge" fill="url(#hiddenPattern)" d=" M 647.316016310737,500.6088235466324 L 650.3373463380882,639.0317583343058 A 244.59,244.59 0 0,1 650.3363497929472,639.0317800836679 L 647.3155838833369,500.6088329842582 A 106.13409615199994,106.13409615199994 0 0 0 647.316016310737,500.6088235466324 Z "/><path class="wedge" fill="rgb(101,204,204)" d=" M 646.3340874482368,455.63294502091696 L 650.3363497929472,639.0317800836679 A 244.59,244.59 0 0,1 649.019842632892,639.0569646630552 L 646.004960658223,455.6392411657638 A 61.1475,61.1475 0 0 0 646.3340874482368,455.63294502091696 Z "/><path class="wedge" fill="url(#hiddenPattern)" d=" M 646.3340874482368,455.63294502091696 L 650.3363497929472,639.0317800836679 A 244.59,244.59 0 0,1 649.019842632892,639.0569646630552 L 646.004960658223,455.6392411657638 A 61.1475,61.1475 0 0 0 646.3340874482368,455.63294502091696 Z "/><rect fill="rgb(101,204,204)" x="1406.165" y="725.8316666666667" width="22" height="22"/><rect fill="url(#hiddenPattern)" style="stroke:none" x="1406.165" y="725.8316666666667" width="22" height="22"/><path class="line" d="M 649.6781131605694,639.0452583004973 L 651.5896002584365,738.9669767458618 A 344.53,344.53 0 0,0 683.8580866387188,736.8316666666667 L 1014.515,736.8316666666667 L 1316.4874283854167,736.8316666666667"/><text x="1398.8316666666667" y="736.8316666666667" style="font-color:black;font-weight:normal" text-anchor="end">Viruses&#160;&#160;&#160;0.09%</text><circle cx="645" cy="394.5" r="61.1475"/><circle cx="645" cy="394.5" r="244.59"/><text x="645" y="394.5" text-anchor="middle" style="font-color:black;font-weight:bold" transform="rotate(360,645,394.5)">root</text><rect fill="rgb(220,220,220)" x="1406.165" y="755.165" width="22" height="22"/><path class="line" d="M 647.009989186955,639.0817410263251 L 648.0543679509142,766.165 L 1003.515,766.165 L 1305.8956315104167,766.165"/><text x="1398.8316666666667" y="766.165" style="font-color:black;font-weight:normal" text-anchor="end">[other root]&#160;&#160;&#160;0.3%</text><path class="line" d=" M 646.3340874482368,455.63294502091696 A 61.1475,61.1475 0 1 0 645,455.6475"/><line x1="650.3363497929472" y1="639.0317800836679" x2="646.3340874482368" y2="455.63294502091696"/><text x="645" y="319.8565211544" text-anchor="middle" style="font-color:black;font-weight:normal" transform="rotate(359.37492419402435,645,394.5)">cellular organisms</text><path class="line" d=" M 647.316016310737,500.6088235466324 A 106.13409615199994,106.13409615199994 0 1 0 645,500.6340961519999"/><line x1="650.3373463380882" y1="639.0317583343058" x2="647.316016310737" y2="500.6088235466324"/><text x="645" y="280.00111636376926" text-anchor="middle" style="font-color:black;font-weight:normal" transform="rotate(359.37480744471435,645,394.5)">Bacteria</text><path class="line" d=" M 648.5392578196336,528.4699786830249 A 134.01672109943587,134.01672109943587 0 1 0 645,528.5167210994359"/><line x1="651.4593959843404" y1="639.0046917822181" x2="648.5392578196336" y2="528.4699786830249"/><text x="645" y="251.03530612509817" text-anchor="middle" style="font-color:black;font-weight:normal" transform="rotate(359.24334772160483,645,394.5)">Terrabacteria group</text><path class="line" d=" M 679.1034012136497,543.5612010141718 A 152.91266665036778,152.91266665036778 0 1 0 645,547.4126666503678"/><line x1="699.5497706996304" y1="632.9294248129156" x2="679.1034012136497" y2="543.5612010141718"/><text x="645" y="234.77487016843207" text-anchor="middle" style="font-color:black;font-weight:normal" transform="rotate(353.55660557867117,645,394.5)">Firmicutes</text><path class="line" d=" M 683.4184904554425,556.5456401067656 A 166.537593012768,166.537593012768 0 1 0 645,561.037593012768"/><line x1="701.4243688797415" y1="632.4927702610373" x2="683.4184904554425" y2="556.5456401067656"/><path class="line" d=" M 816.6120745341592,351.91488117645065 A 176.81684442137757,176.81684442137757 0 1 0 645,571.3168444213776"/><line x1="882.3902636237477" y1="335.5921835691768" x2="816.6120745341592" y2="351.91488117645065"/><path class="line" d=" M 823.530501974459,346.60476340125126 A 184.84343056787924,184.84343056787924 0 1 0 645,579.3434305678793"/><line x1="881.2365562237136" y1="331.1236826286016" x2="823.530501974459" y2="346.60476340125126"/><path class="line" d=" M 829.5899333536187,344.34478942227776 A 191.28248389120486,191.28248389120486 0 1 0 645,585.7824838912048"/><line x1="881.0323375173273" y1="330.36729581479915" x2="829.5899333536187" y2="344.34478942227776"/><path class="line" d=" M 833.686061129084,339.4185963684965 A 196.56141709507753,196.56141709507753 0 1 0 645,591.0614170950776"/><line x1="879.7903488569141" y1="325.959791482309" x2="833.686061129084" y2="339.4185963684965"/><text x="424.42429145246126" y="394.5" text-anchor="end" style="font-color:black;font-weight:normal" transform="rotate(36.86318602381039,645,394.5)">Enterococcus faecalis&#160;&#160;&#160;70%</text><path class="line" d=" M 555.5752667439561,574.4750657922013 A 200.96717947172817,200.96717947172817 0 0 0 645,595.4671794717282"/><line x1="536.1643405426171" y1="613.5412457289187" x2="555.5752667439561" y2="574.4750657922013"/><text x="422.2214102641359" y="394.5" text-anchor="end" style="font-color:black;font-weight:normal" transform="rotate(-76.78923182197026,645,394.5)">Enterococcus faecalis V583&#160;&#160;&#160;7%</text><path class="line" d=" M 517.1608641808964,549.5643820412881 A 200.96717947172817,200.96717947172817 0 0 0 555.5752667439561,574.4750657922013"/><line x1="489.41153867916364" y1="583.2233393192654" x2="517.1608641808964" y2="549.5643820412881"/><text x="422.2214102641359" y="394.5" text-anchor="end" style="font-color:black;font-weight:normal" transform="rotate(-57.037700298035055,645,394.5)">Enterococcus faecalis str. Symbioflor 1&#160;&#160;&#160;4%</text><path class="line" d=" M 489.5514433607571,521.8717137499449 A 200.96717947172817,200.96717947172817 0 0 0 517.1608641808964,549.5643820412881"/><line x1="455.80909545361266" y1="549.5195785599992" x2="489.5514433607571" y2="521.8717137499449"/><text x="422.2214102641359" y="394.5" text-anchor="end" style="font-color:black;font-weight:normal" transform="rotate(-44.91375144720497,645,394.5)">Enterococcus faecalis OG1RF&#160;&#160;&#160;3%</text><path class="line" d=" M 468.0166156903465,489.70865981161216 A 200.96717947172817,200.96717947172817 0 0 0 489.5514433607571,521.8717137499449"/><line x1="429.599823304044" y1="510.37507056891457" x2="468.0166156903465" y2="489.70865981161216"/><text x="422.2214102641359" y="394.5" text-anchor="end" style="font-color:black;font-weight:normal" transform="rotate(-33.80435410065738,645,394.5)">Enterococcus faecalis D32&#160;&#160;&#160;3%</text><path class="line" d=" M 833.781849068183,339.7477931693814 A 196.56141709507753,196.56141709507753 0 0 0 833.686061129084,339.4185963684965"/><line x1="879.9095419944609" y1="326.3694255128242" x2="833.781849068183" y2="339.7477931693814"/><path class="line" d=" M 829.6044379211162,344.3982021937555 A 191.28248389120486,191.28248389120486 0 0 0 829.5899333536187,344.34478942227776"/><line x1="881.0508842869638" y1="330.4355939125129" x2="829.6044379211162" y2="344.3982021937555"/><path class="line" d=" M 824.1360061680385,348.92165954900446 A 184.84343056787924,184.84343056787924 0 0 0 823.530501974459,346.60476340125126"/><line x1="882.0377763171334" y1="334.18946444750617" x2="824.1360061680385" y2="348.92165954900446"/><path class="line" d=" M 691.5508402668893,565.07906009115 A 176.81684442137757,176.81684442137757 0 0 0 816.6120745341592,351.91488117645065"/><line x1="709.3935822864503" y1="630.4612990732128" x2="691.5508402668893" y2="565.07906009115"/><path class="line" d=" M 694.1638040401006,572.6853366481344 A 184.84343056787924,184.84343056787924 0 0 0 824.4023905786286,349.98173320112744"/><line x1="710.0549213094826" y1="630.2798238047883" x2="694.1638040401006" y2="572.6853366481344"/><path class="line" d=" M 696.3106350720496,578.7721014480815 A 191.28248389120486,191.28248389120486 0 0 0 830.6519043196304,348.430931569177"/><line x1="710.6101278955091" y1="630.1259306985013" x2="696.3106350720496" y2="578.7721014480815"/><path class="line" d=" M 816.0017024308939,491.42682010754834 A 196.56141709507753,196.56141709507753 0 0 0 835.7754471665149,347.1595368755088"/><line x1="857.7849250157842" y1="515.1102971807428" x2="816.0017024308939" y2="491.42682010754834"/><text x="865.5757085475387" y="394.5" text-anchor="start" style="font-color:black;font-weight:normal" transform="rotate(367.8045162524769,645,394.5)">12%&#160;&#160;&#160;Staphylococcus aureus</text><path class="line" d=" M 844.2727332398953,368.4580144396911 A 200.96717947172817,200.96717947172817 0 0 0 840.051521789585,346.0984393599867"/><line x1="887.5277498110217" y1="362.8052264308062" x2="844.2727332398953" y2="368.4580144396911"/><line x1="881.34" y1="394.5" x2="897.84" y2="394.5" class="tick" transform="rotate(347.77010115030504,645,394.5)"/><text x="900.59" y="394.5" text-anchor="start" style="font-color:black;font-weight:normal" transform="rotate(347.77010115030504,645,394.5)">32 more</text><path class="line" d=" M 846.2564466937823,357.113967527075 A 204.69946936881362,204.69946936881362 0 0 0 843.6739482280711,345.19954305137173"/><line x1="885.4760229648734" y1="349.82841530684556" x2="846.2564466937823" y2="357.113967527075"/><path class="line" d=" M 844.320784137303,368.82837683915415 A 200.96717947172817,200.96717947172817 0 0 0 844.2727332398953,368.4580144396911"/><line x1="887.5862308477156" y1="363.2559813228378" x2="844.320784137303" y2="368.82837683915415"/><path class="line" d=" M 711.7605898744143,579.3767544339885 A 196.56141709507753,196.56141709507753 0 0 0 816.0017024308939,491.42682010754834"/><line x1="728.0731326559608" y1="624.5502613141857" x2="711.7605898744143" y2="579.3767544339885"/><text x="865.5757085475387" y="394.5" text-anchor="start" style="font-color:black;font-weight:normal" transform="rotate(409.84512555415387,645,394.5)">11%&#160;&#160;&#160;Staphylococcus epidermidis</text><path class="line" d=" M 810.0978738098393,509.08839072215045 A 200.96717947172817,200.96717947172817 0 0 0 819.8345648412662,493.5993550008619"/><line x1="845.9347449732675" y1="533.9614511703072" x2="810.0978738098393" y2="509.08839072215045"/><text x="867.7785897358641" y="394.5" text-anchor="start" style="font-color:black;font-weight:normal" transform="rotate(392.1542193524954,645,394.5)">1%&#160;&#160;&#160;Staphylococcus epidermidis RP62A</text><path class="line" d=" M 802.1417974151337,519.7767445696242 A 200.96717947172817,200.96717947172817 0 0 0 810.0978738098393,509.08839072215045"/><line x1="836.2516876178511" y1="546.9698661484423" x2="802.1417974151337" y2="519.7767445696242"/><text x="867.7785897358641" y="394.5" text-anchor="start" style="font-color:black;font-weight:normal" transform="rotate(396.6628442077749,645,394.5)">1%&#160;&#160;&#160;Staphylococcus epidermidis ATCC 12228</text><path class="line" d=" M 709.6307935605012,580.1320317568197 A 196.56141709507753,196.56141709507753 0 0 0 711.7605898744143,579.3767544339885"/><line x1="725.4229336081585" y1="625.4900860423618" x2="709.6307935605012" y2="580.1320317568197"/><path class="line" d=" M 696.298619479319,578.7754467722303 A 191.28248389120486,191.28248389120486 0 0 0 696.3106350720496,578.7721014480815"/><line x1="710.5947637400141" y1="630.1302083135602" x2="696.298619479319" y2="578.7754467722303"/><path class="line" d=" M 693.8478463881896,572.7722124374358 A 184.84343056787924,184.84343056787924 0 0 0 694.1638040401006,572.6853366481344"/><line x1="709.6368373026911" y1="630.3947802803306" x2="693.8478463881896" y2="572.7722124374358"/><path class="line" d=" M 683.1291795516197,556.6139585390681 A 166.537593012768,166.537593012768 0 0 0 683.4184904554425,556.5456401067656"/><line x1="700.9994644921743" y1="632.5931079989291" x2="683.1291795516197" y2="556.6139585390681"/><path class="line" d=" M 649.208345283355,547.3547462531097 A 152.91266665036778,152.91266665036778 0 0 0 679.1034012136497,543.5612010141718"/><line x1="651.7314186287086" y1="638.9973539800484" x2="649.208345283355" y2="547.3547462531097"/><text x="645" y="554.225129831568" text-anchor="middle" style="font-color:black;font-weight:normal" transform="rotate(352.76808073863407,645,394.5)">Actinobacteria</text><path class="line" d=" M 649.5867122536174,560.9744183266272 A 166.537593012768,166.537593012768 0 0 0 682.1421052034624,556.842951517894"/><line x1="651.7364006517512" y1="638.9972167658747" x2="649.5867122536174" y2="560.9744183266272"/><path class="line" d=" M 649.9569764491317,571.2473475207375 A 176.81684442137757,176.81684442137757 0 0 0 684.4346388610261,566.8632957709793"/><line x1="651.8569647516373" y1="638.9938652285468" x2="649.9569764491317" y2="571.2473475207375"/><path class="line" d=" M 650.1827509883266,579.2707577413033 A 184.84343056787924,184.84343056787924 0 0 0 686.2247710569151,574.6877134418642"/><line x1="651.8579611422506" y1="638.9938372821928" x2="650.1827509883266" y2="579.2707577413033"/><path class="line" d=" M 650.4879688064683,585.7037417049371 A 191.28248389120486,191.28248389120486 0 0 0 687.6608431870517,580.9645840425437"/><line x1="652.0173821620674" y1="638.989313565218" x2="650.4879688064683" y2="585.7037417049371"/><path class="line" d=" M 651.2975831280413,590.9605078308881 A 196.56141709507753,196.56141709507753 0 0 0 688.8381791198776,586.1105548811927"/><line x1="652.8363591393044" y1="638.9644341728258" x2="651.2975831280413" y2="590.9605078308881"/><path class="line" d=" M 651.4387382703851,595.3640084094393 A 200.96717947172817,200.96717947172817 0 0 0 689.8207758221278,590.4053477563192"/><text x="867.7785897358641" y="394.5" text-anchor="start" style="font-color:black;font-weight:normal" transform="rotate(442.6386057537952,645,394.5)">3%&#160;&#160;&#160;Cutibacterium avidum 44067</text><path class="line" d=" M 651.0277618020593,590.9689715402477 A 196.56141709507753,196.56141709507753 0 0 0 651.2975831280413,590.9605078308881"/><line x1="652.5006086186922" y1="638.9749659379243" x2="651.0277618020593" y2="590.9689715402477"/><path class="line" d=" M 650.4762805505367,585.7040768260993 A 191.28248389120486,191.28248389120486 0 0 0 650.4879688064683,585.7037417049371"/><line x1="652.0024365671537" y1="638.9897420795462" x2="650.4762805505367" y2="585.7040768260993"/><path class="line" d=" M 649.9188003304135,571.2484140648598 A 176.81684442137757,176.81684442137757 0 0 0 649.9569764491317,571.2473475207375"/><line x1="651.8041558865779" y1="638.9953405745622" x2="649.9188003304135" y2="571.2484140648598"/><path class="line" d=" M 649.5846769438352,560.974474391142 A 166.537593012768,166.537593012768 0 0 0 649.5867122536174,560.9744183266272"/><line x1="651.7334114382611" y1="638.9972991065608" x2="649.5846769438352" y2="560.974474391142"/><path class="line" d=" M 649.1641169385322,547.3559575294621 A 152.91266665036778,152.91266665036778 0 0 0 649.208345283355,547.3547462531097"/><line x1="651.6606736008625" y1="638.9992914656048" x2="649.1641169385322" y2="547.3559575294621"/><path class="line" d=" M 648.2864673296235,528.4764183232829 A 134.01672109943587,134.01672109943587 0 0 0 648.5392578196336,528.4699786830249"/><line x1="650.9980354507867" y1="639.0164445814046" x2="648.2864673296235" y2="528.4764183232829"/><path class="line" d=" M 647.3155838833369,500.6088329842582 A 106.13409615199994,106.13409615199994 0 0 0 647.316016310737,500.6088235466324"/><path class="line" d=" M 646.004960658223,455.6392411657638 A 61.1475,61.1475 0 0 0 646.3340874482368,455.63294502091696"/><line x1="649.019842632892" y1="639.0569646630552" x2="646.004960658223" y2="455.6392411657638"/></svg>