<?xml version="1.0" standalone="no"?><!DOCTYPE svg PUBLIC "-//W3C//DTD SVG 1.1//EN" 	"http://www.w3.org/Graphics/SVG/1.1/DTD/svg11.dtd"><svg width="1440" height="789" version="1.1"	xmlns="http://www.w3.org/2000/svg"><title>Krona (snapshot) - root</title><defs>	<style type="text/css">	text {font-size: 11px; font-family: sans-serif; dominant-baseline:central}	path {stroke-width:0.27499999999999997;}	path.wedge {stroke:none}	path.line {fill:none;stroke:black;}	line {stroke:black;stroke-width:0.27499999999999997;}	line.tick {stroke-width:0.5499999999999999;}	line.pattern {stroke-width:0.18333333333333332;}	circle {fill:none;stroke:black;stroke-width:0.27499999999999997;}	rect {stroke:black;stroke-width:0.27499999999999997;}	.highlight {stroke:black;stroke-width:1.375;}	.searchHighlight {fill:rgb(255, 255, 100);stroke:none;}	</style><pattern id="hiddenPattern" patternUnits="userSpaceOnUse" x="0" y="0" width="6.6" height="6.6"><line class="pattern" x1="0" y1="0" x2="3.3" y2="3.3"/><line class="pattern" x1="3.3" y1="6.6" x2="6.6" y2="3.3"/></pattern></defs><path class="wedge" fill="rgb(220,220,220)" d=" M 645.3458166368381,455.64652211780884 L 646.3832665473524,639.0860884712354 A 244.59,244.59 0 0,1 645.0000000000001,639.09 L 645,455.6475 A 61.1475,61.1475 0 0 0 645.3458166368381,455.64652211780884 Z "/><path class="wedge" fill="rgb(207,111,111)" d=" M 645,455.6475 L 645,639.09 A 244.59,244.59 0 1,1 653.9687902214482,638.9255078791157 L 647.242197555362,455.6063769697789 A 61.1475,61.1475 0 1 0 645,455.6475 Z "/><path class="wedge" fill="rgb(207,111,111)" d=" M 648.7173507202318,495.7875334541818 L 653.9706507106088,638.9254396044493 A 244.59,244.59 0 0,1 653.9687902214482,638.9255078791157 L 648.7165797515536,495.787561746542 A 101.35572568734936,101.35572568734936 0 0 0 648.7173507202318,495.7875334541818 Z "/><path class="wedge" fill="rgb(210,121,121)" d=" M 645,495.8557256873494 L 645,639.09 A 244.59,244.59 0 1,1 653.9725111992494,638.9253713156213 L 648.7181216886945,495.78750515595334 A 101.35572568734936,101.35572568734936 0 1 0 645,495.8557256873494 Z "/><path class="wedge" fill="rgb(210,121,121)" d=" M 650.3168373082249,522.9947298704122 L 655.1119586926407,638.8808838501865 A 244.59,244.59 0 0,1 653.9725111992494,638.9253713156213 L 649.7177192611906,523.0181212452351 A 128.6046825097451,128.6046825097451 0 0 0 650.3168373082249,522.9947298704122 Z "/><path class="wedge" fill="rgb(213,130,130)" d=" M 645,523.1046825097451 L 645,639.09 A 244.59,244.59 0 1,1 655.5760475427909,638.861239394411 L 650.5608538225135,522.9844008749583 A 128.6046825097451,128.6046825097451 0 1 0 645,523.1046825097451 Z "/><path class="wedge" fill="rgb(213,130,130)" d=" M 651.5412010857566,542.6081739980812 L 655.7918034187213,638.8518059662578 A 244.59,244.59 0 0,1 655.5760475427909,638.861239394411 L 651.4104256708296,542.6138918515376 A 148.2525497814125,148.2525497814125 0 0 0 651.5412010857566,542.6081739980812 Z "/><path class="wedge" fill="rgb(216,140,140)" d=" M 645,542.7525497814125 L 645,639.09 A 244.59,244.59 0 1,1 871.0980385682979,487.7949358516768 L 782.0440766929405,451.0485593102924 A 148.2525497814125,148.2525497814125 0 1 0 645,542.7525497814125 Z "/><path class="wedge" fill="rgb(216,140,140)" d=" M 796.0122544266296,456.05491670382514 L 871.4964680151517,486.8234427253522 A 244.59,244.59 0 0,1 871.0980385682979,487.7949358516768 L 795.7466090965872,456.7026414496099 A 163.07577612088187,163.07577612088187 0 0 0 796.0122544266296,456.05491670382514 Z "/><path class="wedge" fill="rgb(219,149,149)" d=" M 645,557.5757761208819 L 645,639.09 A 244.59,244.59 0 1,1 871.5691309750989,486.6449781007543 L 796.0607010867084,455.9359287764102 A 163.07577612088187,163.07577612088187 0 1 0 645,557.5757761208819 Z "/><path class="wedge" fill="rgb(219,149,149)" d=" M 808.8259080760402,455.03001573401923 L 874.4306044619148,479.2694864691326 A 244.59,244.59 0 0,1 871.5691309750989,486.6449781007543 L 806.7826606482937,460.29651719702804 A 174.65053954024813,174.65053954024813 0 0 0 808.8259080760402,455.03001573401923 Z "/><path class="wedge" fill="rgb(223,159,159)" d=" M 645,569.1505395402481 L 645,639.09 A 244.59,244.59 0 1,1 820.1171667179221,223.74214214072765 L 770.0431646839392,272.5696185213667 A 174.65053954024813,174.65053954024813 0 1 0 645,569.1505395402481 Z "/><path class="wedge" fill="rgb(223,159,159)" d=" M 775.9820296405047,265.36379803277055 L 819.1741435518196,222.78035692446213 A 244.59,244.59 0 0,1 820.1171667179221,223.74214214072765 L 776.6911997031517,266.08707748823815 A 183.93599633368976,183.93599633368976 0 0 0 775.9820296405047,265.36379803277055 Z "/><path class="wedge" fill="rgb(226,168,168)" d=" M 645,578.4359963336898 L 645,639.09 A 244.59,244.59 0 1,1 818.3046814389802,221.90290995693584 L 775.3281787880597,264.7039424286906 A 183.93599633368976,183.93599633368976 0 1 0 645,578.4359963336898 Z "/><path class="wedge" fill="rgb(226,168,168)" d=" M 780.3181159143871,258.9277509516807 L 817.788919060661,221.38657605532626 A 244.59,244.59 0 0,1 818.3046814389802,221.90290995693584 L 780.7220306658255,259.33211328653624 A 191.54849831475852,191.54849831475852 0 0 0 780.3181159143871,258.9277509516807 Z "/><path class="wedge" fill="rgb(229,178,178)" d=" M 645,586.0484983147585 L 645,639.09 A 244.59,244.59 0 1,1 817.7744239259347,221.37210930337827 L 780.3067641776454,258.916421442661 A 191.54849831475852,191.54849831475852 0 1 0 645,586.0484983147585 Z "/><path class="wedge" fill="rgb(229,178,178)" d=" M 782.8239824307055,252.4799705135388 L 815.3388285338997,218.97521088547427 A 244.59,244.59 0 0,1 817.7744239259347,221.37210930337827 L 784.794663216815,254.4193409335464 A 197.90184159930075,197.90184159930075 0 0 0 782.8239824307055,252.4799705135388 Z "/><path class="wedge" fill="rgb(229,178,178)" d=" M 645,592.4018415993007 L 645,639.09 A 244.59,244.59 0 1,1 815.0814582620161,218.72581061069835 L 782.6157398583244,252.27817659852377 A 197.90184159930075,197.90184159930075 0 1 0 645,592.4018415993007 Z "/><path class="wedge" fill="rgb(229,178,178)" d=" M 477.35083880692,509.4701880594519 L 443.2856104195651,532.8313888320092 A 244.59,244.59 0 0,1 815.0814582620161,218.72581061069835 L 786.3583526263637,248.4102962768093 A 203.28400180823144,203.28400180823144 0 0 0 477.35083880692,509.4701880594519 Z "/><path class="wedge" fill="rgb(229,178,178)" d=" M 645,597.7840018082314 L 645,639.09 A 244.59,244.59 0 0,1 549.2076579467224,619.5513170455749 L 565.3849272857713,581.5449827925815 A 203.28400180823144,203.28400180823144 0 0 0 645,597.7840018082314 Z "/><path class="wedge" fill="rgb(229,180,178)" d=" M 565.3849272857713,581.5449827925815 L 549.2076579467224,619.5513170455749 A 244.59,244.59 0 0,1 504.22688034493655,594.517991397227 L 528.0004370149626,560.7392482312143 A 203.28400180823144,203.28400180823144 0 0 0 565.3849272857713,581.5449827925815 Z "/><path class="wedge" fill="rgb(229,180,178)" d=" M 528.0004370149626,560.7392482312143 L 504.22688034493655,594.517991397227 A 244.59,244.59 0 0,1 470.9808157192084,566.3766755620084 L 500.36891871293426,537.3503962784256 A 203.28400180823144,203.28400180823144 0 0 0 528.0004370149626,560.7392482312143 Z "/><path class="wedge" fill="rgb(229,181,178)" d=" M 500.36891871293426,537.3503962784256 L 470.9808157192084,566.3766755620084 A 244.59,244.59 0 0,1 443.2856104195651,532.8313888320092 L 477.35083880692,509.4701880594519 A 203.28400180823144,203.28400180823144 0 0 0 500.36891871293426,537.3503962784256 Z "/><path class="wedge" fill="rgb(229,193,178)" d=" M 782.6157398583244,252.27817659852377 L 815.0814582620161,218.72581061069835 A 244.59,244.59 0 0,1 815.3388285338997,218.97521088547427 L 782.8239824307055,252.4799705135388 A 197.90184159930075,197.90184159930075 0 0 0 782.6157398583244,252.27817659852377 Z "/><path class="wedge" fill="url(#hiddenPattern)" d=" M 782.6157398583244,252.27817659852377 L 815.0814582620161,218.72581061069835 A 244.59,244.59 0 0,1 815.3388285338997,218.97521088547427 L 782.8239824307055,252.4799705135388 A 197.90184159930075,197.90184159930075 0 0 0 782.6157398583244,252.27817659852377 Z "/><path class="wedge" fill="rgb(226,185,168)" d=" M 780.3067641776454,258.916421442661 L 817.7744239259347,221.37210930337827 A 244.59,244.59 0 0,1 817.788919060661,221.38657605532626 L 780.3181159143871,258.9277509516807 A 191.54849831475852,191.54849831475852 0 0 0 780.3067641776454,258.916421442661 Z "/><path class="wedge" fill="url(#hiddenPattern)" d=" M 780.3067641776454,258.916421442661 L 817.7744239259347,221.37210930337827 A 244.59,244.59 0 0,1 817.788919060661,221.38657605532626 L 780.3181159143871,258.9277509516807 A 191.54849831475852,191.54849831475852 0 0 0 780.3067641776454,258.916421442661 Z "/><path class="wedge" fill="rgb(223,178,159)" d=" M 775.3281787880597,264.7039424286906 L 818.3046814389802,221.90290995693584 A 244.59,244.59 0 0,1 819.1741435518196,222.78035692446213 L 775.9820296405047,265.36379803277055 A 183.93599633368976,183.93599633368976 0 0 0 775.3281787880597,264.7039424286906 Z "/><path class="wedge" fill="url(#hiddenPattern)" d=" M 775.3281787880597,264.7039424286906 L 818.3046814389802,221.90290995693584 A 244.59,244.59 0 0,1 819.1741435518196,222.78035692446213 L 775.9820296405047,265.36379803277055 A 183.93599633368976,183.93599633368976 0 0 0 775.3281787880597,264.7039424286906 Z "/><path class="wedge" fill="rgb(223,178,159)" d=" M 770.0431646839392,272.5696185213667 L 820.1171667179221,223.74214214072765 A 244.59,244.59 0 0,1 874.4306044619148,479.2694864691326 L 808.8259080760402,455.03001573401923 A 174.65053954024813,174.65053954024813 0 0 0 770.0431646839392,272.5696185213667 Z "/><path class="wedge" fill="rgb(223,178,159)" d=" M 817.5913567477849,458.0977540737562 L 874.5043971184273,479.0694968845579 A 244.59,244.59 0 0,1 874.4306044619148,479.2694864691326 L 817.5358633678522,458.2481497706167 A 183.93599633368976,183.93599633368976 0 0 0 817.5913567477849,458.0977540737562 Z "/><path class="wedge" fill="rgb(226,186,168)" d=" M 776.6911997031517,266.08707748823815 L 820.1171667179221,223.74214214072765 A 244.59,244.59 0 0,1 874.5902147228073,478.83624015531666 L 817.655893100721,457.9223408970338 A 183.93599633368976,183.93599633368976 0 0 0 776.6911997031517,266.08707748823815 Z "/><path class="wedge" fill="rgb(226,186,168)" d=" M 824.9016362805061,460.27407141294776 L 874.7180171339337,478.48750326122166 A 244.59,244.59 0 0,1 874.5902147228073,478.83624015531666 L 824.8015489509658,460.54718163156195 A 191.54849831475852,191.54849831475852 0 0 0 824.9016362805061,460.27407141294776 Z "/><path class="wedge" fill="rgb(229,193,178)" d=" M 782.1414625044082,260.7724917274271 L 820.1171667179221,223.74214214072765 A 244.59,244.59 0 0,1 874.7231309978655,478.47351478018254 L 824.9056411578792,460.2631164575663 A 191.54849831475852,191.54849831475852 0 0 0 782.1414625044082,260.7724917274271 Z "/><path class="wedge" fill="rgb(229,193,178)" d=" M 833.1144738492383,455.96611779524545 L 877.493638194359,470.4669421469002 A 244.59,244.59 0 0,1 874.7231309978655,478.47351478018254 L 830.8728103456192,462.4443690280233 A 197.90184159930075,197.90184159930075 0 0 0 833.1144738492383,455.96611779524545 Z "/><path class="wedge" fill="rgb(229,193,178)" d=" M 786.6902154181633,256.336973964996 L 820.1171667179221,223.74214214072765 A 244.59,244.59 0 0,1 879.0270576764988,465.6027733304457 L 834.355189084774,452.0304378139452 A 197.90184159930075,197.90184159930075 0 0 0 786.6902154181633,256.336973964996 Z "/><path class="wedge" fill="rgb(229,193,178)" d=" M 821.0277010676156,292.82092718745315 L 856.7953947243906,272.1603953188519 A 244.59,244.59 0 0,1 879.0270576764988,465.6027733304457 L 839.5049135937056,453.59504191617236 A 203.28400180823144,203.28400180823144 0 0 0 821.0277010676156,292.82092718745315 Z "/><path class="wedge" fill="rgb(229,193,178)" d=" M 790.5436380708061,252.57947714201708 L 820.1171667179221,223.74214214072765 A 244.59,244.59 0 0,1 842.4559697040277,250.1552455811362 L 809.1098969800878,274.5319746584364 A 203.28400180823144,203.28400180823144 0 0 0 790.5436380708061,252.57947714201708 Z "/><path class="wedge" fill="rgb(229,194,178)" d=" M 809.1098969800878,274.5319746584364 L 842.4559697040277,250.1552455811362 A 244.59,244.59 0 0,1 856.7953947243906,272.1603953188519 L 821.0277010676156,292.82092718745315 A 203.28400180823144,203.28400180823144 0 0 0 809.1098969800878,274.5319746584364 Z "/><path class="wedge" fill="rgb(229,198,178)" d=" M 834.355189084774,452.0304378139452 L 879.0270576764988,465.6027733304457 A 244.59,244.59 0 0,1 877.493638194359,470.4669421469002 L 833.1144738492383,455.96611779524545 A 197.90184159930075,197.90184159930075 0 0 0 834.355189084774,452.0304378139452 Z "/><path class="wedge" fill="url(#hiddenPattern)" d=" M 834.355189084774,452.0304378139452 L 879.0270576764988,465.6027733304457 A 244.59,244.59 0 0,1 877.493638194359,470.4669421469002 L 833.1144738492383,455.96611779524545 A 197.90184159930075,197.90184159930075 0 0 0 834.355189084774,452.0304378139452 Z "/><path class="wedge" fill="rgb(226,191,168)" d=" M 824.9056411578792,460.2631164575663 L 874.7231309978655,478.47351478018254 A 244.59,244.59 0 0,1 874.7180171339337,478.48750326122166 L 824.9016362805061,460.27407141294776 A 191.54849831475852,191.54849831475852 0 0 0 824.9056411578792,460.2631164575663 Z "/><path class="wedge" fill="url(#hiddenPattern)" d=" M 824.9056411578792,460.2631164575663 L 874.7231309978655,478.47351478018254 A 244.59,244.59 0 0,1 874.7180171339337,478.48750326122166 L 824.9016362805061,460.27407141294776 A 191.54849831475852,191.54849831475852 0 0 0 824.9056411578792,460.2631164575663 Z "/><path class="wedge" fill="rgb(223,184,159)" d=" M 817.655893100721,457.9223408970338 L 874.5902147228073,478.83624015531666 A 244.59,244.59 0 0,1 874.5043971184273,479.0694968845579 L 817.5913567477849,458.0977540737562 A 183.93599633368976,183.93599633368976 0 0 0 817.655893100721,457.9223408970338 Z "/><path class="wedge" fill="url(#hiddenPattern)" d=" M 817.655893100721,457.9223408970338 L 874.5902147228073,478.83624015531666 A 244.59,244.59 0 0,1 874.5043971184273,479.0694968845579 L 817.5913567477849,458.0977540737562 A 183.93599633368976,183.93599633368976 0 0 0 817.655893100721,457.9223408970338 Z "/><path class="wedge" fill="rgb(216,170,140)" d=" M 796.0607010867084,455.9359287764102 L 871.5691309750989,486.6449781007543 A 244.59,244.59 0 0,1 871.4964680151517,486.8234427253522 L 796.0122544266296,456.05491670382514 A 163.07577612088187,163.07577612088187 0 0 0 796.0607010867084,455.9359287764102 Z "/><path class="wedge" fill="url(#hiddenPattern)" d=" M 796.0607010867084,455.9359287764102 L 871.5691309750989,486.6449781007543 A 244.59,244.59 0 0,1 871.4964680151517,486.8234427253522 L 796.0122544266296,456.05491670382514 A 163.07577612088187,163.07577612088187 0 0 0 796.0607010867084,455.9359287764102 Z "/><path class="wedge" fill="rgb(216,170,140)" d=" M 782.0440766929405,451.0485593102924 L 871.0980385682979,487.7949358516768 A 244.59,244.59 0 0,1 655.8262119874685,638.8502838836132 L 651.5620570408287,542.6072514230249 A 148.2525497814125,148.2525497814125 0 0 0 782.0440766929405,451.0485593102924 Z "/><path class="wedge" fill="rgb(216,170,140)" d=" M 652.2231332066533,557.4157300695882 L 655.8336516498057,638.8499541475927 A 244.59,244.59 0 0,1 655.8262119874685,638.8502838836132 L 652.2181729519016,557.41594991487 A 163.07577612088187,163.07577612088187 0 0 0 652.2231332066533,557.4157300695882 Z "/><path class="wedge" fill="rgb(219,177,149)" d=" M 795.7466090965872,456.7026414496099 L 871.0980385682979,487.7949358516768 A 244.59,244.59 0 0,1 655.8383014336672,638.8497479475536 L 652.2262333624733,557.4155925895955 A 163.07577612088187,163.07577612088187 0 0 0 795.7466090965872,456.7026414496099 Z "/><path class="wedge" fill="rgb(219,177,149)" d=" M 652.9941184214014,568.9674899010254 L 656.1953929821098,638.8336474494992 A 244.59,244.59 0 0,1 655.8383014336672,638.8497479475536 L 652.7391356682195,568.9789865307816 A 174.65053954024813,174.65053954024813 0 0 0 652.9941184214014,568.9674899010254 Z "/><path class="wedge" fill="rgb(223,184,159)" d=" M 806.4462750927881,461.1176494659152 L 871.0980385682979,487.7949358516768 A 244.59,244.59 0 0,1 656.3172078442725,638.8280354494947 L 653.0811008466876,568.9634826283295 A 174.65053954024813,174.65053954024813 0 0 0 806.4462750927881,461.1176494659152 Z "/><path class="wedge" fill="rgb(223,184,159)" d=" M 653.5177328246546,578.2386703304313 L 656.3265065735296,638.827604557569 A 244.59,244.59 0 0,1 656.3172078442725,638.8280354494947 L 653.5107400161565,578.2389943687635 A 183.93599633368976,183.93599633368976 0 0 0 653.5177328246546,578.2386703304313 Z "/><path class="wedge" fill="rgb(226,191,168)" d=" M 815.0297150053268,464.65943815677605 L 871.0980385682979,487.7949358516768 A 244.59,244.59 0 0,1 656.3283663174127,638.8275183367164 L 653.5191313848738,578.2386054908287 A 183.93599633368976,183.93599633368976 0 0 0 815.0297150053268,464.65943815677605 Z "/><path class="wedge" fill="rgb(226,191,168)" d=" M 654.6115142679366,585.8072032102198 L 657.2730290003714,638.7818881111657 A 244.59,244.59 0 0,1 656.3283663174127,638.8275183367164 L 653.8717100309084,585.8429381183599 A 191.54849831475852,191.54849831475852 0 0 0 654.6115142679366,585.8072032102198 Z "/><path class="wedge" fill="rgb(229,198,178)" d=" M 822.0666820379811,467.56310504419815 L 871.0980385682979,487.7949358516768 A 244.59,244.59 0 0,1 657.3074277088708,638.7801574487598 L 654.6384533126933,585.8058478572416 A 191.54849831475852,191.54849831475852 0 0 0 822.0666820379811,467.56310504419815 Z "/><path class="wedge" fill="rgb(229,198,178)" d=" M 657.3697411384642,592.0148814964638 L 660.2879577097763,638.6117499201218 A 244.59,244.59 0 0,1 657.3074277088708,638.7801574487598 L 654.9581446867647,592.1511428319911 A 197.90184159930075,197.90184159930075 0 0 0 657.3697411384642,592.0148814964638 Z "/><path class="wedge" fill="rgb(229,198,178)" d=" M 827.9396877004615,469.98648602533 L 871.0980385682979,487.7949358516768 A 244.59,244.59 0 0,1 675.2722848806344,637.2094082809847 L 669.493809752223,590.8802235262417 A 197.90184159930075,197.90184159930075 0 0 0 827.9396877004615,469.98648602533 Z "/><path class="wedge" fill="rgb(229,198,178)" d=" M 832.9149355294797,472.03942478585026 L 871.0980385682979,487.7949358516768 A 244.59,244.59 0 0,1 675.2722848806344,637.2094082809847 L 670.1599460910675,596.2210016430208 A 203.28400180823144,203.28400180823144 0 0 0 832.9149355294797,472.03942478585026 Z "/><path class="wedge" fill="rgb(229,202,178)" d=" M 669.493809752223,590.8802235262417 L 675.2722848806344,637.2094082809847 A 244.59,244.59 0 0,1 660.2879577097763,638.6117499201218 L 657.3697411384642,592.0148814964638 A 197.90184159930075,197.90184159930075 0 0 0 669.493809752223,590.8802235262417 Z "/><path class="wedge" fill="rgb(229,202,178)" d=" M 668.9549549326808,596.3676435819824 L 673.8224472898347,637.3858469162514 A 244.59,244.59 0 0,1 660.2879577097763,638.6117499201218 L 657.7061499763618,597.3865178959588 A 203.28400180823144,203.28400180823144 0 0 0 668.9549549326808,596.3676435819824 Z "/><path class="wedge" fill="rgb(229,202,178)" d=" M 670.1599460910675,596.2210016430208 L 675.2722848806344,637.2094082809847 A 244.59,244.59 0 0,1 673.8224472898347,637.3858469162514 L 668.9549549326808,596.3676435819824 A 203.28400180823144,203.28400180823144 0 0 0 670.1599460910675,596.2210016430208 Z "/><path class="wedge" fill="url(#hiddenPattern)" d=" M 670.1599460910675,596.2210016430208 L 675.2722848806344,637.2094082809847 A 244.59,244.59 0 0,1 673.8224472898347,637.3858469162514 L 668.9549549326808,596.3676435819824 A 203.28400180823144,203.28400180823144 0 0 0 670.1599460910675,596.2210016430208 Z "/><path class="wedge" fill="rgb(226,196,168)" d=" M 654.6384533126933,585.8058478572416 L 657.3074277088708,638.7801574487598 A 244.59,244.59 0 0,1 657.2730290003714,638.7818881111657 L 654.6115142679366,585.8072032102198 A 191.54849831475852,191.54849831475852 0 0 0 654.6384533126933,585.8058478572416 Z "/><path class="wedge" fill="url(#hiddenPattern)" d=" M 654.6384533126933,585.8058478572416 L 657.3074277088708,638.7801574487598 A 244.59,244.59 0 0,1 657.2730290003714,638.7818881111657 L 654.6115142679366,585.8072032102198 A 191.54849831475852,191.54849831475852 0 0 0 654.6384533126933,585.8058478572416 Z "/><path class="wedge" fill="rgb(223,190,159)" d=" M 653.5191313848738,578.2386054908287 L 656.3283663174127,638.8275183367164 A 244.59,244.59 0 0,1 656.3265065735296,638.827604557569 L 653.5177328246546,578.2386703304313 A 183.93599633368976,183.93599633368976 0 0 0 653.5191313848738,578.2386054908287 Z "/><path class="wedge" fill="url(#hiddenPattern)" d=" M 653.5191313848738,578.2386054908287 L 656.3283663174127,638.8275183367164 A 244.59,244.59 0 0,1 656.3265065735296,638.827604557569 L 653.5177328246546,578.2386703304313 A 183.93599633368976,183.93599633368976 0 0 0 653.5191313848738,578.2386054908287 Z "/><path class="wedge" fill="rgb(219,184,149)" d=" M 653.0811008466876,568.9634826283295 L 656.3172078442725,638.8280354494947 A 244.59,244.59 0 0,1 656.1953929821098,638.8336474494992 L 652.9941184214014,568.9674899010254 A 174.65053954024813,174.65053954024813 0 0 0 653.0811008466876,568.9634826283295 Z "/><path class="wedge" fill="url(#hiddenPattern)" d=" M 653.0811008466876,568.9634826283295 L 656.3172078442725,638.8280354494947 A 244.59,244.59 0 0,1 656.1953929821098,638.8336474494992 L 652.9941184214014,568.9674899010254 A 174.65053954024813,174.65053954024813 0 0 0 653.0811008466876,568.9634826283295 Z "/><path class="wedge" fill="rgb(216,177,140)" d=" M 652.2262333624733,557.4155925895955 L 655.8383014336672,638.8497479475536 A 244.59,244.59 0 0,1 655.8336516498057,638.8499541475927 L 652.2231332066533,557.4157300695882 A 163.07577612088187,163.07577612088187 0 0 0 652.2262333624733,557.4155925895955 Z "/><path class="wedge" fill="url(#hiddenPattern)" d=" M 652.2262333624733,557.4155925895955 L 655.8383014336672,638.8497479475536 A 244.59,244.59 0 0,1 655.8336516498057,638.8499541475927 L 652.2231332066533,557.4157300695882 A 163.07577612088187,163.07577612088187 0 0 0 652.2262333624733,557.4155925895955 Z "/><path class="wedge" fill="rgb(213,171,130)" d=" M 651.5620570408287,542.6072514230249 L 655.8262119874685,638.8502838836132 A 244.59,244.59 0 0,1 655.7918034187213,638.8518059662578 L 651.5412010857566,542.6081739980812 A 148.2525497814125,148.2525497814125 0 0 0 651.5620570408287,542.6072514230249 Z "/><path class="wedge" fill="url(#hiddenPattern)" d=" M 651.5620570408287,542.6072514230249 L 655.8262119874685,638.8502838836132 A 244.59,244.59 0 0,1 655.7918034187213,638.8518059662578 L 651.5412010857566,542.6081739980812 A 148.2525497814125,148.2525497814125 0 0 0 651.5620570408287,542.6072514230249 Z "/><path class="wedge" fill="rgb(210,165,121)" d=" M 650.5608538225135,522.9844008749583 L 655.5760475427909,638.861239394411 A 244.59,244.59 0 0,1 655.1119586926407,638.8808838501865 L 650.3168373082249,522.9947298704122 A 128.6046825097451,128.6046825097451 0 0 0 650.5608538225135,522.9844008749583 Z "/><path class="wedge" fill="url(#hiddenPattern)" d=" M 650.5608538225135,522.9844008749583 L 655.5760475427909,638.861239394411 A 244.59,244.59 0 0,1 655.1119586926407,638.8808838501865 L 650.3168373082249,522.9947298704122 A 128.6046825097451,128.6046825097451 0 0 0 650.5608538225135,522.9844008749583 Z "/><path class="wedge" fill="rgb(207,159,111)" d=" M 648.7181216886945,495.78750515595334 L 653.9725111992494,638.9253713156213 A 244.59,244.59 0 0,1 653.9706507106088,638.9254396044493 L 648.7173507202318,495.7875334541818 A 101.35572568734936,101.35572568734936 0 0 0 648.7181216886945,495.78750515595334 Z "/><path class="wedge" fill="url(#hiddenPattern)" d=" M 648.7181216886945,495.78750515595334 L 653.9725111992494,638.9253713156213 A 244.59,244.59 0 0,1 653.9706507106088,638.9254396044493 L 648.7173507202318,495.7875334541818 A 101.35572568734936,101.35572568734936 0 0 0 648.7181216886945,495.78750515595334 Z "/><path class="wedge" fill="rgb(101,204,204)" d=" M 647.242197555362,455.6063769697789 L 653.9687902214482,638.9255078791157 A 244.59,244.59 0 0,1 646.3832665473524,639.0860884712354 L 645.3458166368381,455.64652211780884 A 61.1475,61.1475 0 0 0 647.242197555362,455.6063769697789 Z "/><path class="wedge" fill="url(#hiddenPattern)" d=" M 647.242197555362,455.6063769697789 L 653.9687902214482,638.9255078791157 A 244.59,244.59 0 0,1 646.3832665473524,639.0860884712354 L 645.3458166368381,455.64652211780884 A 61.1475,61.1475 0 0 0 647.242197555362,455.6063769697789 Z "/><circle cx="645" cy="394.5" r="61.1475"/><circle cx="645" cy="394.5" r="244.59"/><text x="645" y="394.5" text-anchor="middle" style="font-color:black;font-weight:bold" transform="rotate(360,645,394.5)">root</text><path class="line" d=" M 647.242197555362,455.6063769697789 A 61.1475,61.1475 0 1 0 645,455.6475"/><line x1="653.9687902214482" y1="638.9255078791157" x2="647.242197555362" y2="455.6063769697789"/><text x="645" y="321.2900322937952" text-anchor="middle" style="font-color:black;font-weight:normal" transform="rotate(358.94928440420324,645,394.5)">cellular organisms</text><path class="line" d=" M 648.7181216886945,495.78750515595334 A 101.35572568734936,101.35572568734936 0 1 0 645,495.8557256873494"/><line x1="653.9725111992494" y1="638.9253713156213" x2="648.7181216886945" y2="495.78750515595334"/><text x="645" y="284.9695872659319" text-anchor="middle" style="font-color:black;font-weight:normal" transform="rotate(358.94884828690704,645,394.5)">Bacteria</text><path class="line" d=" M 650.5608538225135,522.9844008749583 A 128.6046825097451,128.6046825097451 0 1 0 645,523.1046825097451"/><line x1="655.5760475427909" y1="638.861239394411" x2="650.5608538225135" y2="522.9844008749583"/><text x="645" y="256.07138385442124" text-anchor="middle" style="font-color:black;font-weight:normal" transform="rotate(358.76088173225793,645,394.5)">Terrabacteria group</text><path class="line" d=" M 782.0440766929405,451.0485593102924 A 148.2525497814125,148.2525497814125 0 1 0 645,542.7525497814125"/><line x1="871.0980385682979" y1="487.7949358516768" x2="782.0440766929405" y2="451.0485593102924"/><text x="645" y="238.83583704885282" text-anchor="middle" style="font-color:black;font-weight:normal" transform="rotate(326.21126733263395,645,394.5)">Firmicutes</text><path class="line" d=" M 796.0607010867084,455.9359287764102 A 163.07577612088187,163.07577612088187 0 1 0 645,557.5757761208819"/><line x1="871.5691309750989" y1="486.6449781007543" x2="796.0607010867084" y2="455.9359287764102"/><path class="line" d=" M 770.0431646839392,272.5696185213667 A 174.65053954024813,174.65053954024813 0 1 0 645,569.1505395402481"/><line x1="820.1171667179221" y1="223.74214214072765" x2="770.0431646839392" y2="272.5696185213667"/><path class="line" d=" M 775.3281787880597,264.7039424286906 A 183.93599633368976,183.93599633368976 0 1 0 645,578.4359963336898"/><line x1="818.3046814389802" y1="221.90290995693584" x2="775.3281787880597" y2="264.7039424286906"/><path class="line" d=" M 780.3067641776454,258.916421442661 A 191.54849831475852,191.54849831475852 0 1 0 645,586.0484983147585"/><line x1="817.7744239259347" y1="221.37210930337827" x2="780.3067641776454" y2="258.916421442661"/><path class="line" d=" M 782.6157398583244,252.27817659852377 A 197.90184159930075,197.90184159930075 0 1 0 645,592.4018415993007"/><line x1="815.0814582620161" y1="218.72581061069835" x2="782.6157398583244" y2="252.27817659852377"/><text x="423.75407920034957" y="394.5" text-anchor="end" style="font-color:black;font-weight:normal" transform="rotate(22.02850268817856,645,394.5)">Enterococcus faecalis&#160;&#160;&#160;62%</text><path class="line" d=" M 565.3849272857713,581.5449827925815 A 203.28400180823144,203.28400180823144 0 0 0 645,597.7840018082314"/><line x1="549.2076579467224" y1="619.5513170455749" x2="565.3849272857713" y2="581.5449827925815"/><text x="421.06299909588427" y="394.5" text-anchor="end" style="font-color:black;font-weight:normal" transform="rotate(-78.47156636372667,645,394.5)">Enterococcus faecalis V583&#160;&#160;&#160;6%</text><path class="line" d=" M 528.0004370149626,560.7392482312143 A 203.28400180823144,203.28400180823144 0 0 0 565.3849272857713,581.5449827925815"/><line x1="504.22688034493655" y1="594.517991397227" x2="528.0004370149626" y2="560.7392482312143"/><text x="421.06299909588427" y="394.5" text-anchor="end" style="font-color:black;font-weight:normal" transform="rotate(-60.90258108753116,645,394.5)">Enterococcus faecalis str. Symbioflor 1&#160;&#160;&#160;3%</text><path class="line" d=" M 500.36891871293426,537.3503962784256 A 203.28400180823144,203.28400180823144 0 0 0 528.0004370149626,560.7392482312143"/><line x1="470.9808157192084" y1="566.3766755620084" x2="500.36891871293426" y2="537.3503962784256"/><text x="421.06299909588427" y="394.5" text-anchor="end" style="font-color:black;font-weight:normal" transform="rotate(-49.75356949892545,645,394.5)">Enterococcus faecalis D32&#160;&#160;&#160;3%</text><path class="line" d=" M 477.35083880692,509.4701880594519 A 203.28400180823144,203.28400180823144 0 0 0 500.36891871293426,537.3503962784256"/><line x1="443.2856104195651" y1="532.8313888320092" x2="477.35083880692" y2="509.4701880594519"/><text x="421.06299909588427" y="394.5" text-anchor="end" style="font-color:black;font-weight:normal" transform="rotate(-39.54330039032497,645,394.5)">Enterococcus faecalis OG1RF&#160;&#160;&#160;3%</text><path class="line" d=" M 782.8239824307055,252.4799705135388 A 197.90184159930075,197.90184159930075 0 0 0 782.6157398583244,252.27817659852377"/><line x1="815.3388285338997" y1="218.97521088547427" x2="782.8239824307055" y2="252.4799705135388"/><path class="line" d=" M 780.3181159143871,258.9277509516807 A 191.54849831475852,191.54849831475852 0 0 0 780.3067641776454,258.916421442661"/><line x1="817.788919060661" y1="221.38657605532626" x2="780.3181159143871" y2="258.9277509516807"/><path class="line" d=" M 775.9820296405047,265.36379803277055 A 183.93599633368976,183.93599633368976 0 0 0 775.3281787880597,264.7039424286906"/><line x1="819.1741435518196" y1="222.78035692446213" x2="775.9820296405047" y2="265.36379803277055"/><path class="line" d=" M 808.8259080760402,455.03001573401923 A 174.65053954024813,174.65053954024813 0 0 0 770.0431646839392,272.5696185213667"/><line x1="874.4306044619148" y1="479.2694864691326" x2="808.8259080760402" y2="455.03001573401923"/><path class="line" d=" M 817.655893100721,457.9223408970338 A 183.93599633368976,183.93599633368976 0 0 0 776.6911997031517,266.08707748823815"/><line x1="874.5902147228073" y1="478.83624015531666" x2="817.655893100721" y2="457.9223408970338"/><path class="line" d=" M 824.9056411578792,460.2631164575663 A 191.54849831475852,191.54849831475852 0 0 0 782.1414625044082,260.7724917274271"/><line x1="874.7231309978655" y1="478.47351478018254" x2="824.9056411578792" y2="460.2631164575663"/><path class="line" d=" M 834.355189084774,452.0304378139452 A 197.90184159930075,197.90184159930075 0 0 0 786.6902154181633,256.336973964996"/><line x1="879.0270576764988" y1="465.6027733304457" x2="834.355189084774" y2="452.0304378139452"/><text x="866.2459207996504" y="394.5" text-anchor="start" style="font-color:black;font-weight:normal" transform="rotate(346.3110412785021,645,394.5)">17%&#160;&#160;&#160;Staphylococcus epidermidis</text><path class="line" d=" M 809.1098969800878,274.5319746584364 A 203.28400180823144,203.28400180823144 0 0 0 790.5436380708061,252.57947714201708"/><line x1="842.4559697040277" y1="250.1552455811362" x2="809.1098969800878" y2="274.5319746584364"/><text x="868.9370009041157" y="394.5" text-anchor="start" style="font-color:black;font-weight:normal" transform="rotate(319.7772288622426,645,394.5)">2%&#160;&#160;&#160;Staphylococcus epidermidis ATCC 12228</text><path class="line" d=" M 821.0277010676156,292.82092718745315 A 203.28400180823144,203.28400180823144 0 0 0 809.1098969800878,274.5319746584364"/><line x1="856.7953947243906" y1="272.1603953188519" x2="821.0277010676156" y2="292.82092718745315"/><text x="868.9370009041157" y="394.5" text-anchor="start" style="font-color:black;font-weight:normal" transform="rotate(326.91014529974586,645,394.5)">2%&#160;&#160;&#160;Staphylococcus epidermidis RP62A</text><path class="line" d=" M 833.1144738492383,455.96611779524545 A 197.90184159930075,197.90184159930075 0 0 0 834.355189084774,452.0304378139452"/><line x1="877.493638194359" y1="470.4669421469002" x2="833.1144738492383" y2="455.96611779524545"/><path class="line" d=" M 824.9016362805061,460.27407141294776 A 191.54849831475852,191.54849831475852 0 0 0 824.9056411578792,460.2631164575663"/><line x1="874.7180171339337" y1="478.48750326122166" x2="824.9016362805061" y2="460.27407141294776"/><path class="line" d=" M 817.5913567477849,458.0977540737562 A 183.93599633368976,183.93599633368976 0 0 0 817.655893100721,457.9223408970338"/><line x1="874.5043971184273" y1="479.0694968845579" x2="817.5913567477849" y2="458.0977540737562"/><path class="line" d=" M 796.0122544266296,456.05491670382514 A 163.07577612088187,163.07577612088187 0 0 0 796.0607010867084,455.9359287764102"/><line x1="871.4964680151517" y1="486.8234427253522" x2="796.0122544266296" y2="456.05491670382514"/><path class="line" d=" M 651.5620570408287,542.6072514230249 A 148.2525497814125,148.2525497814125 0 0 0 782.0440766929405,451.0485593102924"/><line x1="655.8262119874685" y1="638.8502838836132" x2="651.5620570408287" y2="542.6072514230249"/><text x="645" y="550.1641629511472" text-anchor="middle" style="font-color:black;font-weight:normal" transform="rotate(324.9428201767244,645,394.5)">Actinobacteria</text><path class="line" d=" M 652.2262333624733,557.4155925895955 A 163.07577612088187,163.07577612088187 0 0 0 795.7466090965872,456.7026414496099"/><line x1="655.8383014336672" y1="638.8497479475536" x2="652.2262333624733" y2="557.4155925895955"/><path class="line" d=" M 653.0811008466876,568.9634826283295 A 174.65053954024813,174.65053954024813 0 0 0 806.4462750927881,461.1176494659152"/><line x1="656.3172078442725" y1="638.8280354494947" x2="653.0811008466876" y2="568.9634826283295"/><path class="line" d=" M 653.5191313848738,578.2386054908287 A 183.93599633368976,183.93599633368976 0 0 0 815.0297150053268,464.65943815677605"/><line x1="656.3283663174127" y1="638.8275183367164" x2="653.5191313848738" y2="578.2386054908287"/><path class="line" d=" M 654.6384533126933,585.8058478572416 A 191.54849831475852,191.54849831475852 0 0 0 822.0666820379811,467.56310504419815"/><line x1="657.3074277088708" y1="638.7801574487598" x2="654.6384533126933" y2="585.8058478572416"/><path class="line" d=" M 669.493809752223,590.8802235262417 A 197.90184159930075,197.90184159930075 0 0 0 827.9396877004615,469.98648602533"/><line x1="675.2722848806344" y1="637.2094082809847" x2="669.493809752223" y2="590.8802235262417"/><path class="line" d=" M 670.1599460910675,596.2210016430208 A 203.28400180823144,203.28400180823144 0 0 0 832.9149355294797,472.03942478585026"/><text x="868.9370009041157" y="394.5" text-anchor="start" style="font-color:black;font-weight:normal" transform="rotate(412.6564752515549,645,394.5)">17%&#160;&#160;&#160;Cutibacterium avidum 44067</text><path class="line" d=" M 657.3697411384642,592.0148814964638 A 197.90184159930075,197.90184159930075 0 0 0 669.493809752223,590.8802235262417"/><line x1="660.2879577097763" y1="638.6117499201218" x2="657.3697411384642" y2="592.0148814964638"/><path class="line" d=" M 668.9549549326808,596.3676435819824 A 203.28400180823144,203.28400180823144 0 0 0 670.1599460910675,596.2210016430208"/><line x1="673.8224472898347" y1="637.3858469162514" x2="668.9549549326808" y2="596.3676435819824"/><path class="line" d=" M 654.6115142679366,585.8072032102198 A 191.54849831475852,191.54849831475852 0 0 0 654.6384533126933,585.8058478572416"/><line x1="657.2730290003714" y1="638.7818881111657" x2="654.6115142679366" y2="585.8072032102198"/><path class="line" d=" M 653.5177328246546,578.2386703304313 A 183.93599633368976,183.93599633368976 0 0 0 653.5191313848738,578.2386054908287"/><line x1="656.3265065735296" y1="638.827604557569" x2="653.5177328246546" y2="578.2386703304313"/><path class="line" d=" M 652.9941184214014,568.9674899010254 A 174.65053954024813,174.65053954024813 0 0 0 653.0811008466876,568.9634826283295"/><line x1="656.1953929821098" y1="638.8336474494992" x2="652.9941184214014" y2="568.9674899010254"/><path class="line" d=" M 652.2231332066533,557.4157300695882 A 163.07577612088187,163.07577612088187 0 0 0 652.2262333624733,557.4155925895955"/><line x1="655.8336516498057" y1="638.8499541475927" x2="652.2231332066533" y2="557.4157300695882"/><path class="line" d=" M 651.5412010857566,542.6081739980812 A 148.2525497814125,148.2525497814125 0 0 0 651.5620570408287,542.6072514230249"/><line x1="655.7918034187213" y1="638.8518059662578" x2="651.5412010857566" y2="542.6081739980812"/><path class="line" d=" M 650.3168373082249,522.9947298704122 A 128.6046825097451,128.6046825097451 0 0 0 650.5608538225135,522.9844008749583"/><line x1="655.1119586926407" y1="638.8808838501865" x2="650.3168373082249" y2="522.9947298704122"/><path class="line" d=" M 648.7173507202318,495.7875334541818 A 101.35572568734936,101.35572568734936 0 0 0 648.7181216886945,495.78750515595334"/><line x1="653.9706507106088" y1="638.9254396044493" x2="648.7173507202318" y2="495.7875334541818"/><path class="line" d=" M 645.3458166368381,455.64652211780884 A 61.1475,61.1475 0 0 0 647.242197555362,455.6063769697789"/><line x1="646.3832665473524" y1="639.0860884712354" x2="645.3458166368381" y2="455.64652211780884"/></svg>