<?xml version="1.0" standalone="no"?><!DOCTYPE svg PUBLIC "-//W3C//DTD SVG 1.1//EN" 	"http://www.w3.org/Graphics/SVG/1.1/DTD/svg11.dtd"><svg width="1440" height="789" version="1.1"	xmlns="http://www.w3.org/2000/svg"><title>Krona (snapshot) - root</title><defs>	<style type="text/css">	text {font-size: 11px; font-family: sans-serif; dominant-baseline:central}	path {stroke-width:0.27499999999999997;}	path.wedge {stroke:none}	path.line {fill:none;stroke:black;}	line {stroke:black;stroke-width:0.27499999999999997;}	line.tick {stroke-width:0.5499999999999999;}	line.pattern {stroke-width:0.18333333333333332;}	circle {fill:none;stroke:black;stroke-width:0.27499999999999997;}	rect {stroke:black;stroke-width:0.27499999999999997;}	.highlight {stroke:black;stroke-width:1.375;}	.searchHighlight {fill:rgb(255, 255, 100);stroke:none;}	</style><pattern id="hiddenPattern" patternUnits="userSpaceOnUse" x="0" y="0" width="6.6" height="6.6"><line class="pattern" x1="0" y1="0" x2="3.3" y2="3.3"/><line class="pattern" x1="3.3" y1="6.6" x2="6.6" y2="3.3"/></pattern></defs><path class="wedge" fill="rgb(220,220,220)" d=" M 645.4221390813572,455.6460428388133 L 646.6885563254287,639.0841713552531 A 244.59,244.59 0 0,1 645.0000000000001,639.09 L 645,455.6475 A 61.1475,61.1475 0 0 0 645.4221390813572,455.6460428388133 Z "/><path class="wedge" fill="rgb(207,111,111)" d=" M 645,455.6475 L 645,639.09 A 244.59,244.59 0 1,1 654.2304561503277,638.9157662248016 L 647.3076140375819,455.6039415562004 A 61.1475,61.1475 0 1 0 645,455.6475 Z "/><path class="wedge" fill="rgb(207,111,111)" d=" M 648.8253972514987,495.7835103335061 L 654.2313868545547,638.9157310746211 A 244.59,244.59 0 0,1 654.2304561503277,638.9157662248016 L 648.8250115766864,495.7835248994002 A 101.35572568734936,101.35572568734936 0 0 0 648.8253972514987,495.7835103335061 Z "/><path class="wedge" fill="rgb(210,121,121)" d=" M 645,495.8557256873494 L 645,639.09 A 244.59,244.59 0 1,1 654.2360403736826,638.915555270559 L 648.8273256247281,495.78343748200643 A 101.35572568734936,101.35572568734936 0 1 0 645,495.8557256873494 Z "/><path class="wedge" fill="rgb(210,121,121)" d=" M 650.3793674218384,522.9921272668998 L 655.2308831376165,638.8759340242497 A 244.59,244.59 0 0,1 654.2360403736826,638.915555270559 L 649.8562821043569,523.012959998419 A 128.6046825097451,128.6046825097451 0 0 0 650.3793674218384,522.9921272668998 Z "/><path class="wedge" fill="rgb(213,130,130)" d=" M 645,523.1046825097451 L 645,639.09 A 244.59,244.59 0 1,1 655.7733696576586,638.8526193970906 L 650.6646051939299,522.9798685064288 A 128.6046825097451,128.6046825097451 0 1 0 645,523.1046825097451 Z "/><path class="wedge" fill="rgb(213,130,130)" d=" M 651.6907580426806,542.6014931508271 L 656.0385454555226,638.8407837718181 A 244.59,244.59 0 0,1 655.7733696576586,638.8526193970906 L 651.5300278894705,542.6086670402949 A 148.2525497814125,148.2525497814125 0 0 0 651.6907580426806,542.6014931508271 Z "/><path class="wedge" fill="rgb(216,140,140)" d=" M 645,542.7525497814125 L 645,639.09 A 244.59,244.59 0 1,1 702.6996385546965,632.1868103422178 L 679.9732962803045,538.5683416437499 A 148.2525497814125,148.2525497814125 0 1 0 645,542.7525497814125 Z "/><path class="wedge" fill="rgb(216,140,140)" d=" M 684.213769387668,552.7908369042212 L 703.8149637099998,631.9132855250342 A 244.59,244.59 0 0,1 702.6996385546965,632.1868103422178 L 683.4701473453596,552.973204424768 A 163.07577612088187,163.07577612088187 0 0 0 684.213769387668,552.7908369042212 Z "/><path class="wedge" fill="rgb(219,149,149)" d=" M 645,557.5757761208819 L 645,639.09 A 244.59,244.59 0 1,1 703.939713067101,631.8823462761454 L 684.2969436721027,552.7702087427056 A 163.07577612088187,163.07577612088187 0 1 0 645,557.5757761208819 Z "/><path class="wedge" fill="rgb(219,149,149)" d=" M 693.8515573100722,562.1792661901898 L 713.4143457782848,629.3270542159256 A 244.59,244.59 0 0,1 703.939713067101,631.8823462761454 L 687.0861551474574,564.0038834558192 A 174.65053954024813,174.65053954024813 0 0 0 693.8515573100722,562.1792661901898 Z "/><path class="wedge" fill="rgb(223,159,159)" d=" M 645,569.1505395402481 L 645,639.09 A 244.59,244.59 0 1,1 888.210106104155,420.44440958676194 L 818.6652203799488,413.02571704640894 A 174.65053954024813,174.65053954024813 0 1 0 645,569.1505395402481 Z "/><path class="wedge" fill="rgb(223,159,159)" d=" M 828.0269590037371,412.7642553943883 L 888.3812021302795,418.7870037184516 A 244.59,244.59 0 0,1 888.210106104155,420.44440958676194 L 827.8982917727224,414.0106538559646 A 183.93599633368976,183.93599633368976 0 0 0 828.0269590037371,412.7642553943883 Z "/><path class="wedge" fill="rgb(226,168,168)" d=" M 645,578.4359963336898 L 645,639.09 A 244.59,244.59 0 1,1 888.5298587104348,417.2480991837926 L 828.1387513753895,411.60697202693683 A 183.93599633368976,183.93599633368976 0 1 0 645,578.4359963336898 Z "/><path class="wedge" fill="rgb(226,168,168)" d=" M 835.7849075298054,411.5864351309055 L 888.6149640600952,416.3178226686008 A 244.59,244.59 0 0,1 888.5298587104348,417.2480991837926 L 835.7182580268576,412.31497296770374 A 191.54849831475852,191.54849831475852 0 0 0 835.7849075298054,411.5864351309055 Z "/><path class="wedge" fill="rgb(229,178,178)" d=" M 645,586.0484983147585 L 645,639.09 A 244.59,244.59 0 1,1 888.6203567657851,416.25752442975914 L 835.7891307796389,411.53921309770243 A 191.54849831475852,191.54849831475852 0 1 0 645,586.0484983147585 Z "/><path class="wedge" fill="rgb(229,178,178)" d=" M 842.3592118079172,409.1451501512415 L 888.9193553025988,412.600171512021 A 244.59,244.59 0 0,1 888.6203567657851,416.25752442975914 L 842.1172871132408,412.1043752945382 A 197.90184159930075,197.90184159930075 0 0 0 842.3592118079172,409.1451501512415 Z "/><path class="wedge" fill="rgb(229,178,178)" d=" M 645,592.4018415993007 L 645,639.09 A 244.59,244.59 0 1,1 888.9423138329643,412.28807527023616 L 842.3777879371119,408.8926278853866 A 197.90184159930075,197.90184159930075 0 1 0 645,592.4018415993007 Z "/><path class="wedge" fill="rgb(229,178,178)" d=" M 458.1530049952159,474.57862292054745 L 420.18690058388245,490.8500826720915 A 244.59,244.59 0 1,1 888.9423138329643,412.28807527023616 L 847.7456959251174,409.28405137331714 A 203.28400180823144,203.28400180823144 0 1 0 458.1530049952159,474.57862292054745 Z "/><path class="wedge" fill="rgb(229,178,178)" d=" M 645,597.7840018082314 L 645,639.09 A 244.59,244.59 0 0,1 535.1566365483006,613.037648028018 L 553.706821642187,576.1313325847102 A 203.28400180823144,203.28400180823144 0 0 0 645,597.7840018082314 Z "/><path class="wedge" fill="rgb(229,180,178)" d=" M 553.706821642187,576.1313325847102 L 535.1566365483006,613.037648028018 A 244.59,244.59 0 0,1 482.48326193970956,577.2910773266653 L 509.9288487930171,546.4215899824294 A 203.28400180823144,203.28400180823144 0 0 0 553.706821642187,576.1313325847102 Z "/><path class="wedge" fill="rgb(229,181,178)" d=" M 509.9288487930171,546.4215899824294 L 482.48326193970956,577.2910773266653 A 244.59,244.59 0 0,1 446.20072384829035,536.9890027390054 L 479.77365218243085,512.9256702663603 A 203.28400180823144,203.28400180823144 0 0 0 509.9288487930171,546.4215899824294 Z "/><path class="wedge" fill="rgb(229,182,178)" d=" M 479.77365218243085,512.9256702663603 L 446.20072384829035,536.9890027390054 A 244.59,244.59 0 0,1 420.18690058388245,490.8500826720915 L 458.1530049952159,474.57862292054745 A 203.28400180823144,203.28400180823144 0 0 0 479.77365218243085,512.9256702663603 Z "/><path class="wedge" fill="rgb(229,196,178)" d=" M 842.3777879371119,408.8926278853866 L 888.9423138329643,412.28807527023616 A 244.59,244.59 0 0,1 888.9193553025988,412.600171512021 L 842.3592118079172,409.1451501512415 A 197.90184159930075,197.90184159930075 0 0 0 842.3777879371119,408.8926278853866 Z "/><path class="wedge" fill="url(#hiddenPattern)" d=" M 842.3777879371119,408.8926278853866 L 888.9423138329643,412.28807527023616 A 244.59,244.59 0 0,1 888.9193553025988,412.600171512021 L 842.3592118079172,409.1451501512415 A 197.90184159930075,197.90184159930075 0 0 0 842.3777879371119,408.8926278853866 Z "/><path class="wedge" fill="rgb(226,189,168)" d=" M 835.7891307796389,411.53921309770243 L 888.6203567657851,416.25752442975914 A 244.59,244.59 0 0,1 888.6149640600952,416.3178226686008 L 835.7849075298054,411.5864351309055 A 191.54849831475852,191.54849831475852 0 0 0 835.7891307796389,411.53921309770243 Z "/><path class="wedge" fill="url(#hiddenPattern)" d=" M 835.7891307796389,411.53921309770243 L 888.6203567657851,416.25752442975914 A 244.59,244.59 0 0,1 888.6149640600952,416.3178226686008 L 835.7849075298054,411.5864351309055 A 191.54849831475852,191.54849831475852 0 0 0 835.7891307796389,411.53921309770243 Z "/><path class="wedge" fill="rgb(223,182,159)" d=" M 828.1387513753895,411.60697202693683 L 888.5298587104348,417.2480991837926 A 244.59,244.59 0 0,1 888.3812021302795,418.7870037184516 L 828.0269590037371,412.7642553943883 A 183.93599633368976,183.93599633368976 0 0 0 828.1387513753895,411.60697202693683 Z "/><path class="wedge" fill="url(#hiddenPattern)" d=" M 828.1387513753895,411.60697202693683 L 888.5298587104348,417.2480991837926 A 244.59,244.59 0 0,1 888.3812021302795,418.7870037184516 L 828.0269590037371,412.7642553943883 A 183.93599633368976,183.93599633368976 0 0 0 828.1387513753895,411.60697202693683 Z "/><path class="wedge" fill="rgb(223,182,159)" d=" M 818.6652203799488,413.02571704640894 L 888.210106104155,420.44440958676194 A 244.59,244.59 0 0,1 713.4143457782848,629.3270542159256 L 693.8515573100722,562.1792661901898 A 174.65053954024813,174.65053954024813 0 0 0 818.6652203799488,413.02571704640894 Z "/><path class="wedge" fill="rgb(223,182,159)" d=" M 696.6363792515351,571.0393301365414 L 713.6637866044479,629.2542385328513 A 244.59,244.59 0 0,1 713.4143457782848,629.3270542159256 L 696.4487953483233,571.0940888152078 A 183.93599633368976,183.93599633368976 0 0 0 696.6363792515351,571.0393301365414 Z "/><path class="wedge" fill="rgb(226,190,168)" d=" M 827.8982917727224,414.0106538559646 L 888.210106104155,420.44440958676194 A 244.59,244.59 0 0,1 714.0230596129636,629.1488554024188 L 696.906558894109,570.9600801627369 A 183.93599633368976,183.93599633368976 0 0 0 827.8982917727224,414.0106538559646 Z "/><path class="wedge" fill="rgb(226,190,168)" d=" M 699.4290517068056,578.1526763674761 L 714.5009455782397,629.0077539522533 A 244.59,244.59 0 0,1 714.0230596129636,629.1488554024188 L 699.0547995337228,578.2631787219848 A 191.54849831475852,191.54849831475852 0 0 0 699.4290517068056,578.1526763674761 Z "/><path class="wedge" fill="rgb(229,197,178)" d=" M 835.4678465972606,414.8181352304153 L 888.210106104155,420.44440958676194 A 244.59,244.59 0 0,1 714.5170189800501,629.0029896869704 L 699.4416394494752,578.1489452751972 A 191.54849831475852,191.54849831475852 0 0 0 835.4678465972606,414.8181352304153 Z "/><path class="wedge" fill="rgb(229,197,178)" d=" M 707.9507408878466,582.1228747516302 L 722.8018111874549,626.3860631343583 A 244.59,244.59 0 0,1 714.5170189800501,629.0029896869704 L 701.2473775650903,584.2402735990568 A 197.90184159930075,197.90184159930075 0 0 0 707.9507408878466,582.1228747516302 Z "/><path class="wedge" fill="rgb(229,197,178)" d=" M 841.7853464719474,415.4920537897164 L 888.210106104155,420.44440958676194 A 244.59,244.59 0 0,1 742.163775710039,618.9626222553975 L 723.6168287736953,576.1164451308366 A 197.90184159930075,197.90184159930075 0 0 0 841.7853464719474,415.4920537897164 Z "/><path class="wedge" fill="rgb(229,197,178)" d=" M 835.7159718044032,464.8690520745527 L 874.4682273504424,479.1675896470763 A 244.59,244.59 0 0,1 742.163775710039,618.9626222553975 L 725.7549006792353,581.0557059096716 A 203.28400180823144,203.28400180823144 0 0 0 835.7159718044032,464.8690520745527 Z "/><path class="wedge" fill="rgb(229,197,178)" d=" M 847.1371423568306,416.06295598899715 L 888.210106104155,420.44440958676194 A 244.59,244.59 0 0,1 882.174011563128,454.27253833536963 L 842.1204145527798,444.178240283944 A 203.28400180823144,203.28400180823144 0 0 0 847.1371423568306,416.06295598899715 Z "/><path class="wedge" fill="rgb(229,197,178)" d=" M 842.1204145527798,444.178240283944 L 882.174011563128,454.27253833536963 A 244.59,244.59 0 0,1 874.4682273504424,479.1675896470763 L 835.7159718044032,464.8690520745527 A 203.28400180823144,203.28400180823144 0 0 0 842.1204145527798,444.178240283944 Z "/><path class="wedge" fill="rgb(229,201,178)" d=" M 723.6168287736953,576.1164451308366 L 742.163775710039,618.9626222553975 A 244.59,244.59 0 0,1 722.8018111874549,626.3860631343583 L 707.9507408878466,582.1228747516302 A 197.90184159930075,197.90184159930075 0 0 0 723.6168287736953,576.1164451308366 Z "/><path class="wedge" fill="url(#hiddenPattern)" d=" M 723.6168287736953,576.1164451308366 L 742.163775710039,618.9626222553975 A 244.59,244.59 0 0,1 722.8018111874549,626.3860631343583 L 707.9507408878466,582.1228747516302 A 197.90184159930075,197.90184159930075 0 0 0 723.6168287736953,576.1164451308366 Z "/><path class="wedge" fill="rgb(226,195,168)" d=" M 699.4416394494752,578.1489452751972 L 714.5170189800501,629.0029896869704 A 244.59,244.59 0 0,1 714.5009455782397,629.0077539522533 L 699.4290517068056,578.1526763674761 A 191.54849831475852,191.54849831475852 0 0 0 699.4416394494752,578.1489452751972 Z "/><path class="wedge" fill="url(#hiddenPattern)" d=" M 699.4416394494752,578.1489452751972 L 714.5170189800501,629.0029896869704 A 244.59,244.59 0 0,1 714.5009455782397,629.0077539522533 L 699.4290517068056,578.1526763674761 A 191.54849831475852,191.54849831475852 0 0 0 699.4416394494752,578.1489452751972 Z "/><path class="wedge" fill="rgb(223,188,159)" d=" M 696.906558894109,570.9600801627369 L 714.0230596129636,629.1488554024188 A 244.59,244.59 0 0,1 713.6637866044479,629.2542385328513 L 696.6363792515351,571.0393301365414 A 183.93599633368976,183.93599633368976 0 0 0 696.906558894109,570.9600801627369 Z "/><path class="wedge" fill="url(#hiddenPattern)" d=" M 696.906558894109,570.9600801627369 L 714.0230596129636,629.1488554024188 A 244.59,244.59 0 0,1 713.6637866044479,629.2542385328513 L 696.6363792515351,571.0393301365414 A 183.93599633368976,183.93599633368976 0 0 0 696.906558894109,570.9600801627369 Z "/><path class="wedge" fill="rgb(216,176,140)" d=" M 684.2969436721027,552.7702087427056 L 703.939713067101,631.8823462761454 A 244.59,244.59 0 0,1 703.8149637099998,631.9132855250342 L 684.213769387668,552.7908369042212 A 163.07577612088187,163.07577612088187 0 0 0 684.2969436721027,552.7702087427056 Z "/><path class="wedge" fill="url(#hiddenPattern)" d=" M 684.2969436721027,552.7702087427056 L 703.939713067101,631.8823462761454 A 244.59,244.59 0 0,1 703.8149637099998,631.9132855250342 L 684.213769387668,552.7908369042212 A 163.07577612088187,163.07577612088187 0 0 0 684.2969436721027,552.7702087427056 Z "/><path class="wedge" fill="rgb(216,176,140)" d=" M 679.9732962803045,538.5683416437499 L 702.6996385546965,632.1868103422178 A 244.59,244.59 0 0,1 656.0673883604308,638.8394790345584 L 651.7082404998364,542.6007023146296 A 148.2525497814125,148.2525497814125 0 0 0 679.9732962803045,538.5683416437499 Z "/><path class="wedge" fill="rgb(216,176,140)" d=" M 652.3802134280303,557.4086897841386 L 656.0692491877141,638.8393947410452 A 244.59,244.59 0 0,1 656.0673883604308,638.8394790345584 L 652.3789727564841,557.408745985251 A 163.07577612088187,163.07577612088187 0 0 0 652.3802134280303,557.4086897841386 Z "/><path class="wedge" fill="rgb(219,183,149)" d=" M 683.4701473453596,552.973204424768 L 702.6996385546965,632.1868103422178 A 244.59,244.59 0 0,1 656.0701796011149,638.8393525889742 L 652.3808337636427,557.4086616800391 A 163.07577612088187,163.07577612088187 0 0 0 683.4701473453596,552.973204424768 Z "/><path class="wedge" fill="rgb(219,183,149)" d=" M 652.9485571503665,568.9695715617114 L 656.1315865300267,638.8365627189769 A 244.59,244.59 0 0,1 656.0701796011149,638.8393525889742 L 652.9047092691532,568.9715636803601 A 174.65053954024813,174.65053954024813 0 0 0 652.9485571503665,568.9695715617114 Z "/><path class="wedge" fill="rgb(223,189,159)" d=" M 686.2006746181572,564.2212873292815 L 702.6996385546965,632.1868103422178 A 244.59,244.59 0 0,1 656.1920623637536,638.8338000360283 L 652.9917401790657,568.9675988560916 A 174.65053954024813,174.65053954024813 0 0 0 686.2006746181572,564.2212873292815 Z "/><path class="wedge" fill="rgb(223,189,159)" d=" M 653.4173280776116,578.2432973887783 L 656.1929927558498,638.8337574163004 A 244.59,244.59 0 0,1 656.1920623637536,638.8338000360283 L 653.4166284063364,578.2433294395657 A 183.93599633368976,183.93599633368976 0 0 0 653.4173280776116,578.2432973887783 Z "/><path class="wedge" fill="rgb(226,196,168)" d=" M 688.3911464313827,573.2446758889266 L 702.6996385546965,632.1868103422178 A 244.59,244.59 0 0,1 656.1939231477836,638.8337147930296 L 653.4180277487645,578.2432653353264 A 183.93599633368976,183.93599633368976 0 0 0 688.3911464313827,573.2446758889266 Z "/><path class="wedge" fill="rgb(226,196,168)" d=" M 653.8866439585512,585.842245115377 L 656.3474355839134,638.8266334349756 A 244.59,244.59 0 0,1 656.1939231477836,638.8337147930296 L 653.766422049997,585.8477908183953 A 191.54849831475852,191.54849831475852 0 0 0 653.8866439585512,585.842245115377 Z "/><path class="wedge" fill="rgb(229,202,178)" d=" M 690.1869623388384,580.642326302288 L 702.6996385546965,632.1868103422178 A 244.59,244.59 0 0,1 656.3558088612374,638.8262444051131 L 653.893201416736,585.841940450076 A 191.54849831475852,191.54849831475852 0 0 0 690.1869623388384,580.642326302288 Z "/><path class="wedge" fill="rgb(229,202,178)" d=" M 654.5833609830711,592.1696691469455 L 656.8442266322884,638.8030544129217 A 244.59,244.59 0 0,1 656.3558088612374,638.8262444051131 L 654.1881740320068,592.1884325557576 A 197.90184159930075,197.90184159930075 0 0 0 654.5833609830711,592.1696691469455 Z "/><path class="wedge" fill="rgb(229,202,178)" d=" M 691.685738295059,586.8163559041195 L 702.6996385546965,632.1868103422178 A 244.59,244.59 0 0,1 660.1213513382542,638.6221268826426 L 657.2349371491498,592.0232776696232 A 197.90184159930075,197.90184159930075 0 0 0 691.685738295059,586.8163559041195 Z "/><path class="wedge" fill="rgb(229,202,178)" d=" M 692.955408758687,592.046612630934 L 702.6996385546965,632.1868103422178 A 244.59,244.59 0 0,1 660.1213513382542,638.6221268826426 L 657.5676798429557,597.3951424123653 A 203.28400180823144,203.28400180823144 0 0 0 692.955408758687,592.046612630934 Z "/><path class="wedge" fill="rgb(229,203,178)" d=" M 657.2349371491498,592.0232776696232 L 660.1213513382542,638.6221268826426 A 244.59,244.59 0 0,1 656.8442266322884,638.8030544129217 L 654.5833609830711,592.1696691469455 A 197.90184159930075,197.90184159930075 0 0 0 657.2349371491498,592.0232776696232 Z "/><path class="wedge" fill="url(#hiddenPattern)" d=" M 657.2349371491498,592.0232776696232 L 660.1213513382542,638.6221268826426 A 244.59,244.59 0 0,1 656.8442266322884,638.8030544129217 L 654.5833609830711,592.1696691469455 A 197.90184159930075,197.90184159930075 0 0 0 657.2349371491498,592.0232776696232 Z "/><path class="wedge" fill="rgb(226,196,168)" d=" M 653.893201416736,585.841940450076 L 656.3558088612374,638.8262444051131 A 244.59,244.59 0 0,1 656.3474355839134,638.8266334349756 L 653.8866439585512,585.842245115377 A 191.54849831475852,191.54849831475852 0 0 0 653.893201416736,585.841940450076 Z "/><path class="wedge" fill="url(#hiddenPattern)" d=" M 653.893201416736,585.841940450076 L 656.3558088612374,638.8262444051131 A 244.59,244.59 0 0,1 656.3474355839134,638.8266334349756 L 653.8866439585512,585.842245115377 A 191.54849831475852,191.54849831475852 0 0 0 653.893201416736,585.841940450076 Z "/><path class="wedge" fill="rgb(223,190,159)" d=" M 653.4180277487645,578.2432653353264 L 656.1939231477836,638.8337147930296 A 244.59,244.59 0 0,1 656.1929927558498,638.8337574163004 L 653.4173280776116,578.2432973887783 A 183.93599633368976,183.93599633368976 0 0 0 653.4180277487645,578.2432653353264 Z "/><path class="wedge" fill="url(#hiddenPattern)" d=" M 653.4180277487645,578.2432653353264 L 656.1939231477836,638.8337147930296 A 244.59,244.59 0 0,1 656.1929927558498,638.8337574163004 L 653.4173280776116,578.2432973887783 A 183.93599633368976,183.93599633368976 0 0 0 653.4180277487645,578.2432653353264 Z "/><path class="wedge" fill="rgb(219,184,149)" d=" M 652.9917401790657,568.9675988560916 L 656.1920623637536,638.8338000360283 A 244.59,244.59 0 0,1 656.1315865300267,638.8365627189769 L 652.9485571503665,568.9695715617114 A 174.65053954024813,174.65053954024813 0 0 0 652.9917401790657,568.9675988560916 Z "/><path class="wedge" fill="url(#hiddenPattern)" d=" M 652.9917401790657,568.9675988560916 L 656.1920623637536,638.8338000360283 A 244.59,244.59 0 0,1 656.1315865300267,638.8365627189769 L 652.9485571503665,568.9695715617114 A 174.65053954024813,174.65053954024813 0 0 0 652.9917401790657,568.9675988560916 Z "/><path class="wedge" fill="rgb(216,177,140)" d=" M 652.3808337636427,557.4086616800391 L 656.0701796011149,638.8393525889742 A 244.59,244.59 0 0,1 656.0692491877141,638.8393947410452 L 652.3802134280303,557.4086897841386 A 163.07577612088187,163.07577612088187 0 0 0 652.3808337636427,557.4086616800391 Z "/><path class="wedge" fill="url(#hiddenPattern)" d=" M 652.3808337636427,557.4086616800391 L 656.0701796011149,638.8393525889742 A 244.59,244.59 0 0,1 656.0692491877141,638.8393947410452 L 652.3802134280303,557.4086897841386 A 163.07577612088187,163.07577612088187 0 0 0 652.3808337636427,557.4086616800391 Z "/><path class="wedge" fill="rgb(213,171,130)" d=" M 651.7082404998364,542.6007023146296 L 656.0673883604308,638.8394790345584 A 244.59,244.59 0 0,1 656.0385454555226,638.8407837718181 L 651.6907580426806,542.6014931508271 A 148.2525497814125,148.2525497814125 0 0 0 651.7082404998364,542.6007023146296 Z "/><path class="wedge" fill="url(#hiddenPattern)" d=" M 651.7082404998364,542.6007023146296 L 656.0673883604308,638.8394790345584 A 244.59,244.59 0 0,1 656.0385454555226,638.8407837718181 L 651.6907580426806,542.6014931508271 A 148.2525497814125,148.2525497814125 0 0 0 651.7082404998364,542.6007023146296 Z "/><path class="wedge" fill="rgb(210,165,121)" d=" M 650.6646051939299,522.9798685064288 L 655.7733696576586,638.8526193970906 A 244.59,244.59 0 0,1 655.2308831376165,638.8759340242497 L 650.3793674218384,522.9921272668998 A 128.6046825097451,128.6046825097451 0 0 0 650.6646051939299,522.9798685064288 Z "/><path class="wedge" fill="url(#hiddenPattern)" d=" M 650.6646051939299,522.9798685064288 L 655.7733696576586,638.8526193970906 A 244.59,244.59 0 0,1 655.2308831376165,638.8759340242497 L 650.3793674218384,522.9921272668998 A 128.6046825097451,128.6046825097451 0 0 0 650.6646051939299,522.9798685064288 Z "/><path class="wedge" fill="rgb(207,159,111)" d=" M 648.8273256247281,495.78343748200643 L 654.2360403736826,638.915555270559 A 244.59,244.59 0 0,1 654.2313868545547,638.9157310746211 L 648.8253972514987,495.7835103335061 A 101.35572568734936,101.35572568734936 0 0 0 648.8273256247281,495.78343748200643 Z "/><path class="wedge" fill="url(#hiddenPattern)" d=" M 648.8273256247281,495.78343748200643 L 654.2360403736826,638.915555270559 A 244.59,244.59 0 0,1 654.2313868545547,638.9157310746211 L 648.8253972514987,495.7835103335061 A 101.35572568734936,101.35572568734936 0 0 0 648.8273256247281,495.78343748200643 Z "/><path class="wedge" fill="rgb(101,204,204)" d=" M 647.3076140375819,455.6039415562004 L 654.2304561503277,638.9157662248016 A 244.59,244.59 0 0,1 646.6885563254287,639.0841713552531 L 645.4221390813572,455.6460428388133 A 61.1475,61.1475 0 0 0 647.3076140375819,455.6039415562004 Z "/><path class="wedge" fill="url(#hiddenPattern)" d=" M 647.3076140375819,455.6039415562004 L 654.2304561503277,638.9157662248016 A 244.59,244.59 0 0,1 646.6885563254287,639.0841713552531 L 645.4221390813572,455.6460428388133 A 61.1475,61.1475 0 0 0 647.3076140375819,455.6039415562004 Z "/><rect fill="rgb(101,204,204)" x="1406.165" y="725.8316666666667" width="22" height="22"/><rect fill="url(#hiddenPattern)" style="stroke:none" x="1406.165" y="725.8316666666667" width="22" height="22"/><path class="line" d="M 650.4601555319808,639.0290469485508 L 652.6911868246182,738.9441414006469 A 344.53,344.53 0 0,0 683.8580866387188,736.8316666666667 L 1014.515,736.8316666666667 L 1322.6051041666667,736.8316666666667"/><text x="1398.8316666666667" y="736.8316666666667" style="font-color:black;font-weight:normal" text-anchor="end">Viruses&#160;&#160;&#160;0.5%</text><circle cx="645" cy="394.5" r="61.1475"/><circle cx="645" cy="394.5" r="244.59"/><text x="645" y="394.5" text-anchor="middle" style="font-color:black;font-weight:bold" transform="rotate(360,645,394.5)">root</text><rect fill="rgb(220,220,220)" x="1406.165" y="755.165" width="22" height="22"/><path class="line" d="M 645.8442831926026,639.0885428344727 L 646.282932181296,766.165 L 1003.515,766.165 L 1305.8956315104167,766.165"/><text x="1398.8316666666667" y="766.165" style="font-color:black;font-weight:normal" text-anchor="end">[other root]&#160;&#160;&#160;0.1%</text><path class="line" d=" M 647.3076140375819,455.6039415562004 A 61.1475,61.1475 0 1 0 645,455.6475"/><line x1="654.2304561503277" y1="638.9157662248016" x2="647.3076140375819" y2="455.6039415562004"/><text x="645" y="321.2900322937952" text-anchor="middle" style="font-color:black;font-weight:normal" transform="rotate(358.9186152428016,645,394.5)">cellular organisms</text><path class="line" d=" M 648.8273256247281,495.78343748200643 A 101.35572568734936,101.35572568734936 0 1 0 645,495.8557256873494"/><line x1="654.2360403736826" y1="638.915555270559" x2="648.8273256247281" y2="495.78343748200643"/><text x="645" y="284.9695872659319" text-anchor="middle" style="font-color:black;font-weight:normal" transform="rotate(358.9179607175778,645,394.5)">Bacteria</text><path class="line" d=" M 650.6646051939299,522.9798685064288 A 128.6046825097451,128.6046825097451 0 1 0 645,523.1046825097451"/><line x1="655.7733696576586" y1="638.8526193970906" x2="650.6646051939299" y2="522.9798685064288"/><text x="645" y="256.07138385442124" text-anchor="middle" style="font-color:black;font-weight:normal" transform="rotate(358.7377481059676,645,394.5)">Terrabacteria group</text><path class="line" d=" M 679.9732962803045,538.5683416437499 A 148.2525497814125,148.2525497814125 0 1 0 645,542.7525497814125"/><line x1="702.6996385546965" y1="632.1868103422178" x2="679.9732962803045" y2="538.5683416437499"/><text x="645" y="238.83583704885282" text-anchor="middle" style="font-color:black;font-weight:normal" transform="rotate(353.17755633007704,645,394.5)">Firmicutes</text><path class="line" d=" M 684.2969436721027,552.7702087427056 A 163.07577612088187,163.07577612088187 0 1 0 645,557.5757761208819"/><line x1="703.939713067101" y1="631.8823462761454" x2="684.2969436721027" y2="552.7702087427056"/><path class="line" d=" M 818.6652203799488,413.02571704640894 A 174.65053954024813,174.65053954024813 0 1 0 645,569.1505395402481"/><line x1="888.210106104155" y1="420.44440958676194" x2="818.6652203799488" y2="413.02571704640894"/><path class="line" d=" M 828.1387513753895,411.60697202693683 A 183.93599633368976,183.93599633368976 0 1 0 645,578.4359963336898"/><line x1="888.5298587104348" y1="417.2480991837926" x2="828.1387513753895" y2="411.60697202693683"/><path class="line" d=" M 835.7891307796389,411.53921309770243 A 191.54849831475852,191.54849831475852 0 1 0 645,586.0484983147585"/><line x1="888.6203567657851" y1="416.25752442975914" x2="835.7891307796389" y2="411.53921309770243"/><path class="line" d=" M 842.3777879371119,408.8926278853866 A 197.90184159930075,197.90184159930075 0 1 0 645,592.4018415993007"/><line x1="888.9423138329643" y1="412.28807527023616" x2="842.3777879371119" y2="408.8926278853866"/><text x="423.75407920034957" y="394.5" text-anchor="end" style="font-color:black;font-weight:normal" transform="rotate(47.085290091033556,645,394.5)">Enterococcus faecalis&#160;&#160;&#160;76%</text><path class="line" d=" M 553.706821642187,576.1313325847102 A 203.28400180823144,203.28400180823144 0 0 0 645,597.7840018082314"/><line x1="535.1566365483006" y1="613.037648028018" x2="553.706821642187" y2="576.1313325847102"/><text x="421.06299909588427" y="394.5" text-anchor="end" style="font-color:black;font-weight:normal" transform="rotate(-76.65728513845936,645,394.5)">Enterococcus faecalis V583&#160;&#160;&#160;7%</text><path class="line" d=" M 509.9288487930171,546.4215899824294 A 203.28400180823144,203.28400180823144 0 0 0 553.706821642187,576.1313325847102"/><line x1="482.48326193970956" y1="577.2910773266653" x2="509.9288487930171" y2="546.4215899824294"/><text x="421.06299909588427" y="394.5" text-anchor="end" style="font-color:black;font-weight:normal" transform="rotate(-55.837383208155394,645,394.5)">Enterococcus faecalis str. Symbioflor 1&#160;&#160;&#160;4%</text><path class="line" d=" M 479.77365218243085,512.9256702663603 A 203.28400180823144,203.28400180823144 0 0 0 509.9288487930171,546.4215899824294"/><line x1="446.20072384829035" y1="536.9890027390054" x2="479.77365218243085" y2="512.9256702663603"/><text x="421.06299909588427" y="394.5" text-anchor="end" style="font-color:black;font-weight:normal" transform="rotate(-41.995592863493336,645,394.5)">Enterococcus faecalis OG1RF&#160;&#160;&#160;4%</text><path class="line" d=" M 458.1530049952159,474.57862292054745 A 203.28400180823144,203.28400180823144 0 0 0 479.77365218243085,512.9256702663603"/><line x1="420.18690058388245" y1="490.8500826720915" x2="458.1530049952159" y2="474.57862292054745"/><text x="421.06299909588427" y="394.5" text-anchor="end" style="font-color:black;font-weight:normal" transform="rotate(-29.414963537490646,645,394.5)">Enterococcus faecalis D32&#160;&#160;&#160;3%</text><path class="line" d=" M 842.3592118079172,409.1451501512415 A 197.90184159930075,197.90184159930075 0 0 0 842.3777879371119,408.8926278853866"/><line x1="888.9193553025988" y1="412.600171512021" x2="842.3592118079172" y2="409.1451501512415"/><path class="line" d=" M 835.7849075298054,411.5864351309055 A 191.54849831475852,191.54849831475852 0 0 0 835.7891307796389,411.53921309770243"/><line x1="888.6149640600952" y1="416.3178226686008" x2="835.7849075298054" y2="411.5864351309055"/><path class="line" d=" M 828.0269590037371,412.7642553943883 A 183.93599633368976,183.93599633368976 0 0 0 828.1387513753895,411.60697202693683"/><line x1="888.3812021302795" y1="418.7870037184516" x2="828.0269590037371" y2="412.7642553943883"/><path class="line" d=" M 693.8515573100722,562.1792661901898 A 174.65053954024813,174.65053954024813 0 0 0 818.6652203799488,413.02571704640894"/><line x1="713.4143457782848" y1="629.3270542159256" x2="693.8515573100722" y2="562.1792661901898"/><path class="line" d=" M 696.906558894109,570.9600801627369 A 183.93599633368976,183.93599633368976 0 0 0 827.8982917727224,414.0106538559646"/><line x1="714.0230596129636" y1="629.1488554024188" x2="696.906558894109" y2="570.9600801627369"/><path class="line" d=" M 699.4416394494752,578.1489452751972 A 191.54849831475852,191.54849831475852 0 0 0 835.4678465972606,414.8181352304153"/><line x1="714.5170189800501" y1="629.0029896869704" x2="699.4416394494752" y2="578.1489452751972"/><path class="line" d=" M 723.6168287736953,576.1164451308366 A 197.90184159930075,197.90184159930075 0 0 0 841.7853464719474,415.4920537897164"/><line x1="742.163775710039" y1="618.9626222553975" x2="723.6168287736953" y2="576.1164451308366"/><text x="866.2459207996504" y="394.5" text-anchor="start" style="font-color:black;font-weight:normal" transform="rotate(396.3412585429177,645,394.5)">17%&#160;&#160;&#160;Staphylococcus epidermidis</text><path class="line" d=" M 842.1204145527798,444.178240283944 A 203.28400180823144,203.28400180823144 0 0 0 847.1371423568306,416.06295598899715"/><line x1="882.174011563128" y1="454.27253833536963" x2="842.1204145527798" y2="444.178240283944"/><text x="868.9370009041157" y="394.5" text-anchor="start" style="font-color:black;font-weight:normal" transform="rotate(370.1170509275168,645,394.5)">2%&#160;&#160;&#160;Staphylococcus epidermidis ATCC 12228</text><path class="line" d=" M 835.7159718044032,464.8690520745527 A 203.28400180823144,203.28400180823144 0 0 0 842.1204145527798,444.178240283944"/><line x1="874.4682273504424" y1="479.1675896470763" x2="835.7159718044032" y2="464.8690520745527"/><text x="868.9370009041157" y="394.5" text-anchor="start" style="font-color:black;font-weight:normal" transform="rotate(377.19890476112556,645,394.5)">2%&#160;&#160;&#160;Staphylococcus epidermidis RP62A</text><line x1="881.34" y1="394.5" x2="897.84" y2="394.5" class="tick" transform="rotate(429.0230120159922,645,394.5)"/><text x="900.59" y="394.5" text-anchor="start" style="font-color:black;font-weight:normal" transform="rotate(429.0230120159922,645,394.5)">9 more</text><path class="line" d=" M 707.9507408878466,582.1228747516302 A 197.90184159930075,197.90184159930075 0 0 0 723.6168287736953,576.1164451308366"/><line x1="722.8018111874549" y1="626.3860631343583" x2="707.9507408878466" y2="582.1228747516302"/><path class="line" d=" M 699.4290517068056,578.1526763674761 A 191.54849831475852,191.54849831475852 0 0 0 699.4416394494752,578.1489452751972"/><line x1="714.5009455782397" y1="629.0077539522533" x2="699.4290517068056" y2="578.1526763674761"/><path class="line" d=" M 696.6363792515351,571.0393301365414 A 183.93599633368976,183.93599633368976 0 0 0 696.906558894109,570.9600801627369"/><line x1="713.6637866044479" y1="629.2542385328513" x2="696.6363792515351" y2="571.0393301365414"/><path class="line" d=" M 684.213769387668,552.7908369042212 A 163.07577612088187,163.07577612088187 0 0 0 684.2969436721027,552.7702087427056"/><line x1="703.8149637099998" y1="631.9132855250342" x2="684.213769387668" y2="552.7908369042212"/><path class="line" d=" M 651.7082404998364,542.6007023146296 A 148.2525497814125,148.2525497814125 0 0 0 679.9732962803045,538.5683416437499"/><line x1="656.0673883604308" y1="638.8394790345584" x2="651.7082404998364" y2="542.6007023146296"/><text x="645" y="550.1641629511472" text-anchor="middle" style="font-color:black;font-weight:normal" transform="rotate(351.8808327742597,645,394.5)">Actinobacteria</text><path class="line" d=" M 652.3808337636427,557.4086616800391 A 163.07577612088187,163.07577612088187 0 0 0 683.4701473453596,552.973204424768"/><line x1="656.0701796011149" y1="638.8393525889742" x2="652.3808337636427" y2="557.4086616800391"/><path class="line" d=" M 652.9917401790657,568.9675988560916 A 174.65053954024813,174.65053954024813 0 0 0 686.2006746181572,564.2212873292815"/><line x1="656.1920623637536" y1="638.8338000360283" x2="652.9917401790657" y2="568.9675988560916"/><path class="line" d=" M 653.4180277487645,578.2432653353264 A 183.93599633368976,183.93599633368976 0 0 0 688.3911464313827,573.2446758889266"/><line x1="656.1939231477836" y1="638.8337147930296" x2="653.4180277487645" y2="578.2432653353264"/><path class="line" d=" M 653.893201416736,585.841940450076 A 191.54849831475852,191.54849831475852 0 0 0 690.1869623388384,580.642326302288"/><line x1="656.3558088612374" y1="638.8262444051131" x2="653.893201416736" y2="585.841940450076"/><path class="line" d=" M 657.2349371491498,592.0232776696232 A 197.90184159930075,197.90184159930075 0 0 0 691.685738295059,586.8163559041195"/><line x1="660.1213513382542" y1="638.6221268826426" x2="657.2349371491498" y2="592.0232776696232"/><path class="line" d=" M 657.5676798429557,597.3951424123653 A 203.28400180823144,203.28400180823144 0 0 0 692.955408758687,592.046612630934"/><text x="868.9370009041157" y="394.5" text-anchor="start" style="font-color:black;font-weight:normal" transform="rotate(441.40532019919385,645,394.5)">3%&#160;&#160;&#160;Cutibacterium avidum 44067</text><path class="line" d=" M 654.5833609830711,592.1696691469455 A 197.90184159930075,197.90184159930075 0 0 0 657.2349371491498,592.0232776696232"/><line x1="656.8442266322884" y1="638.8030544129217" x2="654.5833609830711" y2="592.1696691469455"/><path class="line" d=" M 653.8866439585512,585.842245115377 A 191.54849831475852,191.54849831475852 0 0 0 653.893201416736,585.841940450076"/><line x1="656.3474355839134" y1="638.8266334349756" x2="653.8866439585512" y2="585.842245115377"/><path class="line" d=" M 653.4173280776116,578.2432973887783 A 183.93599633368976,183.93599633368976 0 0 0 653.4180277487645,578.2432653353264"/><line x1="656.1929927558498" y1="638.8337574163004" x2="653.4173280776116" y2="578.2432973887783"/><path class="line" d=" M 652.9485571503665,568.9695715617114 A 174.65053954024813,174.65053954024813 0 0 0 652.9917401790657,568.9675988560916"/><line x1="656.1315865300267" y1="638.8365627189769" x2="652.9485571503665" y2="568.9695715617114"/><path class="line" d=" M 652.3802134280303,557.4086897841386 A 163.07577612088187,163.07577612088187 0 0 0 652.3808337636427,557.4086616800391"/><line x1="656.0692491877141" y1="638.8393947410452" x2="652.3802134280303" y2="557.4086897841386"/><path class="line" d=" M 651.6907580426806,542.6014931508271 A 148.2525497814125,148.2525497814125 0 0 0 651.7082404998364,542.6007023146296"/><line x1="656.0385454555226" y1="638.8407837718181" x2="651.6907580426806" y2="542.6014931508271"/><path class="line" d=" M 650.3793674218384,522.9921272668998 A 128.6046825097451,128.6046825097451 0 0 0 650.6646051939299,522.9798685064288"/><line x1="655.2308831376165" y1="638.8759340242497" x2="650.3793674218384" y2="522.9921272668998"/><path class="line" d=" M 648.8253972514987,495.7835103335061 A 101.35572568734936,101.35572568734936 0 0 0 648.8273256247281,495.78343748200643"/><line x1="654.2313868545547" y1="638.9157310746211" x2="648.8253972514987" y2="495.7835103335061"/><path class="line" d=" M 645.4221390813572,455.6460428388133 A 61.1475,61.1475 0 0 0 647.3076140375819,455.6039415562004"/><line x1="646.6885563254287" y1="639.0841713552531" x2="645.4221390813572" y2="455.6460428388133"/></svg>