<?xml version="1.0" standalone="no"?><!DOCTYPE svg PUBLIC "-//W3C//DTD SVG 1.1//EN" 	"http://www.w3.org/Graphics/SVG/1.1/DTD/svg11.dtd"><svg width="1440" height="732" version="1.1"	xmlns="http://www.w3.org/2000/svg"><title>Krona (snapshot) - root</title><defs>	<style type="text/css">	text {font-size: 11px; font-family: sans-serif; dominant-baseline:central}	path {stroke-width:0.27499999999999997;}	path.wedge {stroke:none}	path.line {fill:none;stroke:black;}	line {stroke:black;stroke-width:0.27499999999999997;}	line.tick {stroke-width:0.5499999999999999;}	line.pattern {stroke-width:0.18333333333333332;}	circle {fill:none;stroke:black;stroke-width:0.27499999999999997;}	rect {stroke:black;stroke-width:0.27499999999999997;}	.highlight {stroke:black;stroke-width:1.375;}	.searchHighlight {fill:rgb(255, 255, 100);stroke:none;}	</style><pattern id="hiddenPattern" patternUnits="userSpaceOnUse" x="0" y="0" width="6.6" height="6.6"><line class="pattern" x1="0" y1="0" x2="3.3" y2="3.3"/><line class="pattern" x1="3.3" y1="6.6" x2="6.6" y2="3.3"/></pattern></defs><path class="wedge" fill="rgb(220,220,220)" d=" M 645.4620121413233,422.7281186430616 L 646.8480485652931,592.9124745722463 A 226.92,226.92 0 0,1 645.0000000000001,592.92 L 645,422.73 A 56.73,56.73 0 0 0 645.4620121413233,422.7281186430616 Z "/><path class="wedge" fill="rgb(207,111,111)" d=" M 645,422.73 L 645,592.92 A 226.92,226.92 0 1,1 648.54615020561,592.8922899058477 L 645.8865375514025,422.72307247646194 A 56.73,56.73 0 1 0 645,422.73 Z "/><path class="wedge" fill="rgb(210,121,121)" d=" M 645,460.0334489266663 L 645,592.92 A 226.92,226.92 0 1,1 648.5514072269045,592.8922076817728 L 646.471668738273,460.02193205932724 A 94.03344892666632,94.03344892666632 0 1 0 645,460.0334489266663 Z "/><path class="wedge" fill="rgb(210,121,121)" d=" M 647.1870292656621,485.2938040672042 L 649.1594557651333,592.8818752737598 A 226.92,226.92 0 0,1 648.5514072269045,592.8922076817728 L 646.8673191826275,485.29923681609847 A 119.31384993299544,119.31384993299544 0 0 0 647.1870292656621,485.2938040672042 Z "/><path class="wedge" fill="rgb(213,130,130)" d=" M 645,485.3138499329954 L 645,592.92 A 226.92,226.92 0 1,1 649.6807417705973,592.8717193844949 L 647.4611198712856,485.28846413133385 A 119.31384993299544,119.31384993299544 0 1 0 645,485.3138499329954 Z "/><path class="wedge" fill="rgb(213,130,130)" d=" M 647.9390784199186,503.5108840328037 L 649.8489499289409,592.8681865854854 A 226.92,226.92 0 0,1 649.6807417705973,592.8717193844949 L 647.8371229500773,503.51302535690127 A 137.5422895310443,137.5422895310443 0 0 0 647.9390784199186,503.5108840328037 Z "/><path class="wedge" fill="rgb(216,140,140)" d=" M 645,503.5422895310443 L 645,592.92 A 226.92,226.92 0 1,1 650.0478175868603,592.8638488997526 L 648.059617433597,503.5082548453061 A 137.5422895310443,137.5422895310443 0 1 0 645,503.5422895310443 Z "/><path class="wedge" fill="rgb(216,140,140)" d=" M 649.1890599396,517.2366317416856 L 651.2829820283503,592.833001427992 A 226.92,226.92 0 0,1 650.0478175868603,592.8638488997526 L 648.3655373101676,517.2571987125297 A 151.29463640112232,151.29463640112232 0 0 0 649.1890599396,517.2366317416856 Z "/><path class="wedge" fill="rgb(219,149,149)" d=" M 645,517.2946364011223 L 645,592.92 A 226.92,226.92 0 1,1 651.3635682412742,592.8307549677482 L 649.2427892793818,517.2351339566259 A 151.29463640112232,151.29463640112232 0 1 0 645,517.2946364011223 Z "/><path class="wedge" fill="rgb(219,149,149)" d=" M 656.1013966327617,527.6524573087777 L 660.5469923514405,592.3867872222763 A 226.92,226.92 0 0,1 651.3635682412742,592.8307549677482 L 649.5439332218804,527.9694743834132 A 162.03320018182714,162.03320018182714 0 0 0 656.1013966327617,527.6524573087777 Z "/><path class="wedge" fill="rgb(223,159,159)" d=" M 645,528.0332001818272 L 645,592.92 A 226.92,226.92 0 1,1 759.0599951485684,562.1708538664919 L 726.4450292025657,506.0766403771781 A 162.03320018182714,162.03320018182714 0 1 0 645,528.0332001818272 Z "/><path class="wedge" fill="rgb(223,159,159)" d=" M 731.7349207700773,512.961696894111 L 760.3362837835541,561.4232024172142 A 226.92,226.92 0 0,1 759.0599951485684,562.1708538664919 L 730.775129193621,513.523943977938 A 170.6478445073015,170.6478445073015 0 0 0 731.7349207700773,512.961696894111 Z "/><path class="wedge" fill="rgb(226,168,168)" d=" M 645,536.6478445073014 L 645,592.92 A 226.92,226.92 0 1,1 761.9863225297757,560.4399309323044 L 732.9757790258337,512.22225938545 A 170.6478445073015,170.6478445073015 0 1 0 645,536.6478445073014 Z "/><path class="wedge" fill="rgb(226,168,168)" d=" M 737.1619012179942,517.9446216707079 L 762.6823604321224,560.0194537749346 A 226.92,226.92 0 0,1 761.9863225297757,560.4399309323044 L 736.6168052820824,518.2739146429055 A 177.71039387376834,177.71039387376834 0 0 0 737.1619012179942,517.9446216707079 Z "/><path class="wedge" fill="rgb(229,178,178)" d=" M 645,543.7103938737683 L 645,592.92 A 226.92,226.92 0 1,1 762.7160739232393,559.9990008739696 L 737.1883036408094,517.9286041619544 A 177.71039387376834,177.71039387376834 0 1 0 645,543.7103938737683 Z "/><path class="wedge" fill="rgb(229,178,178)" d=" M 743.3875763731577,521.0180285577204 L 766.5987537591245,557.5892206890246 A 226.92,226.92 0 0,1 762.7160739232393,559.9990008739696 L 740.2460354685329,522.9678218299315 A 183.6047503811003,183.6047503811003 0 0 0 743.3875763731577,521.0180285577204 Z "/><path class="wedge" fill="rgb(229,178,178)" d=" M 645,549.6047503811003 L 645,592.92 A 226.92,226.92 0 1,1 766.9433237883391,557.370092186455 L 743.6663737211338,520.8407280376442 A 183.6047503811003,183.6047503811003 0 1 0 645,549.6047503811003 Z "/><path class="wedge" fill="rgb(229,178,178)" d=" M 457.3879571642816,385.2603004212423 L 419.2663999674851,389.1738692574326 A 226.92,226.92 0 1,1 766.9433237883391,557.370092186455 L 746.3497152520155,525.0517934750919 A 188.59808532778885,188.59808532778885 0 1 0 457.3879571642816,385.2603004212423 Z "/><path class="wedge" fill="rgb(229,178,178)" d=" M 645,554.5980853277888 L 645,592.92 A 226.92,226.92 0 0,1 513.0464285973147,550.6102418450191 L 535.3305529758941,519.4335366819612 A 188.59808532778885,188.59808532778885 0 0 0 645,554.5980853277888 Z "/><path class="wedge" fill="rgb(229,180,178)" d=" M 535.3305529758941,519.4335366819612 L 513.0464285973147,550.6102418450191 A 226.92,226.92 0 0,1 462.60306073595746,500.9964553131273 L 493.4059866259148,478.1984531909669 A 188.59808532778885,188.59808532778885 0 0 0 535.3305529758941,519.4335366819612 Z "/><path class="wedge" fill="rgb(229,182,178)" d=" M 493.4059866259148,478.1984531909669 L 462.60306073595746,500.9964553131273 A 226.92,226.92 0 0,1 433.35656858109894,447.8519659949163 L 469.0985988991366,434.0289267889851 A 188.59808532778885,188.59808532778885 0 0 0 493.4059866259148,478.1984531909669 Z "/><path class="wedge" fill="rgb(229,183,178)" d=" M 469.0985988991366,434.0289267889851 L 433.35656858109894,447.8519659949163 A 226.92,226.92 0 0,1 419.2663999674851,389.1738692574326 L 457.3879571642816,385.2603004212423 A 188.59808532778885,188.59808532778885 0 0 0 469.0985988991366,434.0289267889851 Z "/><path class="wedge" fill="rgb(229,200,178)" d=" M 743.6663737211338,520.8407280376442 L 766.9433237883391,557.370092186455 A 226.92,226.92 0 0,1 766.5987537591245,557.5892206890246 L 743.3875763731577,521.0180285577204 A 183.6047503811003,183.6047503811003 0 0 0 743.6663737211338,520.8407280376442 Z "/><path class="wedge" fill="url(#hiddenPattern)" d=" M 743.6663737211338,520.8407280376442 L 766.9433237883391,557.370092186455 A 226.92,226.92 0 0,1 766.5987537591245,557.5892206890246 L 743.3875763731577,521.0180285577204 A 183.6047503811003,183.6047503811003 0 0 0 743.6663737211338,520.8407280376442 Z "/><path class="wedge" fill="rgb(226,193,168)" d=" M 737.1883036408094,517.9286041619544 L 762.7160739232393,559.9990008739696 A 226.92,226.92 0 0,1 762.6823604321224,560.0194537749346 L 737.1619012179942,517.9446216707079 A 177.71039387376834,177.71039387376834 0 0 0 737.1883036408094,517.9286041619544 Z "/><path class="wedge" fill="url(#hiddenPattern)" d=" M 737.1883036408094,517.9286041619544 L 762.7160739232393,559.9990008739696 A 226.92,226.92 0 0,1 762.6823604321224,560.0194537749346 L 737.1619012179942,517.9446216707079 A 177.71039387376834,177.71039387376834 0 0 0 737.1883036408094,517.9286041619544 Z "/><path class="wedge" fill="rgb(223,187,159)" d=" M 732.9757790258337,512.22225938545 L 761.9863225297757,560.4399309323044 A 226.92,226.92 0 0,1 760.3362837835541,561.4232024172142 L 731.7349207700773,512.961696894111 A 170.6478445073015,170.6478445073015 0 0 0 732.9757790258337,512.22225938545 Z "/><path class="wedge" fill="url(#hiddenPattern)" d=" M 732.9757790258337,512.22225938545 L 761.9863225297757,560.4399309323044 A 226.92,226.92 0 0,1 760.3362837835541,561.4232024172142 L 731.7349207700773,512.961696894111 A 170.6478445073015,170.6478445073015 0 0 0 732.9757790258337,512.22225938545 Z "/><path class="wedge" fill="rgb(223,187,159)" d=" M 726.4450292025657,506.0766403771781 L 759.0599951485684,562.1708538664919 A 226.92,226.92 0 0,1 660.5469923514405,592.3867872222763 L 656.1013966327617,527.6524573087777 A 162.03320018182714,162.03320018182714 0 0 0 726.4450292025657,506.0766403771781 Z "/><path class="wedge" fill="rgb(223,187,159)" d=" M 656.7711600702486,536.2413775366869 L 660.6527710669474,592.3794980954011 A 226.92,226.92 0 0,1 660.5469923514405,592.3867872222763 L 656.6916126094872,536.2468590887298 A 170.6478445073015,170.6478445073015 0 0 0 656.7711600702486,536.2413775366869 Z "/><path class="wedge" fill="rgb(226,194,168)" d=" M 730.775129193621,513.523943977938 L 759.0599951485684,562.1708538664919 A 226.92,226.92 0 0,1 661.0190360993154,592.3538753422367 L 657.0465978381492,536.2221087741368 A 170.6478445073015,170.6478445073015 0 0 0 730.775129193621,513.523943977938 Z "/><path class="wedge" fill="rgb(226,194,168)" d=" M 657.6676957278498,543.2583244186758 L 661.1754945892784,592.3427484475529 A 226.92,226.92 0 0,1 661.0190360993154,592.3538753422367 L 657.5451666432551,543.2670383479762 A 177.71039387376834,177.71039387376834 0 0 0 657.6676957278498,543.2583244186758 Z "/><path class="wedge" fill="rgb(229,200,178)" d=" M 734.325077838411,519.6294716515413 L 759.0599951485684,562.1708538664919 A 226.92,226.92 0 0,1 661.1868571962408,592.3419361366967 L 657.6765942531395,543.257688264603 A 177.71039387376834,177.71039387376834 0 0 0 734.325077838411,519.6294716515413 Z "/><path class="wedge" fill="rgb(229,200,178)" d=" M 661.272394648419,548.8822395283704 L 665.1113085906263,592.0270374684687 A 226.92,226.92 0 0,1 661.1868571962408,592.3419361366967 L 658.0970556802852,549.1370292841228 A 183.6047503811003,183.6047503811003 0 0 0 661.272394648419,548.8822395283704 Z "/><path class="wedge" fill="rgb(229,200,178)" d=" M 737.2878412556073,524.7251042490947 L 759.0599951485684,562.1708538664919 A 226.92,226.92 0 0,1 669.1752165205429,591.6285560521648 L 664.5605702215024,548.5598215794369 A 183.6047503811003,183.6047503811003 0 0 0 737.2878412556073,524.7251042490947 Z "/><path class="wedge" fill="rgb(229,200,178)" d=" M 722.772453241992,537.8158412546122 L 738.5753141873093,572.7277121596095 A 226.92,226.92 0 0,1 669.1752165205429,591.6285560521648 L 665.09254163652,553.5247385277277 A 188.59808532778885,188.59808532778885 0 0 0 722.772453241992,537.8158412546122 Z "/><path class="wedge" fill="rgb(229,201,178)" d=" M 739.7977115173493,529.0418096083988 L 759.0599951485684,562.1708538664919 A 226.92,226.92 0 0,1 738.5753141873093,572.7277121596095 L 722.772453241992,537.8158412546122 A 188.59808532778885,188.59808532778885 0 0 0 739.7977115173493,529.0418096083988 Z "/><path class="wedge" fill="url(#hiddenPattern)" d=" M 739.7977115173493,529.0418096083988 L 759.0599951485684,562.1708538664919 A 226.92,226.92 0 0,1 738.5753141873093,572.7277121596095 L 722.772453241992,537.8158412546122 A 188.59808532778885,188.59808532778885 0 0 0 739.7977115173493,529.0418096083988 Z "/><path class="wedge" fill="rgb(229,202,178)" d=" M 664.5605702215024,548.5598215794369 L 669.1752165205429,591.6285560521648 A 226.92,226.92 0 0,1 665.1113085906263,592.0270374684687 L 661.272394648419,548.8822395283704 A 183.6047503811003,183.6047503811003 0 0 0 664.5605702215024,548.5598215794369 Z "/><path class="wedge" fill="url(#hiddenPattern)" d=" M 664.5605702215024,548.5598215794369 L 669.1752165205429,591.6285560521648 A 226.92,226.92 0 0,1 665.1113085906263,592.0270374684687 L 661.272394648419,548.8822395283704 A 183.6047503811003,183.6047503811003 0 0 0 664.5605702215024,548.5598215794369 Z "/><path class="wedge" fill="rgb(226,196,168)" d=" M 657.6765942531395,543.257688264603 L 661.1868571962408,592.3419361366967 A 226.92,226.92 0 0,1 661.1754945892784,592.3427484475529 L 657.6676957278498,543.2583244186758 A 177.71039387376834,177.71039387376834 0 0 0 657.6765942531395,543.257688264603 Z "/><path class="wedge" fill="url(#hiddenPattern)" d=" M 657.6765942531395,543.257688264603 L 661.1868571962408,592.3419361366967 A 226.92,226.92 0 0,1 661.1754945892784,592.3427484475529 L 657.6676957278498,543.2583244186758 A 177.71039387376834,177.71039387376834 0 0 0 657.6765942531395,543.257688264603 Z "/><path class="wedge" fill="rgb(223,189,159)" d=" M 657.0465978381492,536.2221087741368 L 661.0190360993154,592.3538753422367 A 226.92,226.92 0 0,1 660.6527710669474,592.3794980954011 L 656.7711600702486,536.2413775366869 A 170.6478445073015,170.6478445073015 0 0 0 657.0465978381492,536.2221087741368 Z "/><path class="wedge" fill="url(#hiddenPattern)" d=" M 657.0465978381492,536.2221087741368 L 661.0190360993154,592.3538753422367 A 226.92,226.92 0 0,1 660.6527710669474,592.3794980954011 L 656.7711600702486,536.2413775366869 A 170.6478445073015,170.6478445073015 0 0 0 657.0465978381492,536.2221087741368 Z "/><path class="wedge" fill="rgb(216,177,140)" d=" M 649.2427892793818,517.2351339566259 L 651.3635682412742,592.8307549677482 A 226.92,226.92 0 0,1 651.2829820283503,592.833001427992 L 649.1890599396,517.2366317416856 A 151.29463640112232,151.29463640112232 0 0 0 649.2427892793818,517.2351339566259 Z "/><path class="wedge" fill="url(#hiddenPattern)" d=" M 649.2427892793818,517.2351339566259 L 651.3635682412742,592.8307549677482 A 226.92,226.92 0 0,1 651.2829820283503,592.833001427992 L 649.1890599396,517.2366317416856 A 151.29463640112232,151.29463640112232 0 0 0 649.2427892793818,517.2351339566259 Z "/><path class="wedge" fill="rgb(213,171,130)" d=" M 648.059617433597,503.5082548453061 L 650.0478175868603,592.8638488997526 A 226.92,226.92 0 0,1 649.8489499289409,592.8681865854854 L 647.9390784199186,503.5108840328037 A 137.5422895310443,137.5422895310443 0 0 0 648.059617433597,503.5082548453061 Z "/><path class="wedge" fill="url(#hiddenPattern)" d=" M 648.059617433597,503.5082548453061 L 650.0478175868603,592.8638488997526 A 226.92,226.92 0 0,1 649.8489499289409,592.8681865854854 L 647.9390784199186,503.5108840328037 A 137.5422895310443,137.5422895310443 0 0 0 648.059617433597,503.5082548453061 Z "/><path class="wedge" fill="rgb(210,165,121)" d=" M 647.4611198712856,485.28846413133385 L 649.6807417705973,592.8717193844949 A 226.92,226.92 0 0,1 649.1594557651333,592.8818752737598 L 647.1870292656621,485.2938040672042 A 119.31384993299544,119.31384993299544 0 0 0 647.4611198712856,485.28846413133385 Z "/><path class="wedge" fill="url(#hiddenPattern)" d=" M 647.4611198712856,485.28846413133385 L 649.6807417705973,592.8717193844949 A 226.92,226.92 0 0,1 649.1594557651333,592.8818752737598 L 647.1870292656621,485.2938040672042 A 119.31384993299544,119.31384993299544 0 0 0 647.4611198712856,485.28846413133385 Z "/><path class="wedge" fill="rgb(207,159,111)" d=" M 646.471668738273,460.02193205932724 L 648.5514072269045,592.8922076817728 A 226.92,226.92 0 0,1 648.54615020561,592.8922899058477 L 646.4694902795942,460.0219661321871 A 94.03344892666632,94.03344892666632 0 0 0 646.471668738273,460.02193205932724 Z "/><path class="wedge" fill="url(#hiddenPattern)" d=" M 646.471668738273,460.02193205932724 L 648.5514072269045,592.8922076817728 A 226.92,226.92 0 0,1 648.54615020561,592.8922899058477 L 646.4694902795942,460.0219661321871 A 94.03344892666632,94.03344892666632 0 0 0 646.471668738273,460.02193205932724 Z "/><path class="wedge" fill="rgb(101,204,204)" d=" M 645.8865375514025,422.72307247646194 L 648.54615020561,592.8922899058477 A 226.92,226.92 0 0,1 646.8480485652931,592.9124745722463 L 645.4620121413233,422.7281186430616 A 56.73,56.73 0 0 0 645.8865375514025,422.72307247646194 Z "/><path class="wedge" fill="url(#hiddenPattern)" d=" M 645.8865375514025,422.72307247646194 L 648.54615020561,592.8922899058477 A 226.92,226.92 0 0,1 646.8480485652931,592.9124745722463 L 645.4620121413233,422.7281186430616 A 56.73,56.73 0 0 0 645.8865375514025,422.72307247646194 Z "/><rect fill="rgb(101,204,204)" x="1407.02" y="669.6866666666667" width="22" height="22"/><rect fill="url(#hiddenPattern)" style="stroke:none" x="1407.02" y="669.6866666666667" width="22" height="22"/><path class="line" d="M 647.697118267743,592.9039707740916 L 648.7991665921971,685.6174211979139 A 319.64,319.64 0 0,0 701.0538261158164,680.6866666666667 L 987.82,680.6866666666667 L 1323.4601041666667,680.6866666666667"/><text x="1399.6866666666667" y="680.6866666666667" style="font-color:black;font-weight:normal" text-anchor="end">Viruses&#160;&#160;&#160;0.1%</text><circle cx="645" cy="366" r="56.73"/><circle cx="645" cy="366" r="226.92"/><text x="645" y="366" text-anchor="middle" style="font-color:black;font-weight:bold" transform="rotate(360,645,366)">root</text><rect fill="rgb(220,220,220)" x="1407.02" y="699.02" width="22" height="22"/><path class="line" d="M 645.9240319436774,592.9181186352625 L 646.4008818298676,710.02 L 976.82,710.02 L 1306.7506315104167,710.02"/><text x="1399.6866666666667" y="710.02" style="font-color:black;font-weight:normal" text-anchor="end">[other root]&#160;&#160;&#160;0.1%</text><path class="line" d=" M 645.8865375514025,422.72307247646194 A 56.73,56.73 0 1 0 645,422.73"/><line x1="648.54615020561" y1="592.8922899058477" x2="645.8865375514025" y2="422.72307247646194"/><text x="645" y="298.0789653220001" text-anchor="middle" style="font-color:black;font-weight:normal" transform="rotate(359.55229219316965,645,366)">cellular organisms</text><path class="line" d=" M 646.471668738273,460.02193205932724 A 94.03344892666632,94.03344892666632 0 1 0 645,460.0334489266663"/><line x1="648.5514072269045" y1="592.8922076817728" x2="646.471668738273" y2="460.02193205932724"/><text x="645" y="259.3263505701691" text-anchor="middle" style="font-color:black;font-weight:normal" transform="rotate(359.55162843066876,645,366)">Bacteria</text><path class="line" d=" M 647.4611198712856,485.28846413133385 A 119.31384993299544,119.31384993299544 0 1 0 645,485.3138499329954"/><line x1="649.6807417705973" y1="592.8717193844949" x2="647.4611198712856" y2="485.28846413133385"/><text x="645" y="237.57193026798012" text-anchor="middle" style="font-color:black;font-weight:normal" transform="rotate(359.4090301200673,645,366)">Terrabacteria group</text><path class="line" d=" M 648.059617433597,503.5082548453061 A 137.5422895310443,137.5422895310443 0 1 0 645,503.5422895310443"/><line x1="650.0478175868603" y1="592.8638488997526" x2="648.059617433597" y2="503.5082548453061"/><text x="645" y="221.5815370339167" text-anchor="middle" style="font-color:black;font-weight:normal" transform="rotate(359.3626773720905,645,366)">Firmicutes</text><path class="line" d=" M 649.2427892793818,517.2351339566259 A 151.29463640112232,151.29463640112232 0 1 0 645,517.2946364011223"/><line x1="651.3635682412742" y1="592.8307549677482" x2="649.2427892793818" y2="517.2351339566259"/><path class="line" d=" M 726.4450292025657,506.0766403771781 A 162.03320018182714,162.03320018182714 0 1 0 645,528.0332001818272"/><line x1="759.0599951485684" y1="562.1708538664919" x2="726.4450292025657" y2="506.0766403771781"/><path class="line" d=" M 732.9757790258337,512.22225938545 A 170.6478445073015,170.6478445073015 0 1 0 645,536.6478445073014"/><line x1="761.9863225297757" y1="560.4399309323044" x2="732.9757790258337" y2="512.22225938545"/><path class="line" d=" M 737.1883036408094,517.9286041619544 A 177.71039387376834,177.71039387376834 0 1 0 645,543.7103938737683"/><line x1="762.7160739232393" y1="559.9990008739696" x2="737.1883036408094" y2="517.9286041619544"/><path class="line" d=" M 743.6663737211338,520.8407280376442 A 183.6047503811003,183.6047503811003 0 1 0 645,549.6047503811003"/><line x1="766.9433237883391" y1="557.370092186455" x2="743.6663737211338" y2="520.8407280376442"/><text x="439.7376248094498" y="366" text-anchor="end" style="font-color:black;font-weight:normal" transform="rotate(73.74711140393146,645,366)">Enterococcus faecalis&#160;&#160;&#160;91%</text><path class="line" d=" M 535.3305529758941,519.4335366819612 A 188.59808532778885,188.59808532778885 0 0 0 645,554.5980853277888"/><line x1="513.0464285973147" y1="550.6102418450191" x2="535.3305529758941" y2="519.4335366819612"/><text x="437.24095733610557" y="366" text-anchor="end" style="font-color:black;font-weight:normal" transform="rotate(-72.22200643112112,645,366)">Enterococcus faecalis V583&#160;&#160;&#160;10%</text><path class="line" d=" M 493.4059866259148,478.1984531909669 A 188.59808532778885,188.59808532778885 0 0 0 535.3305529758941,519.4335366819612"/><line x1="462.60306073595746" y1="500.9964553131273" x2="493.4059866259148" y2="478.1984531909669"/><text x="437.24095733610557" y="366" text-anchor="end" style="font-color:black;font-weight:normal" transform="rotate(-45.47503269644911,645,366)">Enterococcus faecalis str. Symbioflor 1&#160;&#160;&#160;5%</text><path class="line" d=" M 469.0985988991366,434.0289267889851 A 188.59808532778885,188.59808532778885 0 0 0 493.4059866259148,478.1984531909669"/><line x1="433.35656858109894" y1="447.8519659949163" x2="469.0985988991366" y2="434.0289267889851"/><text x="437.24095733610557" y="366" text-anchor="end" style="font-color:black;font-weight:normal" transform="rotate(-28.824882243615587,645,366)">Enterococcus faecalis D32&#160;&#160;&#160;4%</text><path class="line" d=" M 457.3879571642816,385.2603004212423 A 188.59808532778885,188.59808532778885 0 0 0 469.0985988991366,434.0289267889851"/><line x1="419.2663999674851" y1="389.1738692574326" x2="457.3879571642816" y2="385.2603004212423"/><text x="437.24095733610557" y="366" text-anchor="end" style="font-color:black;font-weight:normal" transform="rotate(-13.502588673753365,645,366)">Enterococcus faecalis OG1RF&#160;&#160;&#160;4%</text><path class="line" d=" M 743.3875763731577,521.0180285577204 A 183.6047503811003,183.6047503811003 0 0 0 743.6663737211338,520.8407280376442"/><line x1="766.5987537591245" y1="557.5892206890246" x2="743.3875763731577" y2="521.0180285577204"/><path class="line" d=" M 737.1619012179942,517.9446216707079 A 177.71039387376834,177.71039387376834 0 0 0 737.1883036408094,517.9286041619544"/><line x1="762.6823604321224" y1="560.0194537749346" x2="737.1619012179942" y2="517.9446216707079"/><path class="line" d=" M 731.7349207700773,512.961696894111 A 170.6478445073015,170.6478445073015 0 0 0 732.9757790258337,512.22225938545"/><line x1="760.3362837835541" y1="561.4232024172142" x2="731.7349207700773" y2="512.961696894111"/><path class="line" d=" M 656.1013966327617,527.6524573087777 A 162.03320018182714,162.03320018182714 0 0 0 726.4450292025657,506.0766403771781"/><line x1="660.5469923514405" y1="592.3867872222763" x2="656.1013966327617" y2="527.6524573087777"/><path class="line" d=" M 657.0465978381492,536.2221087741368 A 170.6478445073015,170.6478445073015 0 0 0 730.775129193621,513.523943977938"/><line x1="661.0190360993154" y1="592.3538753422367" x2="657.0465978381492" y2="536.2221087741368"/><path class="line" d=" M 657.6765942531395,543.257688264603 A 177.71039387376834,177.71039387376834 0 0 0 734.325077838411,519.6294716515413"/><line x1="661.1868571962408" y1="592.3419361366967" x2="657.6765942531395" y2="543.257688264603"/><path class="line" d=" M 664.5605702215024,548.5598215794369 A 183.6047503811003,183.6047503811003 0 0 0 737.2878412556073,524.7251042490947"/><line x1="669.1752165205429" y1="591.6285560521648" x2="664.5605702215024" y2="548.5598215794369"/><text x="850.2623751905502" y="366" text-anchor="start" style="font-color:black;font-weight:normal" transform="rotate(431.8546138868949,645,366)">7%&#160;&#160;&#160;Staphylococcus epidermidis</text><line x1="863.67" y1="366" x2="880.17" y2="366" class="tick" transform="rotate(422.73551276882387,645,366)"/><text x="882.92" y="366" text-anchor="start" style="font-color:black;font-weight:normal" transform="rotate(422.73551276882387,645,366)">2 more</text><path class="line" d=" M 722.772453241992,537.8158412546122 A 188.59808532778885,188.59808532778885 0 0 0 739.7977115173493,529.0418096083988"/><line x1="738.5753141873093" y1="572.7277121596095" x2="722.772453241992" y2="537.8158412546122"/><path class="line" d=" M 661.272394648419,548.8822395283704 A 183.6047503811003,183.6047503811003 0 0 0 664.5605702215024,548.5598215794369"/><line x1="665.1113085906263" y1="592.0270374684687" x2="661.272394648419" y2="548.8822395283704"/><path class="line" d=" M 657.6676957278498,543.2583244186758 A 177.71039387376834,177.71039387376834 0 0 0 657.6765942531395,543.257688264603"/><line x1="661.1754945892784" y1="592.3427484475529" x2="657.6676957278498" y2="543.2583244186758"/><path class="line" d=" M 656.7711600702486,536.2413775366869 A 170.6478445073015,170.6478445073015 0 0 0 657.0465978381492,536.2221087741368"/><line x1="660.6527710669474" y1="592.3794980954011" x2="656.7711600702486" y2="536.2413775366869"/><path class="line" d=" M 649.1890599396,517.2366317416856 A 151.29463640112232,151.29463640112232 0 0 0 649.2427892793818,517.2351339566259"/><line x1="651.2829820283503" y1="592.833001427992" x2="649.1890599396" y2="517.2366317416856"/><path class="line" d=" M 647.9390784199186,503.5108840328037 A 137.5422895310443,137.5422895310443 0 0 0 648.059617433597,503.5082548453061"/><line x1="649.8489499289409" y1="592.8681865854854" x2="647.9390784199186" y2="503.5108840328037"/><path class="line" d=" M 647.1870292656621,485.2938040672042 A 119.31384993299544,119.31384993299544 0 0 0 647.4611198712856,485.28846413133385"/><line x1="649.1594557651333" y1="592.8818752737598" x2="647.1870292656621" y2="485.2938040672042"/><path class="line" d=" M 646.4694902795942,460.0219661321871 A 94.03344892666632,94.03344892666632 0 0 0 646.471668738273,460.02193205932724"/><path class="line" d=" M 645.4620121413233,422.7281186430616 A 56.73,56.73 0 0 0 645.8865375514025,422.72307247646194"/><line x1="646.8480485652931" y1="592.9124745722463" x2="645.4620121413233" y2="422.7281186430616"/></svg>