<?xml version="1.0" standalone="no"?><!DOCTYPE svg PUBLIC "-//W3C//DTD SVG 1.1//EN" 	"http://www.w3.org/Graphics/SVG/1.1/DTD/svg11.dtd"><svg width="1440" height="789" version="1.1"	xmlns="http://www.w3.org/2000/svg"><title>Krona (snapshot) - root</title><defs>	<style type="text/css">	text {font-size: 11px; font-family: sans-serif; dominant-baseline:central}	path {stroke-width:0.27499999999999997;}	path.wedge {stroke:none}	path.line {fill:none;stroke:black;}	line {stroke:black;stroke-width:0.27499999999999997;}	line.tick {stroke-width:0.5499999999999999;}	line.pattern {stroke-width:0.18333333333333332;}	circle {fill:none;stroke:black;stroke-width:0.27499999999999997;}	rect {stroke:black;stroke-width:0.27499999999999997;}	.highlight {stroke:black;stroke-width:1.375;}	.searchHighlight {fill:rgb(255, 255, 100);stroke:none;}	</style><pattern id="hiddenPattern" patternUnits="userSpaceOnUse" x="0" y="0" width="6.6" height="6.6"><line class="pattern" x1="0" y1="0" x2="3.3" y2="3.3"/><line class="pattern" x1="3.3" y1="6.6" x2="6.6" y2="3.3"/></pattern></defs><path class="wedge" fill="rgb(220,220,220)" d=" M 645.5573269110832,455.644960078196 L 647.229307644333,639.079840312784 A 244.59,244.59 0 0,1 645.0000000000001,639.09 L 645,455.6475 A 61.1475,61.1475 0 0 0 645.5573269110832,455.644960078196 Z "/><path class="wedge" fill="rgb(207,111,111)" d=" M 645,455.6475 L 645,639.09 A 244.59,244.59 0 1,1 648.2334595483113,639.0686260323458 L 645.8083648870778,455.6421565080865 A 61.1475,61.1475 0 1 0 645,455.6475 Z "/><path class="wedge" fill="rgb(207,111,111)" d=" M 646.3415131512434,495.8468473711652 L 648.2373178667258,639.0685749907984 A 244.59,244.59 0 0,1 648.2334595483113,639.0686260323458 L 646.3399143014832,495.8468685222878 A 101.35572568734936,101.35572568734936 0 0 0 646.3415131512434,495.8468473711652 Z "/><path class="wedge" fill="rgb(210,121,121)" d=" M 645,495.8557256873494 L 645,639.09 A 244.59,244.59 0 1,1 648.2922988161254,639.067841034968 L 646.3642967238562,495.8465432269818 A 101.35572568734936,101.35572568734936 0 1 0 645,495.8557256873494 Z "/><path class="wedge" fill="rgb(210,121,121)" d=" M 647.1378229398841,523.0869125397684 L 649.0658714959825,639.0562037425716 A 244.59,244.59 0 0,1 648.2922988161254,639.067841034968 L 646.731080763625,523.0930313929264 A 128.6046825097451,128.6046825097451 0 0 0 647.1378229398841,523.0869125397684 Z "/><path class="wedge" fill="rgb(213,130,130)" d=" M 645,523.1046825097451 L 645,639.09 A 244.59,244.59 0 1,1 650.78069307669,639.0216793815082 L 648.0394709424506,523.0687597351018 A 128.6046825097451,128.6046825097451 0 1 0 645,523.1046825097451 Z "/><path class="wedge" fill="rgb(213,130,130)" d=" M 648.6552282911911,542.707482344278 L 651.0304682048343,639.0156468474573 A 244.59,244.59 0 0,1 650.78069307669,639.0216793815082 L 648.5038328963697,542.7111388247338 A 148.2525497814125,148.2525497814125 0 0 0 648.6552282911911,542.707482344278 Z "/><path class="wedge" fill="rgb(216,140,140)" d=" M 645,542.7525497814125 L 645,639.09 A 244.59,244.59 0 1,1 884.95569003538,347.11292455062653 L 790.4435703925074,365.7774244161503 A 148.2525497814125,148.2525497814125 0 1 0 645,542.7525497814125 Z "/><path class="wedge" fill="rgb(216,140,140)" d=" M 804.2055506915813,359.1828457202691 L 883.7852234705238,341.5293935079836 A 244.59,244.59 0 0,1 884.95569003538,347.11292455062653 L 804.9859372302276,362.90555988795387 A 163.07577612088187,163.07577612088187 0 0 0 804.2055506915813,359.1828457202691 Z "/><path class="wedge" fill="rgb(219,149,149)" d=" M 645,557.5757761208819 L 645,639.09 A 244.59,244.59 0 1,1 881.4619044271869,331.9697204974429 L 802.6565214746527,352.80911377842443 A 163.07577612088187,163.07577612088187 0 1 0 645,557.5757761208819 Z "/><path class="wedge" fill="rgb(219,149,149)" d=" M 812.5709278133295,345.27810331285764 L 879.6753313316676,325.5670110587679 A 244.59,244.59 0 0,1 881.4619044271869,331.9697204974429 L 813.8466380020557,349.8499854747777 A 174.65053954024813,174.65053954024813 0 0 0 812.5709278133295,345.27810331285764 Z "/><path class="wedge" fill="rgb(223,159,159)" d=" M 645,569.1505395402481 L 645,639.09 A 244.59,244.59 0 1,1 797.730745812945,203.45658246508052 L 754.0580447304278,258.08462754778776 A 174.65053954024813,174.65053954024813 0 1 0 645,569.1505395402481 Z "/><path class="wedge" fill="rgb(223,159,159)" d=" M 758.9740949749187,250.13117919053516 L 796.5577398963392,202.52469018773897 A 244.59,244.59 0 0,1 797.730745812945,203.45658246508052 L 759.8562161245004,250.8319786284046 A 183.93599633368976,183.93599633368976 0 0 0 758.9740949749187,250.13117919053516 Z "/><path class="wedge" fill="rgb(226,168,168)" d=" M 645,578.4359963336898 L 645,639.09 A 244.59,244.59 0 1,1 788.3072724340267,196.28977380690054 L 752.7695978454402,245.4424120431998 A 183.93599633368976,183.93599633368976 0 1 0 645,578.4359963336898 Z "/><path class="wedge" fill="rgb(226,168,168)" d=" M 756.8529831518742,239.0016483474324 L 787.8260800257551,195.94275645427442 A 244.59,244.59 0 0,1 788.3072724340267,196.28977380690054 L 757.2298247365869,239.273411922332 A 191.54849831475852,191.54849831475852 0 0 0 756.8529831518742,239.0016483474324 Z "/><path class="wedge" fill="rgb(229,178,178)" d=" M 645,586.0484983147585 L 645,639.09 A 244.59,244.59 0 1,1 787.8112005230614,195.93205418506756 L 756.8413304007533,238.99326695982398 A 191.54849831475852,191.54849831475852 0 1 0 645,586.0484983147585 Z "/><path class="wedge" fill="rgb(229,178,178)" d=" M 758.4232457159901,232.3263084232068 L 785.1815740848167,194.06698279199844 A 244.59,244.59 0 0,1 787.8112005230614,195.93205418506756 L 760.5509202523442,233.83536874211825 A 197.90184159930075,197.90184159930075 0 0 0 758.4232457159901,232.3263084232068 Z "/><path class="wedge" fill="rgb(229,178,178)" d=" M 645,592.4018415993007 L 645,639.09 A 244.59,244.59 0 1,1 784.9609373410415,193.9128515616789 L 758.2447248528413,232.2015982783595 A 197.90184159930075,197.90184159930075 0 1 0 645,592.4018415993007 Z "/><path class="wedge" fill="rgb(229,178,178)" d=" M 469.35004065494826,496.8302358701998 L 433.6591016801473,517.6230798727747 A 244.59,244.59 0 0,1 784.9609373410415,193.9128515616789 L 761.3245408214483,227.78771312873113 A 203.28400180823144,203.28400180823144 0 0 0 469.35004065494826,496.8302358701998 Z "/><path class="wedge" fill="rgb(229,178,178)" d=" M 645,597.7840018082314 L 645,639.09 A 244.59,244.59 0 0,1 542.6092024894626,616.6269742403118 L 559.9008092469916,579.1144986840203 A 203.28400180823144,203.28400180823144 0 0 0 645,597.7840018082314 Z "/><path class="wedge" fill="rgb(229,180,178)" d=" M 559.9008092469916,579.1144986840203 L 542.6092024894626,616.6269742403118 A 244.59,244.59 0 0,1 495.6577960115101,588.2038311646423 L 520.8784869960282,555.4914140591786 A 203.28400180823144,203.28400180823144 0 0 0 559.9008092469916,579.1144986840203 Z "/><path class="wedge" fill="rgb(229,180,178)" d=" M 520.8784869960282,555.4914140591786 L 495.6577960115101,588.2038311646423 A 244.59,244.59 0 0,1 461.0897065385166,555.7490994049613 L 492.1482054516679,528.5175894967654 A 203.28400180823144,203.28400180823144 0 0 0 520.8784869960282,555.4914140591786 Z "/><path class="wedge" fill="rgb(229,181,178)" d=" M 492.1482054516679,528.5175894967654 L 461.0897065385166,555.7490994049613 A 244.59,244.59 0 0,1 433.6591016801473,517.6230798727747 L 469.35004065494826,496.8302358701998 A 203.28400180823144,203.28400180823144 0 0 0 492.1482054516679,528.5175894967654 Z "/><path class="wedge" fill="rgb(229,192,178)" d=" M 758.2447248528413,232.2015982783595 L 784.9609373410415,193.9128515616789 A 244.59,244.59 0 0,1 785.1815740848167,194.06698279199844 L 758.4232457159901,232.3263084232068 A 197.90184159930075,197.90184159930075 0 0 0 758.2447248528413,232.2015982783595 Z "/><path class="wedge" fill="url(#hiddenPattern)" d=" M 758.2447248528413,232.2015982783595 L 784.9609373410415,193.9128515616789 A 244.59,244.59 0 0,1 785.1815740848167,194.06698279199844 L 758.4232457159901,232.3263084232068 A 197.90184159930075,197.90184159930075 0 0 0 758.2447248528413,232.2015982783595 Z "/><path class="wedge" fill="rgb(226,185,168)" d=" M 756.8413304007533,238.99326695982398 L 787.8112005230614,195.93205418506756 A 244.59,244.59 0 0,1 787.8260800257551,195.94275645427442 L 756.8529831518742,239.0016483474324 A 191.54849831475852,191.54849831475852 0 0 0 756.8413304007533,238.99326695982398 Z "/><path class="wedge" fill="url(#hiddenPattern)" d=" M 756.8413304007533,238.99326695982398 L 787.8112005230614,195.93205418506756 A 244.59,244.59 0 0,1 787.8260800257551,195.94275645427442 L 756.8529831518742,239.0016483474324 A 191.54849831475852,191.54849831475852 0 0 0 756.8413304007533,238.99326695982398 Z "/><path class="wedge" fill="rgb(223,177,159)" d=" M 752.7695978454402,245.4424120431998 L 788.3072724340267,196.28977380690054 A 244.59,244.59 0 0,1 796.5577398963392,202.52469018773897 L 758.9740949749187,250.13117919053516 A 183.93599633368976,183.93599633368976 0 0 0 752.7695978454402,245.4424120431998 Z "/><path class="wedge" fill="url(#hiddenPattern)" d=" M 752.7695978454402,245.4424120431998 L 788.3072724340267,196.28977380690054 A 244.59,244.59 0 0,1 796.5577398963392,202.52469018773897 L 758.9740949749187,250.13117919053516 A 183.93599633368976,183.93599633368976 0 0 0 752.7695978454402,245.4424120431998 Z "/><path class="wedge" fill="rgb(223,178,159)" d=" M 754.0580447304278,258.08462754778776 L 797.730745812945,203.45658246508052 A 244.59,244.59 0 0,1 879.6753313316676,325.5670110587679 L 812.5709278133295,345.27810331285764 A 174.65053954024813,174.65053954024813 0 0 0 754.0580447304278,258.08462754778776 Z "/><path class="wedge" fill="rgb(223,178,159)" d=" M 821.4640348797835,342.6068873431774 L 879.654114211253,325.49482060212995 A 244.59,244.59 0 0,1 879.6753313316676,325.5670110587679 L 821.4799905287585,342.66117584053006 A 183.93599633368976,183.93599633368976 0 0 0 821.4640348797835,342.6068873431774 Z "/><path class="wedge" fill="rgb(226,185,168)" d=" M 759.8562161245004,250.8319786284046 L 797.730745812945,203.45658246508052 A 244.59,244.59 0 0,1 879.5496105128382,325.1404418390953 L 821.3854462543757,342.34038825957515 A 183.93599633368976,183.93599633368976 0 0 0 759.8562161245004,250.8319786284046 Z "/><path class="wedge" fill="rgb(226,185,168)" d=" M 828.6365368747428,340.0165205654935 L 879.4871452888474,324.92955516681707 A 244.59,244.59 0 0,1 879.5496105128382,325.1404418390953 L 828.6854559632268,340.18167460036614 A 191.54849831475852,191.54849831475852 0 0 0 828.6365368747428,340.0165205654935 Z "/><path class="wedge" fill="rgb(229,193,178)" d=" M 764.6097346864659,244.88603482671724 L 797.730745812945,203.45658246508052 A 244.59,244.59 0 0,1 879.48302908654,324.91568301405243 L 828.6333133072594,340.00565671157284 A 191.54849831475852,191.54849831475852 0 0 0 764.6097346864659,244.88603482671724 Z "/><path class="wedge" fill="rgb(229,193,178)" d=" M 833.3998283210602,333.914163396139 L 877.8463122761104,319.621011228676 A 244.59,244.59 0 0,1 879.48302908654,324.91568301405243 L 834.7241231448901,338.19817049777777 A 197.90184159930075,197.90184159930075 0 0 0 833.3998283210602,333.914163396139 Z "/><path class="wedge" fill="rgb(229,193,178)" d=" M 768.5769895139479,239.92358986228092 L 797.730745812945,203.45658246508052 A 244.59,244.59 0 0,1 852.1733198247947,264.4866020258938 L 812.6273826549237,289.30399488262634 A 197.90184159930075,197.90184159930075 0 0 0 768.5769895139479,239.92358986228092 Z "/><path class="wedge" fill="rgb(229,193,178)" d=" M 784.7712595880238,246.8911236261643 L 813.1718781534261,216.8979518745653 A 244.59,244.59 0 0,1 852.1733198247947,264.4866020258938 L 817.1861953550058,286.44307277949827 A 203.28400180823144,203.28400180823144 0 0 0 784.7712595880238,246.8911236261643 Z "/><path class="wedge" fill="rgb(229,193,178)" d=" M 771.9378028865091,235.71971284345523 L 797.730745812945,203.45658246508052 A 244.59,244.59 0 0,1 813.1718781534261,216.8979518745653 L 784.7712595880238,246.8911236261643 A 203.28400180823144,203.28400180823144 0 0 0 771.9378028865091,235.71971284345523 Z "/><path class="wedge" fill="url(#hiddenPattern)" d=" M 771.9378028865091,235.71971284345523 L 797.730745812945,203.45658246508052 A 244.59,244.59 0 0,1 813.1718781534261,216.8979518745653 L 784.7712595880238,246.8911236261643 A 203.28400180823144,203.28400180823144 0 0 0 771.9378028865091,235.71971284345523 Z "/><path class="wedge" fill="rgb(229,194,178)" d=" M 812.6273826549237,289.30399488262634 L 852.1733198247947,264.4866020258938 A 244.59,244.59 0 0,1 877.149602650732,317.4881172213843 L 832.8361089624505,332.188403340621 A 197.90184159930075,197.90184159930075 0 0 0 812.6273826549237,289.30399488262634 Z "/><path class="wedge" fill="rgb(229,194,178)" d=" M 821.7906559493742,294.1533540163946 L 857.7133771178372,273.7635626866324 A 244.59,244.59 0 0,1 877.149602650732,317.4881172213843 L 837.9445204016174,330.49377031757876 A 203.28400180823144,203.28400180823144 0 0 0 821.7906559493742,294.1533540163946 Z "/><path class="wedge" fill="rgb(229,194,178)" d=" M 817.1861953550058,286.44307277949827 L 852.1733198247947,264.4866020258938 A 244.59,244.59 0 0,1 857.7133771178372,273.7635626866324 L 821.7906559493742,294.1533540163946 A 203.28400180823144,203.28400180823144 0 0 0 817.1861953550058,286.44307277949827 Z "/><path class="wedge" fill="url(#hiddenPattern)" d=" M 817.1861953550058,286.44307277949827 L 852.1733198247947,264.4866020258938 A 244.59,244.59 0 0,1 857.7133771178372,273.7635626866324 L 821.7906559493742,294.1533540163946 A 203.28400180823144,203.28400180823144 0 0 0 817.1861953550058,286.44307277949827 Z "/><path class="wedge" fill="rgb(229,195,178)" d=" M 832.8361089624505,332.188403340621 L 877.149602650732,317.4881172213843 A 244.59,244.59 0 0,1 877.8463122761104,319.621011228676 L 833.3998283210602,333.914163396139 A 197.90184159930075,197.90184159930075 0 0 0 832.8361089624505,332.188403340621 Z "/><path class="wedge" fill="url(#hiddenPattern)" d=" M 832.8361089624505,332.188403340621 L 877.149602650732,317.4881172213843 A 244.59,244.59 0 0,1 877.8463122761104,319.621011228676 L 833.3998283210602,333.914163396139 A 197.90184159930075,197.90184159930075 0 0 0 832.8361089624505,332.188403340621 Z "/><path class="wedge" fill="rgb(226,188,168)" d=" M 828.6333133072594,340.00565671157284 L 879.48302908654,324.91568301405243 A 244.59,244.59 0 0,1 879.4871452888474,324.92955516681707 L 828.6365368747428,340.0165205654935 A 191.54849831475852,191.54849831475852 0 0 0 828.6333133072594,340.00565671157284 Z "/><path class="wedge" fill="url(#hiddenPattern)" d=" M 828.6333133072594,340.00565671157284 L 879.48302908654,324.91568301405243 A 244.59,244.59 0 0,1 879.4871452888474,324.92955516681707 L 828.6365368747428,340.0165205654935 A 191.54849831475852,191.54849831475852 0 0 0 828.6333133072594,340.00565671157284 Z "/><path class="wedge" fill="rgb(223,180,159)" d=" M 821.3854462543757,342.34038825957515 L 879.5496105128382,325.1404418390953 A 244.59,244.59 0 0,1 879.654114211253,325.49482060212995 L 821.4640348797835,342.6068873431774 A 183.93599633368976,183.93599633368976 0 0 0 821.3854462543757,342.34038825957515 Z "/><path class="wedge" fill="url(#hiddenPattern)" d=" M 821.3854462543757,342.34038825957515 L 879.5496105128382,325.1404418390953 A 244.59,244.59 0 0,1 879.654114211253,325.49482060212995 L 821.4640348797835,342.6068873431774 A 183.93599633368976,183.93599633368976 0 0 0 821.3854462543757,342.34038825957515 Z "/><path class="wedge" fill="rgb(216,166,140)" d=" M 802.6565214746527,352.80911377842443 L 881.4619044271869,331.9697204974429 A 244.59,244.59 0 0,1 883.7852234705238,341.5293935079836 L 804.2055506915813,359.1828457202691 A 163.07577612088187,163.07577612088187 0 0 0 802.6565214746527,352.80911377842443 Z "/><path class="wedge" fill="url(#hiddenPattern)" d=" M 802.6565214746527,352.80911377842443 L 881.4619044271869,331.9697204974429 A 244.59,244.59 0 0,1 883.7852234705238,341.5293935079836 L 804.2055506915813,359.1828457202691 A 163.07577612088187,163.07577612088187 0 0 0 802.6565214746527,352.80911377842443 Z "/><path class="wedge" fill="rgb(216,167,140)" d=" M 790.4435703925074,365.7774244161503 L 884.95569003538,347.11292455062653 A 244.59,244.59 0 0,1 651.3226681677139,639.0082656419635 L 648.8323385145973,542.7030083979396 A 148.2525497814125,148.2525497814125 0 0 0 790.4435703925074,365.7774244161503 Z "/><path class="wedge" fill="rgb(216,167,140)" d=" M 649.2187347079328,557.5211981151288 L 651.3274898746973,639.0081409112703 A 244.59,244.59 0 0,1 651.3226681677139,639.0082656419635 L 649.2155199256091,557.5212812769694 A 163.07577612088187,163.07577612088187 0 0 0 649.2187347079328,557.5211981151288 Z "/><path class="wedge" fill="rgb(219,174,149)" d=" M 804.9859372302276,362.90555988795387 L 884.95569003538,347.11292455062653 A 244.59,244.59 0 0,1 651.3313472385124,639.0080410582551 L 649.2213065326106,557.5211315400115 A 163.07577612088187,163.07577612088187 0 0 0 804.9859372302276,362.90555988795387 Z "/><path class="wedge" fill="rgb(219,174,149)" d=" M 649.6772341500251,569.0878989002549 L 651.5502500236537,639.0022746819088 A 244.59,244.59 0 0,1 651.3313472385124,639.0080410582551 L 649.5209256765315,569.0920164060403 A 174.65053954024813,174.65053954024813 0 0 0 649.6772341500251,569.0878989002549 Z "/><path class="wedge" fill="rgb(223,181,159)" d=" M 816.3413906146272,360.6630553396806 L 884.95569003538,347.11292455062653 A 244.59,244.59 0 0,1 651.6871821472603,638.9985678790969 L 649.7750111207446,569.0852520417934 A 174.65053954024813,174.65053954024813 0 0 0 816.3413906146272,360.6630553396806 Z "/><path class="wedge" fill="rgb(223,181,159)" d=" M 650.03323002253,578.3671187102453 L 651.692967965755,638.9984095649895 A 244.59,244.59 0 0,1 651.6871821472603,638.9985678790969 L 650.0288789849184,578.3672377652479 A 183.93599633368976,183.93599633368976 0 0 0 650.03323002253,578.3671187102453 Z "/><path class="wedge" fill="rgb(226,189,168)" d=" M 825.4509134576052,358.8640830118965 L 884.95569003538,347.11292455062653 A 244.59,244.59 0 0,1 651.6977894783041,638.9982775319784 L 650.0368558850532,578.3670194190909 A 183.93599633368976,183.93599633368976 0 0 0 825.4509134576052,358.8640830118965 Z "/><path class="wedge" fill="rgb(226,189,168)" d=" M 651.0888024574399,585.9517006748002 L 652.7748466115252,638.9663982230835 A 244.59,244.59 0 0,1 651.6977894783041,638.9982775319784 L 650.2453146759784,585.9766666740077 A 191.54849831475852,191.54849831475852 0 0 0 651.0888024574399,585.9517006748002 Z "/><path class="wedge" fill="rgb(229,196,178)" d=" M 832.9191793955547,357.3892303779564 L 884.95569003538,347.11292455062653 A 244.59,244.59 0 0,1 652.8114852317289,638.9652302444551 L 651.1174956692652,585.9507859826529 A 191.54849831475852,191.54849831475852 0 0 0 832.9191793955547,357.3892303779564 Z "/><path class="wedge" fill="rgb(229,196,178)" d=" M 653.9659508951265,592.1986358904403 L 656.0811597897062,638.8388548669961 A 244.59,244.59 0 0,1 652.8114852317289,638.9652302444551 L 651.3204027678355,592.3008883125833 A 197.90184159930075,197.90184159930075 0 0 0 653.9659508951265,592.1986358904403 Z "/><path class="wedge" fill="rgb(229,196,178)" d=" M 839.1521442423349,356.1583282250459 L 884.95569003538,347.11292455062653 A 244.59,244.59 0 0,1 656.401089795948,638.8241356302417 L 654.2248115902413,592.1867263108965 A 197.90184159930075,197.90184159930075 0 0 0 839.1521442423349,356.1583282250459 Z "/><path class="wedge" fill="rgb(229,196,178)" d=" M 844.4323272703202,355.11558391047373 L 884.95569003538,347.11292455062653 A 244.59,244.59 0 0,1 656.401089795948,638.8241356302417 L 654.4756905789088,597.5630362208293 A 203.28400180823144,203.28400180823144 0 0 0 844.4323272703202,355.11558391047373 Z "/><path class="wedge" fill="rgb(229,203,178)" d=" M 654.2248115902413,592.1867263108965 L 656.401089795948,638.8241356302417 A 244.59,244.59 0 0,1 656.0811597897062,638.8388548669961 L 653.9659508951265,592.1986358904403 A 197.90184159930075,197.90184159930075 0 0 0 654.2248115902413,592.1867263108965 Z "/><path class="wedge" fill="url(#hiddenPattern)" d=" M 654.2248115902413,592.1867263108965 L 656.401089795948,638.8241356302417 A 244.59,244.59 0 0,1 656.0811597897062,638.8388548669961 L 653.9659508951265,592.1986358904403 A 197.90184159930075,197.90184159930075 0 0 0 654.2248115902413,592.1867263108965 Z "/><path class="wedge" fill="rgb(226,196,168)" d=" M 651.1174956692652,585.9507859826529 L 652.8114852317289,638.9652302444551 A 244.59,244.59 0 0,1 652.7748466115252,638.9663982230835 L 651.0888024574399,585.9517006748002 A 191.54849831475852,191.54849831475852 0 0 0 651.1174956692652,585.9507859826529 Z "/><path class="wedge" fill="url(#hiddenPattern)" d=" M 651.1174956692652,585.9507859826529 L 652.8114852317289,638.9652302444551 A 244.59,244.59 0 0,1 652.7748466115252,638.9663982230835 L 651.0888024574399,585.9517006748002 A 191.54849831475852,191.54849831475852 0 0 0 651.1174956692652,585.9507859826529 Z "/><path class="wedge" fill="rgb(223,190,159)" d=" M 650.0368558850532,578.3670194190909 L 651.6977894783041,638.9982775319784 A 244.59,244.59 0 0,1 651.692967965755,638.9984095649895 L 650.03323002253,578.3671187102453 A 183.93599633368976,183.93599633368976 0 0 0 650.0368558850532,578.3670194190909 Z "/><path class="wedge" fill="url(#hiddenPattern)" d=" M 650.0368558850532,578.3670194190909 L 651.6977894783041,638.9982775319784 A 244.59,244.59 0 0,1 651.692967965755,638.9984095649895 L 650.03323002253,578.3671187102453 A 183.93599633368976,183.93599633368976 0 0 0 650.0368558850532,578.3670194190909 Z "/><path class="wedge" fill="rgb(219,183,149)" d=" M 649.7750111207446,569.0852520417934 L 651.6871821472603,638.9985678790969 A 244.59,244.59 0 0,1 651.5502500236537,639.0022746819088 L 649.6772341500251,569.0878989002549 A 174.65053954024813,174.65053954024813 0 0 0 649.7750111207446,569.0852520417934 Z "/><path class="wedge" fill="url(#hiddenPattern)" d=" M 649.7750111207446,569.0852520417934 L 651.6871821472603,638.9985678790969 A 244.59,244.59 0 0,1 651.5502500236537,639.0022746819088 L 649.6772341500251,569.0878989002549 A 174.65053954024813,174.65053954024813 0 0 0 649.7750111207446,569.0852520417934 Z "/><path class="wedge" fill="rgb(216,177,140)" d=" M 649.2213065326106,557.5211315400115 L 651.3313472385124,639.0080410582551 A 244.59,244.59 0 0,1 651.3274898746973,639.0081409112703 L 649.2187347079328,557.5211981151288 A 163.07577612088187,163.07577612088187 0 0 0 649.2213065326106,557.5211315400115 Z "/><path class="wedge" fill="url(#hiddenPattern)" d=" M 649.2213065326106,557.5211315400115 L 651.3313472385124,639.0080410582551 A 244.59,244.59 0 0,1 651.3274898746973,639.0081409112703 L 649.2187347079328,557.5211981151288 A 163.07577612088187,163.07577612088187 0 0 0 649.2213065326106,557.5211315400115 Z "/><path class="wedge" fill="rgb(213,171,130)" d=" M 648.8323385145973,542.7030083979396 L 651.3226681677139,639.0082656419635 A 244.59,244.59 0 0,1 651.0304682048343,639.0156468474573 L 648.6552282911911,542.707482344278 A 148.2525497814125,148.2525497814125 0 0 0 648.8323385145973,542.7030083979396 Z "/><path class="wedge" fill="url(#hiddenPattern)" d=" M 648.8323385145973,542.7030083979396 L 651.3226681677139,639.0082656419635 A 244.59,244.59 0 0,1 651.0304682048343,639.0156468474573 L 648.6552282911911,542.707482344278 A 148.2525497814125,148.2525497814125 0 0 0 648.8323385145973,542.7030083979396 Z "/><path class="wedge" fill="rgb(210,165,121)" d=" M 648.0394709424506,523.0687597351018 L 650.78069307669,639.0216793815082 A 244.59,244.59 0 0,1 649.0658714959825,639.0562037425716 L 647.1378229398841,523.0869125397684 A 128.6046825097451,128.6046825097451 0 0 0 648.0394709424506,523.0687597351018 Z "/><path class="wedge" fill="url(#hiddenPattern)" d=" M 648.0394709424506,523.0687597351018 L 650.78069307669,639.0216793815082 A 244.59,244.59 0 0,1 649.0658714959825,639.0562037425716 L 647.1378229398841,523.0869125397684 A 128.6046825097451,128.6046825097451 0 0 0 648.0394709424506,523.0687597351018 Z "/><path class="wedge" fill="rgb(207,159,111)" d=" M 646.3642967238562,495.8465432269818 L 648.2922988161254,639.067841034968 A 244.59,244.59 0 0,1 648.2373178667258,639.0685749907984 L 646.3415131512434,495.8468473711652 A 101.35572568734936,101.35572568734936 0 0 0 646.3642967238562,495.8465432269818 Z "/><path class="wedge" fill="url(#hiddenPattern)" d=" M 646.3642967238562,495.8465432269818 L 648.2922988161254,639.067841034968 A 244.59,244.59 0 0,1 648.2373178667258,639.0685749907984 L 646.3415131512434,495.8468473711652 A 101.35572568734936,101.35572568734936 0 0 0 646.3642967238562,495.8465432269818 Z "/><path class="wedge" fill="rgb(101,204,204)" d=" M 645.8083648870778,455.6421565080865 L 648.2334595483113,639.0686260323458 A 244.59,244.59 0 0,1 647.229307644333,639.079840312784 L 645.5573269110832,455.644960078196 A 61.1475,61.1475 0 0 0 645.8083648870778,455.6421565080865 Z "/><path class="wedge" fill="url(#hiddenPattern)" d=" M 645.8083648870778,455.6421565080865 L 648.2334595483113,639.0686260323458 A 244.59,244.59 0 0,1 647.229307644333,639.079840312784 L 645.5573269110832,455.644960078196 A 61.1475,61.1475 0 0 0 645.8083648870778,455.6421565080865 Z "/><rect fill="rgb(101,204,204)" x="1406.165" y="725.8316666666667" width="22" height="22"/><rect fill="url(#hiddenPattern)" style="stroke:none" x="1406.165" y="725.8316666666667" width="22" height="22"/><path class="line" d="M 647.7313893516449,639.0747485171144 L 648.8474409146827,739.0085167284083 A 344.53,344.53 0 0,0 683.8580866387188,736.8316666666667 L 1014.515,736.8316666666667 L 1316.4874283854167,736.8316666666667"/><text x="1398.8316666666667" y="736.8316666666667" style="font-color:black;font-weight:normal" text-anchor="end">Viruses&#160;&#160;&#160;0.07%</text><circle cx="645" cy="394.5" r="61.1475"/><circle cx="645" cy="394.5" r="244.59"/><text x="645" y="394.5" text-anchor="middle" style="font-color:black;font-weight:bold" transform="rotate(360,645,394.5)">root</text><rect fill="rgb(220,220,220)" x="1406.165" y="755.165" width="22" height="22"/><path class="line" d="M 646.1146653973642,639.0874600650081 L 646.6937994891532,766.165 L 1003.515,766.165 L 1305.8956315104167,766.165"/><text x="1398.8316666666667" y="766.165" style="font-color:black;font-weight:normal" text-anchor="end">[other root]&#160;&#160;&#160;0.1%</text><path class="line" d=" M 645.8083648870778,455.6421565080865 A 61.1475,61.1475 0 1 0 645,455.6475"/><line x1="648.2334595483113" y1="639.0686260323458" x2="645.8083648870778" y2="455.6421565080865"/><text x="645" y="321.2900322937952" text-anchor="middle" style="font-color:black;font-weight:normal" transform="rotate(359.6212662372309,645,394.5)">cellular organisms</text><path class="line" d=" M 646.3642967238562,495.8465432269818 A 101.35572568734936,101.35572568734936 0 1 0 645,495.8557256873494"/><line x1="648.2922988161254" y1="639.067841034968" x2="646.3642967238562" y2="495.8465432269818"/><text x="645" y="284.9695872659319" text-anchor="middle" style="font-color:black;font-weight:normal" transform="rotate(359.6143740058678,645,394.5)">Bacteria</text><path class="line" d=" M 648.0394709424506,523.0687597351018 A 128.6046825097451,128.6046825097451 0 1 0 645,523.1046825097451"/><line x1="650.78069307669" y1="639.0216793815082" x2="648.0394709424506" y2="523.0687597351018"/><text x="645" y="256.07138385442124" text-anchor="middle" style="font-color:black;font-weight:normal" transform="rotate(359.3228665154309,645,394.5)">Terrabacteria group</text><path class="line" d=" M 790.4435703925074,365.7774244161503 A 148.2525497814125,148.2525497814125 0 1 0 645,542.7525497814125"/><line x1="884.95569003538" y1="347.11292455062653" x2="790.4435703925074" y2="365.7774244161503"/><text x="645" y="238.83583704885282" text-anchor="middle" style="font-color:black;font-weight:normal" transform="rotate(309.4144114172512,645,394.5)">Firmicutes</text><path class="line" d=" M 802.6565214746527,352.80911377842443 A 163.07577612088187,163.07577612088187 0 1 0 645,557.5757761208819"/><line x1="881.4619044271869" y1="331.9697204974429" x2="802.6565214746527" y2="352.80911377842443"/><path class="line" d=" M 754.0580447304278,258.08462754778776 A 174.65053954024813,174.65053954024813 0 1 0 645,569.1505395402481"/><line x1="797.730745812945" y1="203.45658246508052" x2="754.0580447304278" y2="258.08462754778776"/><path class="line" d=" M 752.7695978454402,245.4424120431998 A 183.93599633368976,183.93599633368976 0 1 0 645,578.4359963336898"/><line x1="788.3072724340267" y1="196.28977380690054" x2="752.7695978454402" y2="245.4424120431998"/><path class="line" d=" M 756.8413304007533,238.99326695982398 A 191.54849831475852,191.54849831475852 0 1 0 645,586.0484983147585"/><line x1="787.8112005230614" y1="195.93205418506756" x2="756.8413304007533" y2="238.99326695982398"/><path class="line" d=" M 758.2447248528413,232.2015982783595 A 197.90184159930075,197.90184159930075 0 1 0 645,592.4018415993007"/><line x1="784.9609373410415" y1="193.9128515616789" x2="758.2447248528413" y2="232.2015982783595"/><text x="423.75407920034957" y="394.5" text-anchor="end" style="font-color:black;font-weight:normal" transform="rotate(17.452824622214056,645,394.5)">Enterococcus faecalis&#160;&#160;&#160;60%</text><path class="line" d=" M 559.9008092469916,579.1144986840203 A 203.28400180823144,203.28400180823144 0 0 0 645,597.7840018082314"/><line x1="542.6092024894626" y1="616.6269742403118" x2="559.9008092469916" y2="579.1144986840203"/><text x="421.06299909588427" y="394.5" text-anchor="end" style="font-color:black;font-weight:normal" transform="rotate(-77.62618495535114,645,394.5)">Enterococcus faecalis V583&#160;&#160;&#160;7%</text><path class="line" d=" M 520.8784869960282,555.4914140591786 A 203.28400180823144,203.28400180823144 0 0 0 559.9008092469916,579.1144986840203"/><line x1="495.6577960115101" y1="588.2038311646423" x2="520.8784869960282" y2="555.4914140591786"/><text x="421.06299909588427" y="394.5" text-anchor="end" style="font-color:black;font-weight:normal" transform="rotate(-58.810393334245624,645,394.5)">Enterococcus faecalis str. Symbioflor 1&#160;&#160;&#160;4%</text><path class="line" d=" M 492.1482054516679,528.5175894967654 A 203.28400180823144,203.28400180823144 0 0 0 520.8784869960282,555.4914140591786"/><line x1="461.0897065385166" y1="555.7490994049613" x2="492.1482054516679" y2="528.5175894967654"/><text x="421.06299909588427" y="394.5" text-anchor="end" style="font-color:black;font-weight:normal" transform="rotate(-46.806047085615575,645,394.5)">Enterococcus faecalis D32&#160;&#160;&#160;3%</text><path class="line" d=" M 469.35004065494826,496.8302358701998 A 203.28400180823144,203.28400180823144 0 0 0 492.1482054516679,528.5175894967654"/><line x1="433.6591016801473" y1="517.6230798727747" x2="469.35004065494826" y2="496.8302358701998"/><text x="421.06299909588427" y="394.5" text-anchor="end" style="font-color:black;font-weight:normal" transform="rotate(-35.73395986938655,645,394.5)">Enterococcus faecalis OG1RF&#160;&#160;&#160;3%</text><path class="line" d=" M 758.4232457159901,232.3263084232068 A 197.90184159930075,197.90184159930075 0 0 0 758.2447248528413,232.2015982783595"/><line x1="785.1815740848167" y1="194.06698279199844" x2="758.4232457159901" y2="232.3263084232068"/><path class="line" d=" M 756.8529831518742,239.0016483474324 A 191.54849831475852,191.54849831475852 0 0 0 756.8413304007533,238.99326695982398"/><line x1="787.8260800257551" y1="195.94275645427442" x2="756.8529831518742" y2="239.0016483474324"/><path class="line" d=" M 758.9740949749187,250.13117919053516 A 183.93599633368976,183.93599633368976 0 0 0 752.7695978454402,245.4424120431998"/><line x1="796.5577398963392" y1="202.52469018773897" x2="758.9740949749187" y2="250.13117919053516"/><path class="line" d=" M 812.5709278133295,345.27810331285764 A 174.65053954024813,174.65053954024813 0 0 0 754.0580447304278,258.08462754778776"/><line x1="879.6753313316676" y1="325.5670110587679" x2="812.5709278133295" y2="345.27810331285764"/><path class="line" d=" M 821.3854462543757,342.34038825957515 A 183.93599633368976,183.93599633368976 0 0 0 759.8562161245004,250.8319786284046"/><line x1="879.5496105128382" y1="325.1404418390953" x2="821.3854462543757" y2="342.34038825957515"/><path class="line" d=" M 828.6333133072594,340.00565671157284 A 191.54849831475852,191.54849831475852 0 0 0 764.6097346864659,244.88603482671724"/><line x1="879.48302908654" y1="324.91568301405243" x2="828.6333133072594" y2="340.00565671157284"/><path class="line" d=" M 812.6273826549237,289.30399488262634 A 197.90184159930075,197.90184159930075 0 0 0 768.5769895139479,239.92358986228092"/><line x1="852.1733198247947" y1="264.4866020258938" x2="812.6273826549237" y2="289.30399488262634"/><text x="866.2459207996504" y="394.5" text-anchor="start" style="font-color:black;font-weight:normal" transform="rotate(318.2650533739921,645,394.5)">5%&#160;&#160;&#160;Staphylococcus epidermidis</text><line x1="881.34" y1="394.5" x2="897.84" y2="394.5" class="tick" transform="rotate(311.03928320793824,645,394.5)"/><text x="900.59" y="394.5" text-anchor="start" style="font-color:black;font-weight:normal" transform="rotate(311.03928320793824,645,394.5)">2 more</text><path class="line" d=" M 784.7712595880238,246.8911236261643 A 203.28400180823144,203.28400180823144 0 0 0 771.9378028865091,235.71971284345523"/><line x1="813.1718781534261" y1="216.8979518745653" x2="784.7712595880238" y2="246.8911236261643"/><path class="line" d=" M 832.8361089624505,332.188403340621 A 197.90184159930075,197.90184159930075 0 0 0 812.6273826549237,289.30399488262634"/><line x1="877.149602650732" y1="317.4881172213843" x2="832.8361089624505" y2="332.188403340621"/><text x="866.2459207996504" y="394.5" text-anchor="start" style="font-color:black;font-weight:normal" transform="rotate(334.76844487909716,645,394.5)">4%&#160;&#160;&#160;Staphylococcus aureus</text><path class="line" d=" M 821.7906559493742,294.1533540163946 A 203.28400180823144,203.28400180823144 0 0 0 817.1861953550058,286.44307277949827"/><line x1="857.7133771178372" y1="273.7635626866324" x2="821.7906559493742" y2="294.1533540163946"/><path class="line" d=" M 833.3998283210602,333.914163396139 A 197.90184159930075,197.90184159930075 0 0 0 832.8361089624505,332.188403340621"/><line x1="877.8463122761104" y1="319.621011228676" x2="833.3998283210602" y2="333.914163396139"/><path class="line" d=" M 828.6365368747428,340.0165205654935 A 191.54849831475852,191.54849831475852 0 0 0 828.6333133072594,340.00565671157284"/><line x1="879.4871452888474" y1="324.92955516681707" x2="828.6365368747428" y2="340.0165205654935"/><path class="line" d=" M 821.4640348797835,342.6068873431774 A 183.93599633368976,183.93599633368976 0 0 0 821.3854462543757,342.34038825957515"/><line x1="879.654114211253" y1="325.49482060212995" x2="821.4640348797835" y2="342.6068873431774"/><path class="line" d=" M 804.2055506915813,359.1828457202691 A 163.07577612088187,163.07577612088187 0 0 0 802.6565214746527,352.80911377842443"/><line x1="883.7852234705238" y1="341.5293935079836" x2="804.2055506915813" y2="359.1828457202691"/><path class="line" d=" M 648.8323385145973,542.7030083979396 A 148.2525497814125,148.2525497814125 0 0 0 790.4435703925074,365.7774244161503"/><line x1="651.3226681677139" y1="639.0082656419635" x2="648.8323385145973" y2="542.7030083979396"/><text x="645" y="550.1641629511472" text-anchor="middle" style="font-color:black;font-weight:normal" transform="rotate(308.6737790142226,645,394.5)">Actinobacteria</text><path class="line" d=" M 649.2213065326106,557.5211315400115 A 163.07577612088187,163.07577612088187 0 0 0 804.9859372302276,362.90555988795387"/><line x1="651.3313472385124" y1="639.0080410582551" x2="649.2213065326106" y2="557.5211315400115"/><path class="line" d=" M 649.7750111207446,569.0852520417934 A 174.65053954024813,174.65053954024813 0 0 0 816.3413906146272,360.6630553396806"/><line x1="651.6871821472603" y1="638.9985678790969" x2="649.7750111207446" y2="569.0852520417934"/><path class="line" d=" M 650.0368558850532,578.3670194190909 A 183.93599633368976,183.93599633368976 0 0 0 825.4509134576052,358.8640830118965"/><line x1="651.6977894783041" y1="638.9982775319784" x2="650.0368558850532" y2="578.3670194190909"/><path class="line" d=" M 651.1174956692652,585.9507859826529 A 191.54849831475852,191.54849831475852 0 0 0 832.9191793955547,357.3892303779564"/><line x1="652.8114852317289" y1="638.9652302444551" x2="651.1174956692652" y2="585.9507859826529"/><path class="line" d=" M 654.2248115902413,592.1867263108965 A 197.90184159930075,197.90184159930075 0 0 0 839.1521442423349,356.1583282250459"/><line x1="656.401089795948" y1="638.8241356302417" x2="654.2248115902413" y2="592.1867263108965"/><path class="line" d=" M 654.4756905789088,597.5630362208293 A 203.28400180823144,203.28400180823144 0 0 0 844.4323272703202,355.11558391047373"/><text x="868.9370009041157" y="394.5" text-anchor="start" style="font-color:black;font-weight:normal" transform="rotate(398.0785613942143,645,394.5)">27%&#160;&#160;&#160;Cutibacterium avidum 44067</text><path class="line" d=" M 653.9659508951265,592.1986358904403 A 197.90184159930075,197.90184159930075 0 0 0 654.2248115902413,592.1867263108965"/><line x1="656.0811597897062" y1="638.8388548669961" x2="653.9659508951265" y2="592.1986358904403"/><path class="line" d=" M 651.0888024574399,585.9517006748002 A 191.54849831475852,191.54849831475852 0 0 0 651.1174956692652,585.9507859826529"/><line x1="652.7748466115252" y1="638.9663982230835" x2="651.0888024574399" y2="585.9517006748002"/><path class="line" d=" M 650.03323002253,578.3671187102453 A 183.93599633368976,183.93599633368976 0 0 0 650.0368558850532,578.3670194190909"/><line x1="651.692967965755" y1="638.9984095649895" x2="650.03323002253" y2="578.3671187102453"/><path class="line" d=" M 649.6772341500251,569.0878989002549 A 174.65053954024813,174.65053954024813 0 0 0 649.7750111207446,569.0852520417934"/><line x1="651.5502500236537" y1="639.0022746819088" x2="649.6772341500251" y2="569.0878989002549"/><path class="line" d=" M 649.2187347079328,557.5211981151288 A 163.07577612088187,163.07577612088187 0 0 0 649.2213065326106,557.5211315400115"/><line x1="651.3274898746973" y1="639.0081409112703" x2="649.2187347079328" y2="557.5211981151288"/><path class="line" d=" M 648.6552282911911,542.707482344278 A 148.2525497814125,148.2525497814125 0 0 0 648.8323385145973,542.7030083979396"/><line x1="651.0304682048343" y1="639.0156468474573" x2="648.6552282911911" y2="542.707482344278"/><path class="line" d=" M 647.1378229398841,523.0869125397684 A 128.6046825097451,128.6046825097451 0 0 0 648.0394709424506,523.0687597351018"/><line x1="649.0658714959825" y1="639.0562037425716" x2="647.1378229398841" y2="523.0869125397684"/><path class="line" d=" M 646.3415131512434,495.8468473711652 A 101.35572568734936,101.35572568734936 0 0 0 646.3642967238562,495.8465432269818"/><line x1="648.2373178667258" y1="639.0685749907984" x2="646.3415131512434" y2="495.8468473711652"/><path class="line" d=" M 645.5573269110832,455.644960078196 A 61.1475,61.1475 0 0 0 645.8083648870778,455.6421565080865"/><line x1="647.229307644333" y1="639.079840312784" x2="645.5573269110832" y2="455.644960078196"/></svg>