<?xml version="1.0" standalone="no"?><!DOCTYPE svg PUBLIC "-//W3C//DTD SVG 1.1//EN" 	"http://www.w3.org/Graphics/SVG/1.1/DTD/svg11.dtd"><svg width="1440" height="732" version="1.1"	xmlns="http://www.w3.org/2000/svg"><title>Krona (snapshot) - root</title><defs>	<style type="text/css">	text {font-size: 11px; font-family: sans-serif; dominant-baseline:central}	path {stroke-width:0.27499999999999997;}	path.wedge {stroke:none}	path.line {fill:none;stroke:black;}	line {stroke:black;stroke-width:0.27499999999999997;}	line.tick {stroke-width:0.5499999999999999;}	line.pattern {stroke-width:0.18333333333333332;}	circle {fill:none;stroke:black;stroke-width:0.27499999999999997;}	rect {stroke:black;stroke-width:0.27499999999999997;}	.highlight {stroke:black;stroke-width:1.375;}	.searchHighlight {fill:rgb(255, 255, 100);stroke:none;}	</style><pattern id="hiddenPattern" patternUnits="userSpaceOnUse" x="0" y="0" width="6.6" height="6.6"><line class="pattern" x1="0" y1="0" x2="3.3" y2="3.3"/><line class="pattern" x1="3.3" y1="6.6" x2="6.6" y2="3.3"/></pattern></defs><path class="wedge" fill="rgb(220,220,220)" d=" M 645.4547841668684,422.72817704951893 L 646.8191366674736,592.9127081980757 A 226.92,226.92 0 0,1 645.0000000000001,592.92 L 645,422.73 A 56.73,56.73 0 0 0 645.4547841668684,422.72817704951893 Z "/><path class="wedge" fill="rgb(207,111,111)" d=" M 645,422.73 L 645,592.92 A 226.92,226.92 0 1,1 649.2401018402743,592.8803824405805 L 646.0600254600686,422.7200956101451 A 56.73,56.73 0 1 0 645,422.73 Z "/><path class="wedge" fill="rgb(207,111,111)" d=" M 646.7578293547784,460.01701735857955 L 649.2419654042192,592.8803476053168 A 226.92,226.92 0 0,1 649.2401018402743,592.8803824405805 L 646.7570571119394,460.0170317939752 A 94.03344892666632,94.03344892666632 0 0 0 646.7578293547784,460.01701735857955 Z "/><path class="wedge" fill="rgb(210,121,121)" d=" M 645,460.0334489266663 L 645,592.92 A 226.92,226.92 0 1,1 649.2680552693387,592.8798583043852 L 646.7686407420481,460.01681459701524 A 94.03344892666632,94.03344892666632 0 1 0 645,460.0334489266663 Z "/><path class="wedge" fill="rgb(210,121,121)" d=" M 647.5037863717126,485.2875762166295 L 649.761888110962,592.8700306819273 A 226.92,226.92 0 0,1 649.2680552693387,592.8798583043852 L 647.244130556635,485.292743550805 A 119.31384993299544,119.31384993299544 0 0 0 647.5037863717126,485.2875762166295 Z "/><path class="wedge" fill="rgb(213,130,130)" d=" M 645,485.3138499329954 L 645,592.92 A 226.92,226.92 0 1,1 650.3954515982069,592.8558474054645 L 647.8369121377983,485.28011869274684 A 119.31384993299544,119.31384993299544 0 1 0 645,485.3138499329954 Z "/><path class="wedge" fill="rgb(213,130,130)" d=" M 648.3747994051971,503.5008805005128 L 650.5678110611536,592.8516825593041 A 226.92,226.92 0 0,1 650.3954515982069,592.8558474054645 L 648.2703277184528,503.50340492531643 A 137.5422895310443,137.5422895310443 0 0 0 648.3747994051971,503.5008805005128 Z "/><path class="wedge" fill="rgb(216,140,140)" d=" M 645,503.5422895310443 L 645,592.92 A 226.92,226.92 0 1,1 650.8528958270603,592.8445062381666 L 648.5475969171539,503.49653074007006 A 137.5422895310443,137.5422895310443 0 1 0 645,503.5422895310443 Z "/><path class="wedge" fill="rgb(216,140,140)" d=" M 649.6637851493498,517.2227367555174 L 651.9950009548561,592.8121609650627 A 226.92,226.92 0 0,1 650.8528958270603,592.8445062381666 L 648.9023080647308,517.2443023571986 A 151.29463640112232,151.29463640112232 0 0 0 649.6637851493498,517.2227367555174 Z "/><path class="wedge" fill="rgb(219,149,149)" d=" M 645,517.2946364011223 L 645,592.92 A 226.92,226.92 0 1,1 652.131930445649,592.8078966176407 L 649.755080308534,517.2198935821845 A 151.29463640112232,151.29463640112232 0 1 0 645,517.2946364011223 Z "/><path class="wedge" fill="rgb(219,149,149)" d=" M 656.5313021360658,527.6223593201473 L 661.1490551182087,592.3446363817553 A 226.92,226.92 0 0,1 652.131930445649,592.8078966176407 L 650.0925855525414,527.9531522803867 A 162.03320018182714,162.03320018182714 0 0 0 656.5313021360658,527.6223593201473 Z "/><path class="wedge" fill="rgb(223,159,159)" d=" M 645,528.0332001818272 L 645,592.92 A 226.92,226.92 0 1,1 838.1969469487929,485.02783745689635 L 782.9531093754256,450.9923383300867 A 162.03320018182714,162.03320018182714 0 1 0 645,528.0332001818272 Z "/><path class="wedge" fill="rgb(223,159,159)" d=" M 790.926719603503,454.46513064902337 L 839.0469351255712,483.6370408008139 A 226.92,226.92 0 0,1 838.1969469487929,485.02783745689635 L 790.2875134946368,455.5110342780928 A 170.6478445073015,170.6478445073015 0 0 0 790.926719603503,454.46513064902337 Z "/><path class="wedge" fill="rgb(226,168,168)" d=" M 645,536.6478445073014 L 645,592.92 A 226.92,226.92 0 1,1 840.0728435116704,481.92787466468695 L 791.6982208142812,453.17980755262397 A 170.6478445073015,170.6478445073015 0 1 0 645,536.6478445073014 Z "/><path class="wedge" fill="rgb(226,168,168)" d=" M 798.1218866751594,456.19241604375344 L 840.5227140456868,481.16750710251824 A 226.92,226.92 0 0,1 840.0728435116704,481.92787466468695 L 797.7695745396392,456.7878911846041 A 177.71039387376834,177.71039387376834 0 0 0 798.1218866751594,456.19241604375344 Z "/><path class="wedge" fill="rgb(229,178,178)" d=" M 645,543.7103938737683 L 645,592.92 A 226.92,226.92 0 1,1 840.5520327761956,481.1177174769275 L 798.1448473800184,456.15342373820715 A 177.71039387376834,177.71039387376834 0 1 0 645,543.7103938737683 Z "/><path class="wedge" fill="rgb(229,178,178)" d=" M 804.7242015820211,456.54768794117297 L 842.4056539809611,477.9093122861053 A 226.92,226.92 0 0,1 840.5520327761956,481.1177174769275 L 803.2244058011199,459.14366200331966 A 183.6047503811003,183.6047503811003 0 0 0 804.7242015820211,456.54768794117297 Z "/><path class="wedge" fill="rgb(229,178,178)" d=" M 645,549.6047503811003 L 645,592.92 A 226.92,226.92 0 1,1 842.5782295801305,477.6043439834724 L 804.8638353728168,456.3009330095712 A 183.6047503811003,183.6047503811003 0 1 0 645,549.6047503811003 Z "/><path class="wedge" fill="rgb(229,178,178)" d=" M 463.00111920902066,415.453464794075 L 426.0201203405121,425.50208991553325 A 226.92,226.92 0 1,1 842.5782295801305,477.6043439834724 L 809.2115097887665,458.7567670965399 A 188.59808532778885,188.59808532778885 0 1 0 463.00111920902066,415.453464794075 Z "/><path class="wedge" fill="rgb(229,178,178)" d=" M 645,554.5980853277888 L 645,592.92 A 226.92,226.92 0 0,1 530.7688978981386,562.0712669224996 L 550.0600778190806,528.9590407605202 A 188.59808532778885,188.59808532778885 0 0 0 645,554.5980853277888 Z "/><path class="wedge" fill="rgb(229,180,178)" d=" M 550.0600778190806,528.9590407605202 L 530.7688978981386,562.0712669224996 A 226.92,226.92 0 0,1 479.77123134685553,521.5382281285397 L 507.6748219238003,495.27116173241416 A 188.59808532778885,188.59808532778885 0 0 0 550.0600778190806,528.9590407605202 Z "/><path class="wedge" fill="rgb(229,181,178)" d=" M 507.6748219238003,495.27116173241416 L 479.77123134685553,521.5382281285397 A 226.92,226.92 0 0,1 446.9082358765707,476.69028587219225 L 480.3616806236438,457.99707376996764 A 188.59808532778885,188.59808532778885 0 0 0 507.6748219238003,495.27116173241416 Z "/><path class="wedge" fill="rgb(229,182,178)" d=" M 480.3616806236438,457.99707376996764 L 446.9082358765707,476.69028587219225 A 226.92,226.92 0 0,1 426.0201203405121,425.50208991553325 L 463.00111920902066,415.453464794075 A 188.59808532778885,188.59808532778885 0 0 0 480.3616806236438,457.99707376996764 Z "/><path class="wedge" fill="rgb(229,198,178)" d=" M 804.8638353728168,456.3009330095712 L 842.5782295801305,477.6043439834724 A 226.92,226.92 0 0,1 842.4056539809611,477.9093122861053 L 804.7242015820211,456.54768794117297 A 183.6047503811003,183.6047503811003 0 0 0 804.8638353728168,456.3009330095712 Z "/><path class="wedge" fill="url(#hiddenPattern)" d=" M 804.8638353728168,456.3009330095712 L 842.5782295801305,477.6043439834724 A 226.92,226.92 0 0,1 842.4056539809611,477.9093122861053 L 804.7242015820211,456.54768794117297 A 183.6047503811003,183.6047503811003 0 0 0 804.8638353728168,456.3009330095712 Z "/><path class="wedge" fill="rgb(226,191,168)" d=" M 798.1448473800184,456.15342373820715 L 840.5520327761956,481.1177174769275 A 226.92,226.92 0 0,1 840.5227140456868,481.16750710251824 L 798.1218866751594,456.19241604375344 A 177.71039387376834,177.71039387376834 0 0 0 798.1448473800184,456.15342373820715 Z "/><path class="wedge" fill="url(#hiddenPattern)" d=" M 798.1448473800184,456.15342373820715 L 840.5520327761956,481.1177174769275 A 226.92,226.92 0 0,1 840.5227140456868,481.16750710251824 L 798.1218866751594,456.19241604375344 A 177.71039387376834,177.71039387376834 0 0 0 798.1448473800184,456.15342373820715 Z "/><path class="wedge" fill="rgb(223,184,159)" d=" M 791.6982208142812,453.17980755262397 L 840.0728435116704,481.92787466468695 A 226.92,226.92 0 0,1 839.0469351255712,483.6370408008139 L 790.926719603503,454.46513064902337 A 170.6478445073015,170.6478445073015 0 0 0 791.6982208142812,453.17980755262397 Z "/><path class="wedge" fill="url(#hiddenPattern)" d=" M 791.6982208142812,453.17980755262397 L 840.0728435116704,481.92787466468695 A 226.92,226.92 0 0,1 839.0469351255712,483.6370408008139 L 790.926719603503,454.46513064902337 A 170.6478445073015,170.6478445073015 0 0 0 791.6982208142812,453.17980755262397 Z "/><path class="wedge" fill="rgb(223,185,159)" d=" M 782.9531093754256,450.9923383300867 L 838.1969469487929,485.02783745689635 A 226.92,226.92 0 0,1 661.1490551182087,592.3446363817553 L 656.5313021360658,527.6223593201473 A 162.03320018182714,162.03320018182714 0 0 0 782.9531093754256,450.9923383300867 Z "/><path class="wedge" fill="rgb(223,185,159)" d=" M 657.2597168506563,536.2068922744608 L 661.3024323910045,592.3336411100584 A 226.92,226.92 0 0,1 661.1490551182087,592.3446363817553 L 657.1443744348313,536.2151609128128 A 170.6478445073015,170.6478445073015 0 0 0 657.2597168506563,536.2068922744608 Z "/><path class="wedge" fill="rgb(226,192,168)" d=" M 790.2875134946368,455.5110342780928 L 838.1969469487929,485.02783745689635 A 226.92,226.92 0 0,1 661.6732954465987,592.3066230116794 L 657.5386124131653,536.1865741876854 A 170.6478445073015,170.6478445073015 0 0 0 790.2875134946368,455.5110342780928 Z "/><path class="wedge" fill="rgb(226,192,168)" d=" M 658.2795345758657,543.2135380049117 L 661.9567571162771,592.2855602730752 A 226.92,226.92 0 0,1 661.6732954465987,592.3066230116794 L 658.0575440727514,543.2300331026263 A 177.71039387376834,177.71039387376834 0 0 0 658.2795345758657,543.2135380049117 Z "/><path class="wedge" fill="rgb(229,199,178)" d=" M 796.300482714082,459.2155996668779 L 838.1969469487929,485.02783745689635 A 226.92,226.92 0 0,1 661.9614038084537,592.2852120242208 L 658.2831735918048,543.213265276897 A 177.71039387376834,177.71039387376834 0 0 0 796.300482714082,459.2155996668779 Z "/><path class="wedge" fill="rgb(229,199,178)" d=" M 664.3124305605962,548.586238222787 L 668.868536809174,591.6612047973446 A 226.92,226.92 0 0,1 661.9614038084537,592.2852120242208 L 658.7237542409845,549.0911328602213 A 183.6047503811003,183.6047503811003 0 0 0 664.3124305605962,548.586238222787 Z "/><path class="wedge" fill="rgb(229,199,178)" d=" M 801.3188666442966,462.3074051854206 L 838.1969469487929,485.02783745689635 A 226.92,226.92 0 0,1 671.6904775986303,591.3448575085685 L 666.5957098406877,548.3302763640284 A 183.6047503811003,183.6047503811003 0 0 0 801.3188666442966,462.3074051854206 Z "/><path class="wedge" fill="rgb(229,199,178)" d=" M 781.6100837756064,496.0266234281646 L 809.3683718023037,522.4471947689049 A 226.92,226.92 0 0,1 671.6904775986303,591.3448575085685 L 667.1830291361973,553.2889505754425 A 188.59808532778885,188.59808532778885 0 0 0 781.6100837756064,496.0266234281646 Z "/><path class="wedge" fill="rgb(229,199,178)" d=" M 805.5701317015544,464.92659194904775 L 838.1969469487929,485.02783745689635 A 226.92,226.92 0 0,1 822.3586503744897,507.55068186815464 L 792.4065832758217,483.6458116392426 A 188.59808532778885,188.59808532778885 0 0 0 805.5701317015544,464.92659194904775 Z "/><path class="wedge" fill="rgb(229,199,178)" d=" M 792.4065832758217,483.6458116392426 L 822.3586503744897,507.55068186815464 A 226.92,226.92 0 0,1 809.3683718023037,522.4471947689049 L 781.6100837756064,496.0266234281646 A 188.59808532778885,188.59808532778885 0 0 0 792.4065832758217,483.6458116392426 Z "/><path class="wedge" fill="rgb(229,202,178)" d=" M 666.5957098406877,548.3302763640284 L 671.6904775986303,591.3448575085685 A 226.92,226.92 0 0,1 668.868536809174,591.6612047973446 L 664.3124305605962,548.586238222787 A 183.6047503811003,183.6047503811003 0 0 0 666.5957098406877,548.3302763640284 Z "/><path class="wedge" fill="url(#hiddenPattern)" d=" M 666.5957098406877,548.3302763640284 L 671.6904775986303,591.3448575085685 A 226.92,226.92 0 0,1 668.868536809174,591.6612047973446 L 664.3124305605962,548.586238222787 A 183.6047503811003,183.6047503811003 0 0 0 666.5957098406877,548.3302763640284 Z "/><path class="wedge" fill="rgb(226,196,168)" d=" M 658.2831735918048,543.213265276897 L 661.9614038084537,592.2852120242208 A 226.92,226.92 0 0,1 661.9567571162771,592.2855602730752 L 658.2795345758657,543.2135380049117 A 177.71039387376834,177.71039387376834 0 0 0 658.2831735918048,543.213265276897 Z "/><path class="wedge" fill="url(#hiddenPattern)" d=" M 658.2831735918048,543.213265276897 L 661.9614038084537,592.2852120242208 A 226.92,226.92 0 0,1 661.9567571162771,592.2855602730752 L 658.2795345758657,543.2135380049117 A 177.71039387376834,177.71039387376834 0 0 0 658.2831735918048,543.213265276897 Z "/><path class="wedge" fill="rgb(223,189,159)" d=" M 657.5386124131653,536.1865741876854 L 661.6732954465987,592.3066230116794 A 226.92,226.92 0 0,1 661.3024323910045,592.3336411100584 L 657.2597168506563,536.2068922744608 A 170.6478445073015,170.6478445073015 0 0 0 657.5386124131653,536.1865741876854 Z "/><path class="wedge" fill="url(#hiddenPattern)" d=" M 657.5386124131653,536.1865741876854 L 661.6732954465987,592.3066230116794 A 226.92,226.92 0 0,1 661.3024323910045,592.3336411100584 L 657.2597168506563,536.2068922744608 A 170.6478445073015,170.6478445073015 0 0 0 657.5386124131653,536.1865741876854 Z "/><path class="wedge" fill="rgb(216,177,140)" d=" M 649.755080308534,517.2198935821845 L 652.131930445649,592.8078966176407 A 226.92,226.92 0 0,1 651.9950009548561,592.8121609650627 L 649.6637851493498,517.2227367555174 A 151.29463640112232,151.29463640112232 0 0 0 649.755080308534,517.2198935821845 Z "/><path class="wedge" fill="url(#hiddenPattern)" d=" M 649.755080308534,517.2198935821845 L 652.131930445649,592.8078966176407 A 226.92,226.92 0 0,1 651.9950009548561,592.8121609650627 L 649.6637851493498,517.2227367555174 A 151.29463640112232,151.29463640112232 0 0 0 649.755080308534,517.2198935821845 Z "/><path class="wedge" fill="rgb(213,171,130)" d=" M 648.5475969171539,503.49653074007006 L 650.8528958270603,592.8445062381666 A 226.92,226.92 0 0,1 650.5678110611536,592.8516825593041 L 648.3747994051971,503.5008805005128 A 137.5422895310443,137.5422895310443 0 0 0 648.5475969171539,503.49653074007006 Z "/><path class="wedge" fill="url(#hiddenPattern)" d=" M 648.5475969171539,503.49653074007006 L 650.8528958270603,592.8445062381666 A 226.92,226.92 0 0,1 650.5678110611536,592.8516825593041 L 648.3747994051971,503.5008805005128 A 137.5422895310443,137.5422895310443 0 0 0 648.5475969171539,503.49653074007006 Z "/><path class="wedge" fill="rgb(210,165,121)" d=" M 647.8369121377983,485.28011869274684 L 650.3954515982069,592.8558474054645 A 226.92,226.92 0 0,1 649.761888110962,592.8700306819273 L 647.5037863717126,485.2875762166295 A 119.31384993299544,119.31384993299544 0 0 0 647.8369121377983,485.28011869274684 Z "/><path class="wedge" fill="url(#hiddenPattern)" d=" M 647.8369121377983,485.28011869274684 L 650.3954515982069,592.8558474054645 A 226.92,226.92 0 0,1 649.761888110962,592.8700306819273 L 647.5037863717126,485.2875762166295 A 119.31384993299544,119.31384993299544 0 0 0 647.8369121377983,485.28011869274684 Z "/><path class="wedge" fill="rgb(207,159,111)" d=" M 646.7686407420481,460.01681459701524 L 649.2680552693387,592.8798583043852 A 226.92,226.92 0 0,1 649.2419654042192,592.8803476053168 L 646.7578293547784,460.01701735857955 A 94.03344892666632,94.03344892666632 0 0 0 646.7686407420481,460.01681459701524 Z "/><path class="wedge" fill="url(#hiddenPattern)" d=" M 646.7686407420481,460.01681459701524 L 649.2680552693387,592.8798583043852 A 226.92,226.92 0 0,1 649.2419654042192,592.8803476053168 L 646.7578293547784,460.01701735857955 A 94.03344892666632,94.03344892666632 0 0 0 646.7686407420481,460.01681459701524 Z "/><path class="wedge" fill="rgb(101,204,204)" d=" M 646.0600254600686,422.7200956101451 L 649.2401018402743,592.8803824405805 A 226.92,226.92 0 0,1 646.8191366674736,592.9127081980757 L 645.4547841668684,422.72817704951893 A 56.73,56.73 0 0 0 646.0600254600686,422.7200956101451 Z "/><path class="wedge" fill="url(#hiddenPattern)" d=" M 646.0600254600686,422.7200956101451 L 649.2401018402743,592.8803824405805 A 226.92,226.92 0 0,1 646.8191366674736,592.9127081980757 L 645.4547841668684,422.72817704951893 A 56.73,56.73 0 0 0 646.0600254600686,422.7200956101451 Z "/><rect fill="rgb(101,204,204)" x="1407.02" y="669.6866666666667" width="22" height="22"/><rect fill="url(#hiddenPattern)" style="stroke:none" x="1407.02" y="669.6866666666667" width="22" height="22"/><path class="line" d="M 648.0296623676728,592.8997742306896 L 649.2675889265068,685.611509937853 A 319.64,319.64 0 0,0 701.0538261158164,680.6866666666667 L 987.82,680.6866666666667 L 1323.4601041666667,680.6866666666667"/><text x="1399.6866666666667" y="680.6866666666667" style="font-color:black;font-weight:normal" text-anchor="end">Viruses&#160;&#160;&#160;0.2%</text><circle cx="645" cy="366" r="56.73"/><circle cx="645" cy="366" r="226.92"/><text x="645" y="366" text-anchor="middle" style="font-color:black;font-weight:bold" transform="rotate(360,645,366)">root</text><rect fill="rgb(220,220,220)" x="1407.02" y="699.02" width="22" height="22"/><path class="line" d="M 645.9095756407966,592.9181770421966 L 646.3789649468612,710.02 L 976.82,710.02 L 1306.7506315104167,710.02"/><text x="1399.6866666666667" y="710.02" style="font-color:black;font-weight:normal" text-anchor="end">[other root]&#160;&#160;&#160;0.1%</text><path class="line" d=" M 646.0600254600686,422.7200956101451 A 56.73,56.73 0 1 0 645,422.73"/><line x1="649.2401018402743" y1="592.8803824405805" x2="646.0600254600686" y2="422.7200956101451"/><text x="645" y="298.0789653220001" text-anchor="middle" style="font-color:black;font-weight:normal" transform="rotate(359.4646701936992,645,366)">cellular organisms</text><path class="line" d=" M 646.7686407420481,460.01681459701524 A 94.03344892666632,94.03344892666632 0 1 0 645,460.0334489266663"/><line x1="649.2680552693387" y1="592.8798583043852" x2="646.7686407420481" y2="460.01681459701524"/><text x="645" y="259.3263505701691" text-anchor="middle" style="font-color:black;font-weight:normal" transform="rotate(359.46114054662473,645,366)">Bacteria</text><path class="line" d=" M 647.8369121377983,485.28011869274684 A 119.31384993299544,119.31384993299544 0 1 0 645,485.3138499329954"/><line x1="650.3954515982069" y1="592.8558474054645" x2="647.8369121377983" y2="485.28011869274684"/><text x="645" y="237.57193026798012" text-anchor="middle" style="font-color:black;font-weight:normal" transform="rotate(359.3187781146194,645,366)">Terrabacteria group</text><path class="line" d=" M 648.5475969171539,503.49653074007006 A 137.5422895310443,137.5422895310443 0 1 0 645,503.5422895310443"/><line x1="650.8528958270603" y1="592.8445062381666" x2="648.5475969171539" y2="503.49653074007006"/><text x="645" y="221.5815370339167" text-anchor="middle" style="font-color:black;font-weight:normal" transform="rotate(359.26100955749996,645,366)">Firmicutes</text><path class="line" d=" M 649.755080308534,517.2198935821845 A 151.29463640112232,151.29463640112232 0 1 0 645,517.2946364011223"/><line x1="652.131930445649" y1="592.8078966176407" x2="649.755080308534" y2="517.2198935821845"/><path class="line" d=" M 782.9531093754256,450.9923383300867 A 162.03320018182714,162.03320018182714 0 1 0 645,528.0332001818272"/><line x1="838.1969469487929" y1="485.02783745689635" x2="782.9531093754256" y2="450.9923383300867"/><path class="line" d=" M 791.6982208142812,453.17980755262397 A 170.6478445073015,170.6478445073015 0 1 0 645,536.6478445073014"/><line x1="840.0728435116704" y1="481.92787466468695" x2="791.6982208142812" y2="453.17980755262397"/><path class="line" d=" M 798.1448473800184,456.15342373820715 A 177.71039387376834,177.71039387376834 0 1 0 645,543.7103938737683"/><line x1="840.5520327761956" y1="481.1177174769275" x2="798.1448473800184" y2="456.15342373820715"/><path class="line" d=" M 804.8638353728168,456.3009330095712 A 183.6047503811003,183.6047503811003 0 1 0 645,549.6047503811003"/><line x1="842.5782295801305" y1="477.6043439834724" x2="804.8638353728168" y2="456.3009330095712"/><text x="439.7376248094498" y="366" text-anchor="end" style="font-color:black;font-weight:normal" transform="rotate(59.730217308604914,645,366)">Enterococcus faecalis&#160;&#160;&#160;83%</text><path class="line" d=" M 550.0600778190806,528.9590407605202 A 188.59808532778885,188.59808532778885 0 0 0 645,554.5980853277888"/><line x1="530.7688978981386" y1="562.0712669224996" x2="550.0600778190806" y2="528.9590407605202"/><text x="437.24095733610557" y="366" text-anchor="end" style="font-color:black;font-weight:normal" transform="rotate(-74.88746308577436,645,366)">Enterococcus faecalis V583&#160;&#160;&#160;8%</text><path class="line" d=" M 507.6748219238003,495.27116173241416 A 188.59808532778885,188.59808532778885 0 0 0 550.0600778190806,528.9590407605202"/><line x1="479.77123134685553" y1="521.5382281285397" x2="507.6748219238003" y2="495.27116173241416"/><text x="437.24095733610557" y="366" text-anchor="end" style="font-color:black;font-weight:normal" transform="rotate(-51.522258346634885,645,366)">Enterococcus faecalis str. Symbioflor 1&#160;&#160;&#160;5%</text><path class="line" d=" M 480.3616806236438,457.99707376996764 A 188.59808532778885,188.59808532778885 0 0 0 507.6748219238003,495.27116173241416"/><line x1="446.9082358765707" y1="476.69028587219225" x2="480.3616806236438" y2="457.99707376996764"/><text x="437.24095733610557" y="366" text-anchor="end" style="font-color:black;font-weight:normal" transform="rotate(-36.23265080417125,645,366)">Enterococcus faecalis OG1RF&#160;&#160;&#160;4%</text><path class="line" d=" M 463.00111920902066,415.453464794075 A 188.59808532778885,188.59808532778885 0 0 0 480.3616806236438,457.99707376996764"/><line x1="426.0201203405121" y1="425.50208991553325" x2="463.00111920902066" y2="415.453464794075"/><text x="437.24095733610557" y="366" text-anchor="end" style="font-color:black;font-weight:normal" transform="rotate(-22.198656381013627,645,366)">Enterococcus faecalis D32&#160;&#160;&#160;4%</text><path class="line" d=" M 804.7242015820211,456.54768794117297 A 183.6047503811003,183.6047503811003 0 0 0 804.8638353728168,456.3009330095712"/><line x1="842.4056539809611" y1="477.9093122861053" x2="804.7242015820211" y2="456.54768794117297"/><path class="line" d=" M 798.1218866751594,456.19241604375344 A 177.71039387376834,177.71039387376834 0 0 0 798.1448473800184,456.15342373820715"/><line x1="840.5227140456868" y1="481.16750710251824" x2="798.1218866751594" y2="456.19241604375344"/><path class="line" d=" M 790.926719603503,454.46513064902337 A 170.6478445073015,170.6478445073015 0 0 0 791.6982208142812,453.17980755262397"/><line x1="839.0469351255712" y1="483.6370408008139" x2="790.926719603503" y2="454.46513064902337"/><path class="line" d=" M 656.5313021360658,527.6223593201473 A 162.03320018182714,162.03320018182714 0 0 0 782.9531093754256,450.9923383300867"/><line x1="661.1490551182087" y1="592.3446363817553" x2="656.5313021360658" y2="527.6223593201473"/><path class="line" d=" M 657.5386124131653,536.1865741876854 A 170.6478445073015,170.6478445073015 0 0 0 790.2875134946368,455.5110342780928"/><line x1="661.6732954465987" y1="592.3066230116794" x2="657.5386124131653" y2="536.1865741876854"/><path class="line" d=" M 658.2831735918048,543.213265276897 A 177.71039387376834,177.71039387376834 0 0 0 796.300482714082,459.2155996668779"/><line x1="661.9614038084537" y1="592.2852120242208" x2="658.2831735918048" y2="543.213265276897"/><path class="line" d=" M 666.5957098406877,548.3302763640284 A 183.6047503811003,183.6047503811003 0 0 0 801.3188666442966,462.3074051854206"/><line x1="671.6904775986303" y1="591.3448575085685" x2="666.5957098406877" y2="548.3302763640284"/><text x="850.2623751905502" y="366" text-anchor="start" style="font-color:black;font-weight:normal" transform="rotate(417.4411235258822,645,366)">14%&#160;&#160;&#160;Staphylococcus epidermidis</text><path class="line" d=" M 792.4065832758217,483.6458116392426 A 188.59808532778885,188.59808532778885 0 0 0 805.5701317015544,464.92659194904775"/><line x1="822.3586503744897" y1="507.55068186815464" x2="792.4065832758217" y2="483.6458116392426"/><text x="852.7590426638944" y="366" text-anchor="start" style="font-color:black;font-weight:normal" transform="rotate(395.1152821952836,645,366)">2%&#160;&#160;&#160;Staphylococcus epidermidis RP62A</text><path class="line" d=" M 781.6100837756064,496.0266234281646 A 188.59808532778885,188.59808532778885 0 0 0 792.4065832758217,483.6458116392426"/><line x1="809.3683718023037" y1="522.4471947689049" x2="781.6100837756064" y2="496.0266234281646"/><text x="852.7590426638944" y="366" text-anchor="start" style="font-color:black;font-weight:normal" transform="rotate(401.08956283360067,645,366)">1%&#160;&#160;&#160;Staphylococcus epidermidis ATCC 12228</text><path class="line" d=" M 664.3124305605962,548.586238222787 A 183.6047503811003,183.6047503811003 0 0 0 666.5957098406877,548.3302763640284"/><line x1="668.868536809174" y1="591.6612047973446" x2="664.3124305605962" y2="548.586238222787"/><path class="line" d=" M 658.2795345758657,543.2135380049117 A 177.71039387376834,177.71039387376834 0 0 0 658.2831735918048,543.213265276897"/><line x1="661.9567571162771" y1="592.2855602730752" x2="658.2795345758657" y2="543.2135380049117"/><path class="line" d=" M 657.2597168506563,536.2068922744608 A 170.6478445073015,170.6478445073015 0 0 0 657.5386124131653,536.1865741876854"/><line x1="661.3024323910045" y1="592.3336411100584" x2="657.2597168506563" y2="536.2068922744608"/><path class="line" d=" M 649.6637851493498,517.2227367555174 A 151.29463640112232,151.29463640112232 0 0 0 649.755080308534,517.2198935821845"/><line x1="651.9950009548561" y1="592.8121609650627" x2="649.6637851493498" y2="517.2227367555174"/><path class="line" d=" M 648.3747994051971,503.5008805005128 A 137.5422895310443,137.5422895310443 0 0 0 648.5475969171539,503.49653074007006"/><line x1="650.5678110611536" y1="592.8516825593041" x2="648.3747994051971" y2="503.5008805005128"/><path class="line" d=" M 647.5037863717126,485.2875762166295 A 119.31384993299544,119.31384993299544 0 0 0 647.8369121377983,485.28011869274684"/><line x1="649.761888110962" y1="592.8700306819273" x2="647.5037863717126" y2="485.2875762166295"/><path class="line" d=" M 646.7578293547784,460.01701735857955 A 94.03344892666632,94.03344892666632 0 0 0 646.7686407420481,460.01681459701524"/><line x1="649.2419654042192" y1="592.8803476053168" x2="646.7578293547784" y2="460.01701735857955"/><path class="line" d=" M 645.4547841668684,422.72817704951893 A 56.73,56.73 0 0 0 646.0600254600686,422.7200956101451"/><line x1="646.8191366674736" y1="592.9127081980757" x2="645.4547841668684" y2="422.72817704951893"/></svg>