<?xml version="1.0" standalone="no"?><!DOCTYPE svg PUBLIC "-//W3C//DTD SVG 1.1//EN" 	"http://www.w3.org/Graphics/SVG/1.1/DTD/svg11.dtd"><svg width="1440" height="789" version="1.1"	xmlns="http://www.w3.org/2000/svg"><title>Krona (snapshot) - root</title><defs>	<style type="text/css">	text {font-size: 11px; font-family: sans-serif; dominant-baseline:central}	path {stroke-width:0.27499999999999997;}	path.wedge {stroke:none}	path.line {fill:none;stroke:black;}	line {stroke:black;stroke-width:0.27499999999999997;}	line.tick {stroke-width:0.5499999999999999;}	line.pattern {stroke-width:0.18333333333333332;}	circle {fill:none;stroke:black;stroke-width:0.27499999999999997;}	rect {stroke:black;stroke-width:0.27499999999999997;}	.highlight {stroke:black;stroke-width:1.375;}	.searchHighlight {fill:rgb(255, 255, 100);stroke:none;}	</style><pattern id="hiddenPattern" patternUnits="userSpaceOnUse" x="0" y="0" width="6.6" height="6.6"><line class="pattern" x1="0" y1="0" x2="3.3" y2="3.3"/><line class="pattern" x1="3.3" y1="6.6" x2="6.6" y2="3.3"/></pattern></defs><path class="wedge" fill="rgb(220,220,220)" d=" M 645.4765408799963,455.64564305851803 L 646.9061635199851,639.0825722340721 A 244.59,244.59 0 0,1 645.0000000000001,639.09 L 645,455.6475 A 61.1475,61.1475 0 0 0 645.4765408799963,455.64564305851803 Z "/><path class="wedge" fill="rgb(207,111,111)" d=" M 645,455.6475 L 645,639.09 A 244.59,244.59 0 1,1 649.3504872840783,639.0513061923634 L 646.0876218210196,455.63782654809086 A 61.1475,61.1475 0 1 0 645,455.6475 Z "/><path class="wedge" fill="rgb(207,111,111)" d=" M 646.8039862177453,495.83967023498445 L 649.3533504003454,639.0512552417015 A 244.59,244.59 0 0,1 649.3504872840783,639.0513061923634 L 646.8027997701106,495.839691348445 A 101.35572568734936,101.35572568734936 0 0 0 646.8039862177453,495.83967023498445 Z "/><path class="wedge" fill="rgb(210,121,121)" d=" M 645,495.8557256873494 L 645,639.09 A 244.59,244.59 0 1,1 649.3609853741393,639.0511192093926 L 646.8071500768953,495.8396138645139 A 101.35572568734936,101.35572568734936 0 1 0 645,495.8557256873494 Z "/><path class="wedge" fill="rgb(210,121,121)" d=" M 647.6738527802312,523.0768831273413 L 650.0853331212663,639.0371290561941 A 244.59,244.59 0 0,1 649.3609853741393,639.0511192093926 L 647.2929929247755,523.0842391075954 A 128.6046825097451,128.6046825097451 0 0 0 647.6738527802312,523.0768831273413 Z "/><path class="wedge" fill="rgb(213,130,130)" d=" M 645,523.1046825097451 L 645,639.09 A 244.59,244.59 0 1,1 650.582521352158,639.0262839764935 L 647.9352728488416,523.0711808172235 A 128.6046825097451,128.6046825097451 0 1 0 645,523.1046825097451 Z "/><path class="wedge" fill="rgb(213,130,130)" d=" M 648.5092297423918,542.7110111405536 L 650.789596900405,639.0214687256127 A 244.59,244.59 0 0,1 650.582521352158,639.0262839764935 L 648.3837157065562,542.7139297930778 A 148.2525497814125,148.2525497814125 0 0 0 648.5092297423918,542.7110111405536 Z "/><path class="wedge" fill="rgb(216,140,140)" d=" M 645,542.7525497814125 L 645,639.09 A 244.59,244.59 0 1,1 650.8745253109112,639.0194430968046 L 648.560707126612,542.7097833526811 A 148.2525497814125,148.2525497814125 0 1 0 645,542.7525497814125 Z "/><path class="wedge" fill="rgb(216,140,140)" d=" M 649.9556008743241,557.5004625067131 L 652.4326821964805,638.9770405076233 A 244.59,244.59 0 0,1 650.8745253109112,639.0194430968046 L 648.916729115739,557.5287336344791 A 163.07577612088187,163.07577612088187 0 0 0 649.9556008743241,557.5004625067131 Z "/><path class="wedge" fill="rgb(219,149,149)" d=" M 645,557.5757761208819 L 645,639.09 A 244.59,244.59 0 1,1 652.5109165683647,638.9746494675942 L 650.0077621683849,557.4988683258043 A 163.07577612088187,163.07577612088187 0 1 0 645,557.5757761208819 Z "/><path class="wedge" fill="rgb(219,149,149)" d=" M 657.8824462786835,568.6747787125812 L 663.0412699760201,638.4237189730682 A 244.59,244.59 0 0,1 652.5109165683647,638.9746494675942 L 650.3632022204779,569.0681729973767 A 174.65053954024813,174.65053954024813 0 0 0 657.8824462786835,568.6747787125812 Z "/><path class="wedge" fill="rgb(223,159,159)" d=" M 645,569.1505395402481 L 645,639.09 A 244.59,244.59 0 1,1 795.2400002047051,587.508317018957 L 752.2795171359367,532.3184173642262 A 174.65053954024813,174.65053954024813 0 1 0 645,569.1505395402481 Z "/><path class="wedge" fill="rgb(223,159,159)" d=" M 759.0404776546262,538.8163892410416 L 796.6460126648744,586.4055886180616 A 244.59,244.59 0 0,1 795.2400002047051,587.508317018957 L 757.9831314723667,539.6456604586062 A 183.93599633368976,183.93599633368976 0 0 0 759.0404776546262,538.8163892410416 Z "/><path class="wedge" fill="rgb(226,168,168)" d=" M 645,578.4359963336898 L 645,639.09 A 244.59,244.59 0 1,1 798.1630340317363,585.1970191329514 L 760.181304493717,537.9075236603463 A 183.93599633368976,183.93599633368976 0 1 0 645,578.4359963336898 Z "/><path class="wedge" fill="rgb(226,168,168)" d=" M 765.5452838827177,543.3612163737555 L 798.9253569945749,584.5822258237015 A 244.59,244.59 0 0,1 798.1630340317363,585.1970191329514 L 764.9482773871022,543.8426863241244 A 191.54849831475852,191.54849831475852 0 0 0 765.5452838827177,543.3612163737555 Z "/><path class="wedge" fill="rgb(229,178,178)" d=" M 645,586.0484983147585 L 645,639.09 A 244.59,244.59 0 1,1 798.9565107038493,584.5569938515695 L 765.5696816349907,543.3414561776256 A 191.54849831475852,191.54849831475852 0 1 0 645,586.0484983147585 Z "/><path class="wedge" fill="rgb(229,178,178)" d=" M 772.591559639922,545.7796510342582 L 802.6924162005312,581.4689010847484 A 244.59,244.59 0 0,1 798.9565107038493,584.5569938515695 L 769.568776297045,548.2782783108573 A 197.90184159930075,197.90184159930075 0 0 0 772.591559639922,545.7796510342582 Z "/><path class="wedge" fill="rgb(229,178,178)" d=" M 645,592.4018415993007 L 645,639.09 A 244.59,244.59 0 1,1 803.0540291020527,581.1633118333849 L 772.8841466596577,545.5323936826993 A 197.90184159930075,197.90184159930075 0 1 0 645,592.4018415993007 Z "/><path class="wedge" fill="rgb(229,178,178)" d=" M 445.5339399447625,433.71321559384575 L 405.0037228953497,441.68108811704025 A 244.59,244.59 0 1,1 803.0540291020527,581.1633118333849 L 776.3620979507746,549.6398872409677 A 203.28400180823144,203.28400180823144 0 1 0 445.5339399447625,433.71321559384575 Z "/><path class="wedge" fill="rgb(229,178,178)" d=" M 645,597.7840018082314 L 645,639.09 A 244.59,244.59 0 0,1 515.1703028650835,601.7884894099425 L 537.0957504921031,566.7819152706011 A 203.28400180823144,203.28400180823144 0 0 0 645,597.7840018082314 Z "/><path class="wedge" fill="rgb(229,180,178)" d=" M 537.0957504921031,566.7819152706011 L 515.1703028650835,601.7884894099425 A 244.59,244.59 0 0,1 459.1141095395078,553.4676188024148 L 490.50624435792383,526.6214019709732 A 203.28400180823144,203.28400180823144 0 0 0 537.0957504921031,566.7819152706011 Z "/><path class="wedge" fill="rgb(229,181,178)" d=" M 490.50624435792383,526.6214019709732 L 459.1141095395078,553.4676188024148 A 244.59,244.59 0 0,1 424.7685067298984,500.90656686511966 L 461.9608762576195,482.93678290615594 A 203.28400180823144,203.28400180823144 0 0 0 490.50624435792383,526.6214019709732 Z "/><path class="wedge" fill="rgb(229,182,178)" d=" M 461.9608762576195,482.93678290615594 L 424.7685067298984,500.90656686511966 A 244.59,244.59 0 0,1 405.0037228953497,441.68108811704025 L 445.5339399447625,433.71321559384575 A 203.28400180823144,203.28400180823144 0 0 0 461.9608762576195,482.93678290615594 Z "/><path class="wedge" fill="rgb(229,199,178)" d=" M 772.8841466596577,545.5323936826993 L 803.0540291020527,581.1633118333849 A 244.59,244.59 0 0,1 802.6924162005312,581.4689010847484 L 772.591559639922,545.7796510342582 A 197.90184159930075,197.90184159930075 0 0 0 772.8841466596577,545.5323936826993 Z "/><path class="wedge" fill="url(#hiddenPattern)" d=" M 772.8841466596577,545.5323936826993 L 803.0540291020527,581.1633118333849 A 244.59,244.59 0 0,1 802.6924162005312,581.4689010847484 L 772.591559639922,545.7796510342582 A 197.90184159930075,197.90184159930075 0 0 0 772.8841466596577,545.5323936826993 Z "/><path class="wedge" fill="rgb(226,193,168)" d=" M 765.5696816349907,543.3414561776256 L 798.9565107038493,584.5569938515695 A 244.59,244.59 0 0,1 798.9253569945749,584.5822258237015 L 765.5452838827177,543.3612163737555 A 191.54849831475852,191.54849831475852 0 0 0 765.5696816349907,543.3414561776256 Z "/><path class="wedge" fill="url(#hiddenPattern)" d=" M 765.5696816349907,543.3414561776256 L 798.9565107038493,584.5569938515695 A 244.59,244.59 0 0,1 798.9253569945749,584.5822258237015 L 765.5452838827177,543.3612163737555 A 191.54849831475852,191.54849831475852 0 0 0 765.5696816349907,543.3414561776256 Z "/><path class="wedge" fill="rgb(223,186,159)" d=" M 760.181304493717,537.9075236603463 L 798.1630340317363,585.1970191329514 A 244.59,244.59 0 0,1 796.6460126648744,586.4055886180616 L 759.0404776546262,538.8163892410416 A 183.93599633368976,183.93599633368976 0 0 0 760.181304493717,537.9075236603463 Z "/><path class="wedge" fill="url(#hiddenPattern)" d=" M 760.181304493717,537.9075236603463 L 798.1630340317363,585.1970191329514 A 244.59,244.59 0 0,1 796.6460126648744,586.4055886180616 L 759.0404776546262,538.8163892410416 A 183.93599633368976,183.93599633368976 0 0 0 760.181304493717,537.9075236603463 Z "/><path class="wedge" fill="rgb(223,186,159)" d=" M 752.2795171359367,532.3184173642262 L 795.2400002047051,587.508317018957 A 244.59,244.59 0 0,1 663.0412699760201,638.4237189730682 L 657.8824462786835,568.6747787125812 A 174.65053954024813,174.65053954024813 0 0 0 752.2795171359367,532.3184173642262 Z "/><path class="wedge" fill="rgb(223,186,159)" d=" M 658.6596979906865,577.928087811192 L 663.1640657518763,638.4146055802348 A 244.59,244.59 0 0,1 663.0412699760201,638.4237189730682 L 658.5673534002385,577.9349412434287 A 183.93599633368976,183.93599633368976 0 0 0 658.6596979906865,577.928087811192 Z "/><path class="wedge" fill="rgb(226,193,168)" d=" M 757.9831314723667,539.6456604586062 L 795.2400002047051,587.508317018957 A 244.59,244.59 0 0,1 663.4753180688884,638.3912272351209 L 658.893765225818,577.9105068831036 A 183.93599633368976,183.93599633368976 0 0 0 757.9831314723667,539.6456604586062 Z "/><path class="wedge" fill="rgb(226,193,168)" d=" M 659.6290360819968,585.4890533772831 L 663.6799477248625,638.3756397285231 A 244.59,244.59 0 0,1 663.4753180688884,638.3912272351209 L 659.4687821741817,585.5012605954084 A 191.54849831475852,191.54849831475852 0 0 0 659.6290360819968,585.4890533772831 Z "/><path class="wedge" fill="rgb(229,200,178)" d=" M 762.6591292612956,545.6527588504847 L 795.2400002047051,587.508317018957 A 244.59,244.59 0 0,1 663.6961271850388,638.3743999034766 L 659.6417068833391,585.4880824192479 A 191.54849831475852,191.54849831475852 0 0 0 762.6591292612956,545.6527588504847 Z "/><path class="wedge" fill="rgb(229,200,178)" d=" M 664.1459556804325,591.4735294131616 L 668.6627878853126,637.9426843622431 A 244.59,244.59 0 0,1 663.6961271850388,638.3743999034766 L 660.1273478093705,591.8228376459477 A 197.90184159930075,197.90184159930075 0 0 0 664.1459556804325,591.4735294131616 Z "/><path class="wedge" fill="rgb(229,200,178)" d=" M 766.5616857696164,550.6662430272426 L 795.2400002047051,587.508317018957 A 244.59,244.59 0 0,1 671.5074427086959,637.6493853190775 L 666.4476132635793,591.2362162736964 A 197.90184159930075,197.90184159930075 0 0 0 766.5616857696164,550.6662430272426 Z "/><path class="wedge" fill="rgb(229,200,178)" d=" M 747.7443523517607,569.9080484213489 L 768.6213421527575,605.5498326565337 A 244.59,244.59 0 0,1 671.5074427086959,637.6493853190775 L 667.0309049083206,596.5866760083147 A 203.28400180823144,203.28400180823144 0 0 0 747.7443523517607,569.9080484213489 Z "/><path class="wedge" fill="rgb(229,200,178)" d=" M 769.8676907203155,554.9133573158566 L 795.2400002047051,587.508317018957 A 244.59,244.59 0 0,1 780.4726258441599,598.1453676047856 L 757.5942087455336,563.7540384987497 A 203.28400180823144,203.28400180823144 0 0 0 769.8676907203155,554.9133573158566 Z "/><path class="wedge" fill="rgb(229,200,178)" d=" M 757.5942087455336,563.7540384987497 L 780.4726258441599,598.1453676047856 A 244.59,244.59 0 0,1 768.6213421527575,605.5498326565337 L 747.7443523517607,569.9080484213489 A 203.28400180823144,203.28400180823144 0 0 0 757.5942087455336,563.7540384987497 Z "/><path class="wedge" fill="rgb(229,202,178)" d=" M 666.4476132635793,591.2362162736964 L 671.5074427086959,637.6493853190775 A 244.59,244.59 0 0,1 668.6627878853126,637.9426843622431 L 664.1459556804325,591.4735294131616 A 197.90184159930075,197.90184159930075 0 0 0 666.4476132635793,591.2362162736964 Z "/><path class="wedge" fill="url(#hiddenPattern)" d=" M 666.4476132635793,591.2362162736964 L 671.5074427086959,637.6493853190775 A 244.59,244.59 0 0,1 668.6627878853126,637.9426843622431 L 664.1459556804325,591.4735294131616 A 197.90184159930075,197.90184159930075 0 0 0 666.4476132635793,591.2362162736964 Z "/><path class="wedge" fill="rgb(226,196,168)" d=" M 659.6417068833391,585.4880824192479 L 663.6961271850388,638.3743999034766 A 244.59,244.59 0 0,1 663.6799477248625,638.3756397285231 L 659.6290360819968,585.4890533772831 A 191.54849831475852,191.54849831475852 0 0 0 659.6417068833391,585.4880824192479 Z "/><path class="wedge" fill="url(#hiddenPattern)" d=" M 659.6417068833391,585.4880824192479 L 663.6961271850388,638.3743999034766 A 244.59,244.59 0 0,1 663.6799477248625,638.3756397285231 L 659.6290360819968,585.4890533772831 A 191.54849831475852,191.54849831475852 0 0 0 659.6417068833391,585.4880824192479 Z "/><path class="wedge" fill="rgb(223,189,159)" d=" M 658.893765225818,577.9105068831036 L 663.4753180688884,638.3912272351209 A 244.59,244.59 0 0,1 663.1640657518763,638.4146055802348 L 658.6596979906865,577.928087811192 A 183.93599633368976,183.93599633368976 0 0 0 658.893765225818,577.9105068831036 Z "/><path class="wedge" fill="url(#hiddenPattern)" d=" M 658.893765225818,577.9105068831036 L 663.4753180688884,638.3912272351209 A 244.59,244.59 0 0,1 663.1640657518763,638.4146055802348 L 658.6596979906865,577.928087811192 A 183.93599633368976,183.93599633368976 0 0 0 658.893765225818,577.9105068831036 Z "/><path class="wedge" fill="rgb(216,177,140)" d=" M 650.0077621683849,557.4988683258043 L 652.5109165683647,638.9746494675942 A 244.59,244.59 0 0,1 652.4326821964805,638.9770405076233 L 649.9556008743241,557.5004625067131 A 163.07577612088187,163.07577612088187 0 0 0 650.0077621683849,557.4988683258043 Z "/><path class="wedge" fill="url(#hiddenPattern)" d=" M 650.0077621683849,557.4988683258043 L 652.5109165683647,638.9746494675942 A 244.59,244.59 0 0,1 652.4326821964805,638.9770405076233 L 649.9556008743241,557.5004625067131 A 163.07577612088187,163.07577612088187 0 0 0 650.0077621683849,557.4988683258043 Z "/><path class="wedge" fill="rgb(213,171,130)" d=" M 648.560707126612,542.7097833526811 L 650.8745253109112,639.0194430968046 A 244.59,244.59 0 0,1 650.789596900405,639.0214687256127 L 648.5092297423918,542.7110111405536 A 148.2525497814125,148.2525497814125 0 0 0 648.560707126612,542.7097833526811 Z "/><path class="wedge" fill="url(#hiddenPattern)" d=" M 648.560707126612,542.7097833526811 L 650.8745253109112,639.0194430968046 A 244.59,244.59 0 0,1 650.789596900405,639.0214687256127 L 648.5092297423918,542.7110111405536 A 148.2525497814125,148.2525497814125 0 0 0 648.560707126612,542.7097833526811 Z "/><path class="wedge" fill="rgb(210,165,121)" d=" M 647.9352728488416,523.0711808172235 L 650.582521352158,639.0262839764935 A 244.59,244.59 0 0,1 650.0853331212663,639.0371290561941 L 647.6738527802312,523.0768831273413 A 128.6046825097451,128.6046825097451 0 0 0 647.9352728488416,523.0711808172235 Z "/><path class="wedge" fill="url(#hiddenPattern)" d=" M 647.9352728488416,523.0711808172235 L 650.582521352158,639.0262839764935 A 244.59,244.59 0 0,1 650.0853331212663,639.0371290561941 L 647.6738527802312,523.0768831273413 A 128.6046825097451,128.6046825097451 0 0 0 647.9352728488416,523.0711808172235 Z "/><path class="wedge" fill="rgb(207,159,111)" d=" M 646.8071500768953,495.8396138645139 L 649.3609853741393,639.0511192093926 A 244.59,244.59 0 0,1 649.3533504003454,639.0512552417015 L 646.8039862177453,495.83967023498445 A 101.35572568734936,101.35572568734936 0 0 0 646.8071500768953,495.8396138645139 Z "/><path class="wedge" fill="url(#hiddenPattern)" d=" M 646.8071500768953,495.8396138645139 L 649.3609853741393,639.0511192093926 A 244.59,244.59 0 0,1 649.3533504003454,639.0512552417015 L 646.8039862177453,495.83967023498445 A 101.35572568734936,101.35572568734936 0 0 0 646.8071500768953,495.8396138645139 Z "/><path class="wedge" fill="rgb(101,204,204)" d=" M 646.0876218210196,455.63782654809086 L 649.3504872840783,639.0513061923634 A 244.59,244.59 0 0,1 646.9061635199851,639.0825722340721 L 645.4765408799963,455.64564305851803 A 61.1475,61.1475 0 0 0 646.0876218210196,455.63782654809086 Z "/><path class="wedge" fill="url(#hiddenPattern)" d=" M 646.0876218210196,455.63782654809086 L 649.3504872840783,639.0513061923634 A 244.59,244.59 0 0,1 646.9061635199851,639.0825722340721 L 645.4765408799963,455.64564305851803 A 61.1475,61.1475 0 0 0 646.0876218210196,455.63782654809086 Z "/><rect fill="rgb(101,204,204)" x="1406.165" y="725.8316666666667" width="22" height="22"/><rect fill="url(#hiddenPattern)" style="stroke:none" x="1406.165" y="725.8316666666667" width="22" height="22"/><path class="line" d="M 648.1283644628364,639.0699929177488 L 649.4066209100168,739.0018179809149 A 344.53,344.53 0 0,0 683.8580866387188,736.8316666666667 L 1014.515,736.8316666666667 L 1322.6051041666667,736.8316666666667"/><text x="1398.8316666666667" y="736.8316666666667" style="font-color:black;font-weight:normal" text-anchor="end">Viruses&#160;&#160;&#160;0.2%</text><circle cx="645" cy="394.5" r="61.1475"/><circle cx="645" cy="394.5" r="244.59"/><text x="645" y="394.5" text-anchor="middle" style="font-color:black;font-weight:bold" transform="rotate(360,645,394.5)">root</text><rect fill="rgb(220,220,220)" x="1406.165" y="755.165" width="22" height="22"/><path class="line" d="M 645.9530889959269,639.0881430514689 L 646.4482706203654,766.165 L 1003.515,766.165 L 1305.8956315104167,766.165"/><text x="1398.8316666666667" y="766.165" style="font-color:black;font-weight:normal" text-anchor="end">[other root]&#160;&#160;&#160;0.1%</text><path class="line" d=" M 646.0876218210196,455.63782654809086 A 61.1475,61.1475 0 1 0 645,455.6475"/><line x1="649.3504872840783" y1="639.0513061923634" x2="646.0876218210196" y2="455.63782654809086"/><text x="645" y="321.2900322937952" text-anchor="middle" style="font-color:black;font-weight:normal" transform="rotate(359.49041721764223,645,394.5)">cellular organisms</text><path class="line" d=" M 646.8071500768953,495.8396138645139 A 101.35572568734936,101.35572568734936 0 1 0 645,495.8557256873494"/><line x1="649.3609853741393" y1="639.0511192093926" x2="646.8071500768953" y2="495.8396138645139"/><text x="645" y="284.9695872659319" text-anchor="middle" style="font-color:black;font-weight:normal" transform="rotate(359.4891874215462,645,394.5)">Bacteria</text><path class="line" d=" M 647.9352728488416,523.0711808172235 A 128.6046825097451,128.6046825097451 0 1 0 645,523.1046825097451"/><line x1="650.582521352158" y1="639.0262839764935" x2="647.9352728488416" y2="523.0711808172235"/><text x="645" y="256.07138385442124" text-anchor="middle" style="font-color:black;font-weight:normal" transform="rotate(359.34608387582045,645,394.5)">Terrabacteria group</text><path class="line" d=" M 648.560707126612,542.7097833526811 A 148.2525497814125,148.2525497814125 0 1 0 645,542.7525497814125"/><line x1="650.8745253109112" y1="639.0194430968046" x2="648.560707126612" y2="542.7097833526811"/><text x="645" y="238.83583704885282" text-anchor="middle" style="font-color:black;font-weight:normal" transform="rotate(359.3118731844204,645,394.5)">Firmicutes</text><path class="line" d=" M 650.0077621683849,557.4988683258043 A 163.07577612088187,163.07577612088187 0 1 0 645,557.5757761208819"/><line x1="652.5109165683647" y1="638.9746494675942" x2="650.0077621683849" y2="557.4988683258043"/><path class="line" d=" M 752.2795171359367,532.3184173642262 A 174.65053954024813,174.65053954024813 0 1 0 645,569.1505395402481"/><line x1="795.2400002047051" y1="587.508317018957" x2="752.2795171359367" y2="532.3184173642262"/><path class="line" d=" M 760.181304493717,537.9075236603463 A 183.93599633368976,183.93599633368976 0 1 0 645,578.4359963336898"/><line x1="798.1630340317363" y1="585.1970191329514" x2="760.181304493717" y2="537.9075236603463"/><path class="line" d=" M 765.5696816349907,543.3414561776256 A 191.54849831475852,191.54849831475852 0 1 0 645,586.0484983147585"/><line x1="798.9565107038493" y1="584.5569938515695" x2="765.5696816349907" y2="543.3414561776256"/><path class="line" d=" M 772.8841466596577,545.5323936826993 A 197.90184159930075,197.90184159930075 0 1 0 645,592.4018415993007"/><line x1="803.0540291020527" y1="581.1633118333849" x2="772.8841466596577" y2="545.5323936826993"/><text x="423.75407920034957" y="394.5" text-anchor="end" style="font-color:black;font-weight:normal" transform="rotate(69.87215089473877,645,394.5)">Enterococcus faecalis&#160;&#160;&#160;89%</text><path class="line" d=" M 537.0957504921031,566.7819152706011 A 203.28400180823144,203.28400180823144 0 0 0 645,597.7840018082314"/><line x1="515.1703028650835" y1="601.7884894099425" x2="537.0957504921031" y2="566.7819152706011"/><text x="421.06299909588427" y="394.5" text-anchor="end" style="font-color:black;font-weight:normal" transform="rotate(-73.97005508616958,645,394.5)">Enterococcus faecalis V583&#160;&#160;&#160;9%</text><path class="line" d=" M 490.50624435792383,526.6214019709732 A 203.28400180823144,203.28400180823144 0 0 0 537.0957504921031,566.7819152706011"/><line x1="459.1141095395078" y1="553.4676188024148" x2="490.50624435792383" y2="526.6214019709732"/><text x="421.06299909588427" y="394.5" text-anchor="end" style="font-color:black;font-weight:normal" transform="rotate(-49.23840839540801,645,394.5)">Enterococcus faecalis str. Symbioflor 1&#160;&#160;&#160;5%</text><path class="line" d=" M 461.9608762576195,482.93678290615594 A 203.28400180823144,203.28400180823144 0 0 0 490.50624435792383,526.6214019709732"/><line x1="424.7685067298984" y1="500.90656686511966" x2="461.9608762576195" y2="482.93678290615594"/><text x="421.06299909588427" y="394.5" text-anchor="end" style="font-color:black;font-weight:normal" transform="rotate(-33.162290228151996,645,394.5)">Enterococcus faecalis OG1RF&#160;&#160;&#160;4%</text><path class="line" d=" M 445.5339399447625,433.71321559384575 A 203.28400180823144,203.28400180823144 0 0 0 461.9608762576195,482.93678290615594"/><line x1="405.0037228953497" y1="441.68108811704025" x2="445.5339399447625" y2="433.71321559384575"/><text x="421.06299909588427" y="394.5" text-anchor="end" style="font-color:black;font-weight:normal" transform="rotate(-18.454935115833734,645,394.5)">Enterococcus faecalis D32&#160;&#160;&#160;4%</text><path class="line" d=" M 772.591559639922,545.7796510342582 A 197.90184159930075,197.90184159930075 0 0 0 772.8841466596577,545.5323936826993"/><line x1="802.6924162005312" y1="581.4689010847484" x2="772.591559639922" y2="545.7796510342582"/><path class="line" d=" M 765.5452838827177,543.3612163737555 A 191.54849831475852,191.54849831475852 0 0 0 765.5696816349907,543.3414561776256"/><line x1="798.9253569945749" y1="584.5822258237015" x2="765.5452838827177" y2="543.3612163737555"/><path class="line" d=" M 759.0404776546262,538.8163892410416 A 183.93599633368976,183.93599633368976 0 0 0 760.181304493717,537.9075236603463"/><line x1="796.6460126648744" y1="586.4055886180616" x2="759.0404776546262" y2="538.8163892410416"/><path class="line" d=" M 657.8824462786835,568.6747787125812 A 174.65053954024813,174.65053954024813 0 0 0 752.2795171359367,532.3184173642262"/><line x1="663.0412699760201" y1="638.4237189730682" x2="657.8824462786835" y2="568.6747787125812"/><path class="line" d=" M 658.893765225818,577.9105068831036 A 183.93599633368976,183.93599633368976 0 0 0 757.9831314723667,539.6456604586062"/><line x1="663.4753180688884" y1="638.3912272351209" x2="658.893765225818" y2="577.9105068831036"/><path class="line" d=" M 659.6417068833391,585.4880824192479 A 191.54849831475852,191.54849831475852 0 0 0 762.6591292612956,545.6527588504847"/><line x1="663.6961271850388" y1="638.3743999034766" x2="659.6417068833391" y2="585.4880824192479"/><path class="line" d=" M 666.4476132635793,591.2362162736964 A 197.90184159930075,197.90184159930075 0 0 0 766.5616857696164,550.6662430272426"/><line x1="671.5074427086959" y1="637.6493853190775" x2="666.4476132635793" y2="591.2362162736964"/><text x="866.2459207996504" y="394.5" text-anchor="start" style="font-color:black;font-weight:normal" transform="rotate(427.94036482708634,645,394.5)">9%&#160;&#160;&#160;Staphylococcus epidermidis</text><path class="line" d=" M 757.5942087455336,563.7540384987497 A 203.28400180823144,203.28400180823144 0 0 0 769.8676907203155,554.9133573158566"/><line x1="780.4726258441599" y1="598.1453676047856" x2="757.5942087455336" y2="563.7540384987497"/><text x="868.9370009041157" y="394.5" text-anchor="start" style="font-color:black;font-weight:normal" transform="rotate(414.2345109355581,645,394.5)">1%&#160;&#160;&#160;Staphylococcus epidermidis RP62A</text><path class="line" d=" M 747.7443523517607,569.9080484213489 A 203.28400180823144,203.28400180823144 0 0 0 757.5942087455336,563.7540384987497"/><line x1="768.6213421527575" y1="605.5498326565337" x2="747.7443523517607" y2="569.9080484213489"/><text x="868.9370009041157" y="394.5" text-anchor="start" style="font-color:black;font-weight:normal" transform="rotate(418.0036123707549,645,394.5)">0.9%&#160;&#160;&#160;Staphylococcus epidermidis ATCC 12228</text><path class="line" d=" M 664.1459556804325,591.4735294131616 A 197.90184159930075,197.90184159930075 0 0 0 666.4476132635793,591.2362162736964"/><line x1="668.6627878853126" y1="637.9426843622431" x2="664.1459556804325" y2="591.4735294131616"/><path class="line" d=" M 659.6290360819968,585.4890533772831 A 191.54849831475852,191.54849831475852 0 0 0 659.6417068833391,585.4880824192479"/><line x1="663.6799477248625" y1="638.3756397285231" x2="659.6290360819968" y2="585.4890533772831"/><path class="line" d=" M 658.6596979906865,577.928087811192 A 183.93599633368976,183.93599633368976 0 0 0 658.893765225818,577.9105068831036"/><line x1="663.1640657518763" y1="638.4146055802348" x2="658.6596979906865" y2="577.928087811192"/><path class="line" d=" M 649.9556008743241,557.5004625067131 A 163.07577612088187,163.07577612088187 0 0 0 650.0077621683849,557.4988683258043"/><line x1="652.4326821964805" y1="638.9770405076233" x2="649.9556008743241" y2="557.5004625067131"/><path class="line" d=" M 648.5092297423918,542.7110111405536 A 148.2525497814125,148.2525497814125 0 0 0 648.560707126612,542.7097833526811"/><line x1="650.789596900405" y1="639.0214687256127" x2="648.5092297423918" y2="542.7110111405536"/><path class="line" d=" M 647.6738527802312,523.0768831273413 A 128.6046825097451,128.6046825097451 0 0 0 647.9352728488416,523.0711808172235"/><line x1="650.0853331212663" y1="639.0371290561941" x2="647.6738527802312" y2="523.0768831273413"/><path class="line" d=" M 646.8039862177453,495.83967023498445 A 101.35572568734936,101.35572568734936 0 0 0 646.8071500768953,495.8396138645139"/><line x1="649.3533504003454" y1="639.0512552417015" x2="646.8039862177453" y2="495.83967023498445"/><path class="line" d=" M 645.4765408799963,455.64564305851803 A 61.1475,61.1475 0 0 0 646.0876218210196,455.63782654809086"/><line x1="646.9061635199851" y1="639.0825722340721" x2="645.4765408799963" y2="455.64564305851803"/></svg>